<?xml version="1.0" encoding="utf-8" standalone="no"?>
<!DOCTYPE svg PUBLIC "-//W3C//DTD SVG 1.1//EN"
  "http://www.w3.org/Graphics/SVG/1.1/DTD/svg11.dtd">
<svg xmlns:xlink="http://www.w3.org/1999/xlink" width="453.543307pt" height="453.543307pt" viewBox="0 0 453.543307 453.543307" xmlns="http://www.w3.org/2000/svg" version="1.1">
 <metadata>
  <rdf:RDF xmlns:dc="http://purl.org/dc/elements/1.1/" xmlns:cc="http://creativecommons.org/ns#" xmlns:rdf="http://www.w3.org/1999/02/22-rdf-syntax-ns#">
   <cc:Work>
    <dc:type rdf:resource="http://purl.org/dc/dcmitype/StillImage"/>
    <dc:date>2025-06-11T14:02:59.488237</dc:date>
    <dc:format>image/svg+xml</dc:format>
    <dc:creator>
     <cc:Agent>
      <dc:title>Matplotlib v3.10.3, https://matplotlib.org/</dc:title>
     </cc:Agent>
    </dc:creator>
   </cc:Work>
  </rdf:RDF>
 </metadata>
 <defs>
  <style type="text/css">*{stroke-linejoin: round; stroke-linecap: butt}</style>
 </defs>
 <g id="figure_1">
  <g id="patch_1">
   <path d="M 0 453.543307 
L 453.543307 453.543307 
L 453.543307 0 
L 0 0 
z
" style="fill: #ffffff"/>
  </g>
  <g id="axes_1">
   <g id="patch_2">
    <path d="M 56.692913 403.653543 
L 408.188976 403.653543 
L 408.188976 54.425197 
L 56.692913 54.425197 
z
" style="fill: #ffffff"/>
   </g>
   <g id="matplotlib.axis_1">
    <g id="xtick_1">
     <g id="line2d_1">
      <defs>
       <path id="m86d50c2feb" d="M 0 0 
L 0 6 
" style="stroke: #262626; stroke-width: 1.25"/>
      </defs>
      <g>
       <use xlink:href="#m86d50c2feb" x="72.670007" y="403.653543" style="fill: #262626; stroke: #262626; stroke-width: 1.25"/>
      </g>
     </g>
     <g id="text_1">
      <!-- −1 -->
      <g style="fill: #262626" transform="translate(62.350476 423.791356) scale(0.14 -0.14)">
       <defs>
        <path id="DejaVuSans-2212" d="M 678 2272 
L 4684 2272 
L 4684 1741 
L 678 1741 
L 678 2272 
z
" transform="scale(0.015625)"/>
        <path id="DejaVuSans-31" d="M 794 531 
L 1825 531 
L 1825 4091 
L 703 3866 
L 703 4441 
L 1819 4666 
L 2450 4666 
L 2450 531 
L 3481 531 
L 3481 0 
L 794 0 
L 794 531 
z
" transform="scale(0.015625)"/>
       </defs>
       <use xlink:href="#DejaVuSans-2212"/>
       <use xlink:href="#DejaVuSans-31" transform="translate(83.789062 0)"/>
      </g>
     </g>
    </g>
    <g id="xtick_2">
     <g id="line2d_2">
      <g>
       <use xlink:href="#m86d50c2feb" x="232.440945" y="403.653543" style="fill: #262626; stroke: #262626; stroke-width: 1.25"/>
      </g>
     </g>
     <g id="text_2">
      <!-- 0 -->
      <g style="fill: #262626" transform="translate(227.987195 423.791356) scale(0.14 -0.14)">
       <defs>
        <path id="DejaVuSans-30" d="M 2034 4250 
Q 1547 4250 1301 3770 
Q 1056 3291 1056 2328 
Q 1056 1369 1301 889 
Q 1547 409 2034 409 
Q 2525 409 2770 889 
Q 3016 1369 3016 2328 
Q 3016 3291 2770 3770 
Q 2525 4250 2034 4250 
z
M 2034 4750 
Q 2819 4750 3233 4129 
Q 3647 3509 3647 2328 
Q 3647 1150 3233 529 
Q 2819 -91 2034 -91 
Q 1250 -91 836 529 
Q 422 1150 422 2328 
Q 422 3509 836 4129 
Q 1250 4750 2034 4750 
z
" transform="scale(0.015625)"/>
       </defs>
       <use xlink:href="#DejaVuSans-30"/>
      </g>
     </g>
    </g>
    <g id="xtick_3">
     <g id="line2d_3">
      <g>
       <use xlink:href="#m86d50c2feb" x="392.211883" y="403.653543" style="fill: #262626; stroke: #262626; stroke-width: 1.25"/>
      </g>
     </g>
     <g id="text_3">
      <!-- 1 -->
      <g style="fill: #262626" transform="translate(387.758133 423.791356) scale(0.14 -0.14)">
       <use xlink:href="#DejaVuSans-31"/>
      </g>
     </g>
    </g>
    <g id="text_4">
     <!-- x -->
     <g style="fill: #262626" transform="translate(227.705945 442.860418) scale(0.16 -0.16)">
      <defs>
       <path id="DejaVuSans-78" d="M 3513 3500 
L 2247 1797 
L 3578 0 
L 2900 0 
L 1881 1375 
L 863 0 
L 184 0 
L 1544 1831 
L 300 3500 
L 978 3500 
L 1906 2253 
L 2834 3500 
L 3513 3500 
z
" transform="scale(0.015625)"/>
      </defs>
      <use xlink:href="#DejaVuSans-78"/>
     </g>
    </g>
   </g>
   <g id="matplotlib.axis_2">
    <g id="ytick_1">
     <g id="line2d_4">
      <defs>
       <path id="m3131db6098" d="M 0 0 
L -6 0 
" style="stroke: #262626; stroke-width: 1.25"/>
      </defs>
      <g>
       <use xlink:href="#m3131db6098" x="56.692913" y="395.892913" style="fill: #262626; stroke: #262626; stroke-width: 1.25"/>
      </g>
     </g>
     <g id="text_5">
      <!-- −3 -->
      <g style="fill: #262626" transform="translate(26.553851 401.21182) scale(0.14 -0.14)">
       <defs>
        <path id="DejaVuSans-33" d="M 2597 2516 
Q 3050 2419 3304 2112 
Q 3559 1806 3559 1356 
Q 3559 666 3084 287 
Q 2609 -91 1734 -91 
Q 1441 -91 1130 -33 
Q 819 25 488 141 
L 488 750 
Q 750 597 1062 519 
Q 1375 441 1716 441 
Q 2309 441 2620 675 
Q 2931 909 2931 1356 
Q 2931 1769 2642 2001 
Q 2353 2234 1838 2234 
L 1294 2234 
L 1294 2753 
L 1863 2753 
Q 2328 2753 2575 2939 
Q 2822 3125 2822 3475 
Q 2822 3834 2567 4026 
Q 2313 4219 1838 4219 
Q 1578 4219 1281 4162 
Q 984 4106 628 3988 
L 628 4550 
Q 988 4650 1302 4700 
Q 1616 4750 1894 4750 
Q 2613 4750 3031 4423 
Q 3450 4097 3450 3541 
Q 3450 3153 3228 2886 
Q 3006 2619 2597 2516 
z
" transform="scale(0.015625)"/>
       </defs>
       <use xlink:href="#DejaVuSans-2212"/>
       <use xlink:href="#DejaVuSans-33" transform="translate(83.789062 0)"/>
      </g>
     </g>
    </g>
    <g id="ytick_2">
     <g id="line2d_5">
      <g>
       <use xlink:href="#m3131db6098" x="56.692913" y="302.765354" style="fill: #262626; stroke: #262626; stroke-width: 1.25"/>
      </g>
     </g>
     <g id="text_6">
      <!-- 0 -->
      <g style="fill: #262626" transform="translate(38.285413 308.084261) scale(0.14 -0.14)">
       <use xlink:href="#DejaVuSans-30"/>
      </g>
     </g>
    </g>
    <g id="ytick_3">
     <g id="line2d_6">
      <g>
       <use xlink:href="#m3131db6098" x="56.692913" y="209.637795" style="fill: #262626; stroke: #262626; stroke-width: 1.25"/>
      </g>
     </g>
     <g id="text_7">
      <!-- 3 -->
      <g style="fill: #262626" transform="translate(38.285413 214.956702) scale(0.14 -0.14)">
       <use xlink:href="#DejaVuSans-33"/>
      </g>
     </g>
    </g>
    <g id="ytick_4">
     <g id="line2d_7">
      <g>
       <use xlink:href="#m3131db6098" x="56.692913" y="116.510236" style="fill: #262626; stroke: #262626; stroke-width: 1.25"/>
      </g>
     </g>
     <g id="text_8">
      <!-- 6 -->
      <g style="fill: #262626" transform="translate(38.285413 121.829142) scale(0.14 -0.14)">
       <defs>
        <path id="DejaVuSans-36" d="M 2113 2584 
Q 1688 2584 1439 2293 
Q 1191 2003 1191 1497 
Q 1191 994 1439 701 
Q 1688 409 2113 409 
Q 2538 409 2786 701 
Q 3034 994 3034 1497 
Q 3034 2003 2786 2293 
Q 2538 2584 2113 2584 
z
M 3366 4563 
L 3366 3988 
Q 3128 4100 2886 4159 
Q 2644 4219 2406 4219 
Q 1781 4219 1451 3797 
Q 1122 3375 1075 2522 
Q 1259 2794 1537 2939 
Q 1816 3084 2150 3084 
Q 2853 3084 3261 2657 
Q 3669 2231 3669 1497 
Q 3669 778 3244 343 
Q 2819 -91 2113 -91 
Q 1303 -91 875 529 
Q 447 1150 447 2328 
Q 447 3434 972 4092 
Q 1497 4750 2381 4750 
Q 2619 4750 2861 4703 
Q 3103 4656 3366 4563 
z
" transform="scale(0.015625)"/>
       </defs>
       <use xlink:href="#DejaVuSans-36"/>
      </g>
     </g>
    </g>
    <g id="text_9">
     <!-- y -->
     <g style="fill: #262626" transform="translate(19.226351 233.77437) rotate(-90) scale(0.16 -0.16)">
      <defs>
       <path id="DejaVuSans-79" d="M 2059 -325 
Q 1816 -950 1584 -1140 
Q 1353 -1331 966 -1331 
L 506 -1331 
L 506 -850 
L 844 -850 
Q 1081 -850 1212 -737 
Q 1344 -625 1503 -206 
L 1606 56 
L 191 3500 
L 800 3500 
L 1894 763 
L 2988 3500 
L 3597 3500 
L 2059 -325 
z
" transform="scale(0.015625)"/>
      </defs>
      <use xlink:href="#DejaVuSans-79"/>
     </g>
    </g>
   </g>
   <g id="line2d_8">
    <defs>
     <path id="ma92e3a1f14" d="M 0 2 
C 0.530406 2 1.03916 1.789267 1.414214 1.414214 
C 1.789267 1.03916 2 0.530406 2 0 
C 2 -0.530406 1.789267 -1.03916 1.414214 -1.414214 
C 1.03916 -1.789267 0.530406 -2 0 -2 
C -0.530406 -2 -1.03916 -1.789267 -1.414214 -1.414214 
C -1.789267 -1.03916 -2 -0.530406 -2 0 
C -2 0.530406 -1.789267 1.03916 -1.414214 1.414214 
C -1.03916 1.789267 -0.530406 2 0 2 
z
" style="stroke: #636363"/>
    </defs>
    <g clip-path="url(#pc544a19637)">
     <use xlink:href="#ma92e3a1f14" x="72.670007" y="397.445039" style="fill: #636363; stroke: #636363"/>
     <use xlink:href="#ma92e3a1f14" x="76.664281" y="391.616132" style="fill: #636363; stroke: #636363"/>
     <use xlink:href="#ma92e3a1f14" x="80.658554" y="386.089724" style="fill: #636363; stroke: #636363"/>
     <use xlink:href="#ma92e3a1f14" x="84.652827" y="380.855951" style="fill: #636363; stroke: #636363"/>
     <use xlink:href="#ma92e3a1f14" x="88.647101" y="375.904945" style="fill: #636363; stroke: #636363"/>
     <use xlink:href="#ma92e3a1f14" x="92.641374" y="371.226843" style="fill: #636363; stroke: #636363"/>
     <use xlink:href="#ma92e3a1f14" x="96.635648" y="366.811777" style="fill: #636363; stroke: #636363"/>
     <use xlink:href="#ma92e3a1f14" x="100.629921" y="362.649882" style="fill: #636363; stroke: #636363"/>
     <use xlink:href="#ma92e3a1f14" x="104.624195" y="358.731292" style="fill: #636363; stroke: #636363"/>
     <use xlink:href="#ma92e3a1f14" x="108.618468" y="355.046143" style="fill: #636363; stroke: #636363"/>
     <use xlink:href="#ma92e3a1f14" x="112.612742" y="351.584567" style="fill: #636363; stroke: #636363"/>
     <use xlink:href="#ma92e3a1f14" x="116.607015" y="348.3367" style="fill: #636363; stroke: #636363"/>
     <use xlink:href="#ma92e3a1f14" x="120.601288" y="345.292675" style="fill: #636363; stroke: #636363"/>
     <use xlink:href="#ma92e3a1f14" x="124.595562" y="342.442627" style="fill: #636363; stroke: #636363"/>
     <use xlink:href="#ma92e3a1f14" x="128.589835" y="339.776691" style="fill: #636363; stroke: #636363"/>
     <use xlink:href="#ma92e3a1f14" x="132.584109" y="337.285" style="fill: #636363; stroke: #636363"/>
     <use xlink:href="#ma92e3a1f14" x="136.578382" y="334.957689" style="fill: #636363; stroke: #636363"/>
     <use xlink:href="#ma92e3a1f14" x="140.572656" y="332.784892" style="fill: #636363; stroke: #636363"/>
     <use xlink:href="#ma92e3a1f14" x="144.566929" y="330.756744" style="fill: #636363; stroke: #636363"/>
     <use xlink:href="#ma92e3a1f14" x="148.561203" y="328.863378" style="fill: #636363; stroke: #636363"/>
     <use xlink:href="#ma92e3a1f14" x="152.555476" y="327.094929" style="fill: #636363; stroke: #636363"/>
     <use xlink:href="#ma92e3a1f14" x="156.549749" y="325.441532" style="fill: #636363; stroke: #636363"/>
     <use xlink:href="#ma92e3a1f14" x="160.544023" y="323.89332" style="fill: #636363; stroke: #636363"/>
     <use xlink:href="#ma92e3a1f14" x="164.538296" y="322.440428" style="fill: #636363; stroke: #636363"/>
     <use xlink:href="#ma92e3a1f14" x="168.53257" y="321.072991" style="fill: #636363; stroke: #636363"/>
     <use xlink:href="#ma92e3a1f14" x="172.526843" y="319.781142" style="fill: #636363; stroke: #636363"/>
     <use xlink:href="#ma92e3a1f14" x="176.521117" y="318.555016" style="fill: #636363; stroke: #636363"/>
     <use xlink:href="#ma92e3a1f14" x="180.51539" y="317.384747" style="fill: #636363; stroke: #636363"/>
     <use xlink:href="#ma92e3a1f14" x="184.509664" y="316.260469" style="fill: #636363; stroke: #636363"/>
     <use xlink:href="#ma92e3a1f14" x="188.503937" y="315.172317" style="fill: #636363; stroke: #636363"/>
     <use xlink:href="#ma92e3a1f14" x="192.49821" y="314.110425" style="fill: #636363; stroke: #636363"/>
     <use xlink:href="#ma92e3a1f14" x="196.492484" y="313.064928" style="fill: #636363; stroke: #636363"/>
     <use xlink:href="#ma92e3a1f14" x="200.486757" y="312.025959" style="fill: #636363; stroke: #636363"/>
     <use xlink:href="#ma92e3a1f14" x="204.481031" y="310.983653" style="fill: #636363; stroke: #636363"/>
     <use xlink:href="#ma92e3a1f14" x="208.475304" y="309.928144" style="fill: #636363; stroke: #636363"/>
     <use xlink:href="#ma92e3a1f14" x="212.469578" y="308.849567" style="fill: #636363; stroke: #636363"/>
     <use xlink:href="#ma92e3a1f14" x="216.463851" y="307.738056" style="fill: #636363; stroke: #636363"/>
     <use xlink:href="#ma92e3a1f14" x="220.458125" y="306.583744" style="fill: #636363; stroke: #636363"/>
     <use xlink:href="#ma92e3a1f14" x="224.452398" y="305.376767" style="fill: #636363; stroke: #636363"/>
     <use xlink:href="#ma92e3a1f14" x="228.446671" y="304.107259" style="fill: #636363; stroke: #636363"/>
     <use xlink:href="#ma92e3a1f14" x="232.440945" y="302.765354" style="fill: #636363; stroke: #636363"/>
     <use xlink:href="#ma92e3a1f14" x="236.435218" y="301.341187" style="fill: #636363; stroke: #636363"/>
     <use xlink:href="#ma92e3a1f14" x="240.429492" y="299.82489" style="fill: #636363; stroke: #636363"/>
     <use xlink:href="#ma92e3a1f14" x="244.423765" y="298.2066" style="fill: #636363; stroke: #636363"/>
     <use xlink:href="#ma92e3a1f14" x="248.418039" y="296.47645" style="fill: #636363; stroke: #636363"/>
     <use xlink:href="#ma92e3a1f14" x="252.412312" y="294.624575" style="fill: #636363; stroke: #636363"/>
     <use xlink:href="#ma92e3a1f14" x="256.406586" y="292.641108" style="fill: #636363; stroke: #636363"/>
     <use xlink:href="#ma92e3a1f14" x="260.400859" y="290.516185" style="fill: #636363; stroke: #636363"/>
     <use xlink:href="#ma92e3a1f14" x="264.395132" y="288.239939" style="fill: #636363; stroke: #636363"/>
     <use xlink:href="#ma92e3a1f14" x="268.389406" y="285.802504" style="fill: #636363; stroke: #636363"/>
     <use xlink:href="#ma92e3a1f14" x="272.383679" y="283.194016" style="fill: #636363; stroke: #636363"/>
     <use xlink:href="#ma92e3a1f14" x="276.377953" y="280.404608" style="fill: #636363; stroke: #636363"/>
     <use xlink:href="#ma92e3a1f14" x="280.372226" y="277.424414" style="fill: #636363; stroke: #636363"/>
     <use xlink:href="#ma92e3a1f14" x="284.3665" y="274.24357" style="fill: #636363; stroke: #636363"/>
     <use xlink:href="#ma92e3a1f14" x="288.360773" y="270.852208" style="fill: #636363; stroke: #636363"/>
     <use xlink:href="#ma92e3a1f14" x="292.355047" y="267.240465" style="fill: #636363; stroke: #636363"/>
     <use xlink:href="#ma92e3a1f14" x="296.34932" y="263.398473" style="fill: #636363; stroke: #636363"/>
     <use xlink:href="#ma92e3a1f14" x="300.343593" y="259.316367" style="fill: #636363; stroke: #636363"/>
     <use xlink:href="#ma92e3a1f14" x="304.337867" y="254.984281" style="fill: #636363; stroke: #636363"/>
     <use xlink:href="#ma92e3a1f14" x="308.33214" y="250.39235" style="fill: #636363; stroke: #636363"/>
     <use xlink:href="#ma92e3a1f14" x="312.326414" y="245.530709" style="fill: #636363; stroke: #636363"/>
     <use xlink:href="#ma92e3a1f14" x="316.320687" y="240.38949" style="fill: #636363; stroke: #636363"/>
     <use xlink:href="#ma92e3a1f14" x="320.314961" y="234.958829" style="fill: #636363; stroke: #636363"/>
     <use xlink:href="#ma92e3a1f14" x="324.309234" y="229.22886" style="fill: #636363; stroke: #636363"/>
     <use xlink:href="#ma92e3a1f14" x="328.303508" y="223.189718" style="fill: #636363; stroke: #636363"/>
     <use xlink:href="#ma92e3a1f14" x="332.297781" y="216.831535" style="fill: #636363; stroke: #636363"/>
     <use xlink:href="#ma92e3a1f14" x="336.292054" y="210.144448" style="fill: #636363; stroke: #636363"/>
     <use xlink:href="#ma92e3a1f14" x="340.286328" y="203.11859" style="fill: #636363; stroke: #636363"/>
     <use xlink:href="#ma92e3a1f14" x="344.280601" y="195.744095" style="fill: #636363; stroke: #636363"/>
     <use xlink:href="#ma92e3a1f14" x="348.274875" y="188.011098" style="fill: #636363; stroke: #636363"/>
     <use xlink:href="#ma92e3a1f14" x="352.269148" y="179.909732" style="fill: #636363; stroke: #636363"/>
     <use xlink:href="#ma92e3a1f14" x="356.263422" y="171.430133" style="fill: #636363; stroke: #636363"/>
     <use xlink:href="#ma92e3a1f14" x="360.257695" y="162.562435" style="fill: #636363; stroke: #636363"/>
     <use xlink:href="#ma92e3a1f14" x="364.251969" y="153.296772" style="fill: #636363; stroke: #636363"/>
     <use xlink:href="#ma92e3a1f14" x="368.246242" y="143.623277" style="fill: #636363; stroke: #636363"/>
     <use xlink:href="#ma92e3a1f14" x="372.240515" y="133.532087" style="fill: #636363; stroke: #636363"/>
     <use xlink:href="#ma92e3a1f14" x="376.234789" y="123.013334" style="fill: #636363; stroke: #636363"/>
     <use xlink:href="#ma92e3a1f14" x="380.229062" y="112.057153" style="fill: #636363; stroke: #636363"/>
     <use xlink:href="#ma92e3a1f14" x="384.223336" y="100.653678" style="fill: #636363; stroke: #636363"/>
     <use xlink:href="#ma92e3a1f14" x="388.217609" y="88.793045" style="fill: #636363; stroke: #636363"/>
    </g>
   </g>
   <g id="patch_3">
    <path d="M 56.692913 403.653543 
L 56.692913 54.425197 
" style="fill: none; stroke: #262626; stroke-width: 1.25; stroke-linejoin: miter; stroke-linecap: square"/>
   </g>
   <g id="patch_4">
    <path d="M 56.692913 403.653543 
L 408.188976 403.653543 
" style="fill: none; stroke: #262626; stroke-width: 1.25; stroke-linejoin: miter; stroke-linecap: square"/>
   </g>
   <g id="text_10">
    <!-- $y_1=3.39 x^3 + 2.12 x^2 +1.78x$ -->
    <g style="fill: #262626" transform="translate(119.160945 48.425197) scale(0.16 -0.16)">
     <defs>
      <path id="DejaVuSans-Oblique-79" d="M 1588 -325 
Q 1188 -997 936 -1164 
Q 684 -1331 294 -1331 
L -159 -1331 
L -63 -850 
L 269 -850 
Q 509 -850 678 -719 
Q 847 -588 1056 -206 
L 1234 128 
L 459 3500 
L 1069 3500 
L 1650 819 
L 3256 3500 
L 3859 3500 
L 1588 -325 
z
" transform="scale(0.015625)"/>
      <path id="DejaVuSans-3d" d="M 678 2906 
L 4684 2906 
L 4684 2381 
L 678 2381 
L 678 2906 
z
M 678 1631 
L 4684 1631 
L 4684 1100 
L 678 1100 
L 678 1631 
z
" transform="scale(0.015625)"/>
      <path id="DejaVuSans-2e" d="M 684 794 
L 1344 794 
L 1344 0 
L 684 0 
L 684 794 
z
" transform="scale(0.015625)"/>
      <path id="DejaVuSans-39" d="M 703 97 
L 703 672 
Q 941 559 1184 500 
Q 1428 441 1663 441 
Q 2288 441 2617 861 
Q 2947 1281 2994 2138 
Q 2813 1869 2534 1725 
Q 2256 1581 1919 1581 
Q 1219 1581 811 2004 
Q 403 2428 403 3163 
Q 403 3881 828 4315 
Q 1253 4750 1959 4750 
Q 2769 4750 3195 4129 
Q 3622 3509 3622 2328 
Q 3622 1225 3098 567 
Q 2575 -91 1691 -91 
Q 1453 -91 1209 -44 
Q 966 3 703 97 
z
M 1959 2075 
Q 2384 2075 2632 2365 
Q 2881 2656 2881 3163 
Q 2881 3666 2632 3958 
Q 2384 4250 1959 4250 
Q 1534 4250 1286 3958 
Q 1038 3666 1038 3163 
Q 1038 2656 1286 2365 
Q 1534 2075 1959 2075 
z
" transform="scale(0.015625)"/>
      <path id="DejaVuSans-Oblique-78" d="M 3841 3500 
L 2234 1784 
L 3219 0 
L 2559 0 
L 1819 1388 
L 531 0 
L -166 0 
L 1556 1844 
L 641 3500 
L 1300 3500 
L 1972 2234 
L 3144 3500 
L 3841 3500 
z
" transform="scale(0.015625)"/>
      <path id="DejaVuSans-2b" d="M 2944 4013 
L 2944 2272 
L 4684 2272 
L 4684 1741 
L 2944 1741 
L 2944 0 
L 2419 0 
L 2419 1741 
L 678 1741 
L 678 2272 
L 2419 2272 
L 2419 4013 
L 2944 4013 
z
" transform="scale(0.015625)"/>
      <path id="DejaVuSans-32" d="M 1228 531 
L 3431 531 
L 3431 0 
L 469 0 
L 469 531 
Q 828 903 1448 1529 
Q 2069 2156 2228 2338 
Q 2531 2678 2651 2914 
Q 2772 3150 2772 3378 
Q 2772 3750 2511 3984 
Q 2250 4219 1831 4219 
Q 1534 4219 1204 4116 
Q 875 4013 500 3803 
L 500 4441 
Q 881 4594 1212 4672 
Q 1544 4750 1819 4750 
Q 2544 4750 2975 4387 
Q 3406 4025 3406 3419 
Q 3406 3131 3298 2873 
Q 3191 2616 2906 2266 
Q 2828 2175 2409 1742 
Q 1991 1309 1228 531 
z
" transform="scale(0.015625)"/>
      <path id="DejaVuSans-37" d="M 525 4666 
L 3525 4666 
L 3525 4397 
L 1831 0 
L 1172 0 
L 2766 4134 
L 525 4134 
L 525 4666 
z
" transform="scale(0.015625)"/>
      <path id="DejaVuSans-38" d="M 2034 2216 
Q 1584 2216 1326 1975 
Q 1069 1734 1069 1313 
Q 1069 891 1326 650 
Q 1584 409 2034 409 
Q 2484 409 2743 651 
Q 3003 894 3003 1313 
Q 3003 1734 2745 1975 
Q 2488 2216 2034 2216 
z
M 1403 2484 
Q 997 2584 770 2862 
Q 544 3141 544 3541 
Q 544 4100 942 4425 
Q 1341 4750 2034 4750 
Q 2731 4750 3128 4425 
Q 3525 4100 3525 3541 
Q 3525 3141 3298 2862 
Q 3072 2584 2669 2484 
Q 3125 2378 3379 2068 
Q 3634 1759 3634 1313 
Q 3634 634 3220 271 
Q 2806 -91 2034 -91 
Q 1263 -91 848 271 
Q 434 634 434 1313 
Q 434 1759 690 2068 
Q 947 2378 1403 2484 
z
M 1172 3481 
Q 1172 3119 1398 2916 
Q 1625 2713 2034 2713 
Q 2441 2713 2670 2916 
Q 2900 3119 2900 3481 
Q 2900 3844 2670 4047 
Q 2441 4250 2034 4250 
Q 1625 4250 1398 4047 
Q 1172 3844 1172 3481 
z
" transform="scale(0.015625)"/>
     </defs>
     <use xlink:href="#DejaVuSans-Oblique-79" transform="translate(0 0.765625)"/>
     <use xlink:href="#DejaVuSans-31" transform="translate(59.179688 -15.640625) scale(0.7)"/>
     <use xlink:href="#DejaVuSans-3d" transform="translate(125.932617 0.765625)"/>
     <use xlink:href="#DejaVuSans-33" transform="translate(229.204102 0.765625)"/>
     <use xlink:href="#DejaVuSans-2e" transform="translate(292.827148 0.765625)"/>
     <use xlink:href="#DejaVuSans-33" transform="translate(324.614258 0.765625)"/>
     <use xlink:href="#DejaVuSans-39" transform="translate(388.237305 0.765625)"/>
     <use xlink:href="#DejaVuSans-Oblique-78" transform="translate(451.860352 0.765625)"/>
     <use xlink:href="#DejaVuSans-33" transform="translate(515.506185 39.046875) scale(0.7)"/>
     <use xlink:href="#DejaVuSans-2b" transform="translate(582.259115 0.765625)"/>
     <use xlink:href="#DejaVuSans-32" transform="translate(685.530599 0.765625)"/>
     <use xlink:href="#DejaVuSans-2e" transform="translate(749.153646 0.765625)"/>
     <use xlink:href="#DejaVuSans-31" transform="translate(780.940755 0.765625)"/>
     <use xlink:href="#DejaVuSans-32" transform="translate(844.563802 0.765625)"/>
     <use xlink:href="#DejaVuSans-Oblique-78" transform="translate(908.186849 0.765625)"/>
     <use xlink:href="#DejaVuSans-32" transform="translate(971.832682 39.046875) scale(0.7)"/>
     <use xlink:href="#DejaVuSans-2b" transform="translate(1038.585612 0.765625)"/>
     <use xlink:href="#DejaVuSans-31" transform="translate(1141.857096 0.765625)"/>
     <use xlink:href="#DejaVuSans-2e" transform="translate(1205.480143 0.765625)"/>
     <use xlink:href="#DejaVuSans-37" transform="translate(1229.517253 0.765625)"/>
     <use xlink:href="#DejaVuSans-38" transform="translate(1293.140299 0.765625)"/>
     <use xlink:href="#DejaVuSans-Oblique-78" transform="translate(1356.763346 0.765625)"/>
    </g>
   </g>
  </g>
 </g>
 <defs>
  <clipPath id="pc544a19637">
   <rect x="56.692913" y="54.425197" width="351.496063" height="349.228346"/>
  </clipPath>
 </defs>
</svg>
