<?xml version="1.0" encoding="utf-8" standalone="no"?>
<!DOCTYPE svg PUBLIC "-//W3C//DTD SVG 1.1//EN"
  "http://www.w3.org/Graphics/SVG/1.1/DTD/svg11.dtd">
<svg xmlns:xlink="http://www.w3.org/1999/xlink" width="453.543307pt" height="453.543307pt" viewBox="0 0 453.543307 453.543307" xmlns="http://www.w3.org/2000/svg" version="1.1">
 <metadata>
  <rdf:RDF xmlns:dc="http://purl.org/dc/elements/1.1/" xmlns:cc="http://creativecommons.org/ns#" xmlns:rdf="http://www.w3.org/1999/02/22-rdf-syntax-ns#">
   <cc:Work>
    <dc:type rdf:resource="http://purl.org/dc/dcmitype/StillImage"/>
    <dc:date>2025-07-18T14:56:53.222830</dc:date>
    <dc:format>image/svg+xml</dc:format>
    <dc:creator>
     <cc:Agent>
      <dc:title>Matplotlib v3.10.3, https://matplotlib.org/</dc:title>
     </cc:Agent>
    </dc:creator>
   </cc:Work>
  </rdf:RDF>
 </metadata>
 <defs>
  <style type="text/css">*{stroke-linejoin: round; stroke-linecap: butt}</style>
 </defs>
 <g id="figure_1">
  <g id="patch_1">
   <path d="M 0 453.543307 
L 453.543307 453.543307 
L 453.543307 0 
L 0 0 
z
" style="fill: #ffffff"/>
  </g>
  <g id="axes_1">
   <g id="patch_2">
    <path d="M 64.59 397.563307 
L 440.583307 397.563307 
L 440.583307 34.6472 
L 64.59 34.6472 
z
" style="fill: #ffffff"/>
   </g>
   <g id="matplotlib.axis_1">
    <g id="xtick_1">
     <g id="line2d_1">
      <defs>
       <path id="mdb7fec0f33" d="M 0 0 
L 0 6 
" style="stroke: #262626; stroke-width: 1.25"/>
      </defs>
      <g>
       <use xlink:href="#mdb7fec0f33" x="69.175284" y="397.563307" style="fill: #262626; stroke: #262626; stroke-width: 1.25"/>
      </g>
     </g>
     <g id="text_1">
      <!-- −2 -->
      <g style="fill: #262626" transform="translate(58.855753 417.70112) scale(0.14 -0.14)">
       <defs>
        <path id="DejaVuSans-2212" d="M 678 2272 
L 4684 2272 
L 4684 1741 
L 678 1741 
L 678 2272 
z
" transform="scale(0.015625)"/>
        <path id="DejaVuSans-32" d="M 1228 531 
L 3431 531 
L 3431 0 
L 469 0 
L 469 531 
Q 828 903 1448 1529 
Q 2069 2156 2228 2338 
Q 2531 2678 2651 2914 
Q 2772 3150 2772 3378 
Q 2772 3750 2511 3984 
Q 2250 4219 1831 4219 
Q 1534 4219 1204 4116 
Q 875 4013 500 3803 
L 500 4441 
Q 881 4594 1212 4672 
Q 1544 4750 1819 4750 
Q 2544 4750 2975 4387 
Q 3406 4025 3406 3419 
Q 3406 3131 3298 2873 
Q 3191 2616 2906 2266 
Q 2828 2175 2409 1742 
Q 1991 1309 1228 531 
z
" transform="scale(0.015625)"/>
       </defs>
       <use xlink:href="#DejaVuSans-2212"/>
       <use xlink:href="#DejaVuSans-32" transform="translate(83.789062 0)"/>
      </g>
     </g>
    </g>
    <g id="xtick_2">
     <g id="line2d_2">
      <g>
       <use xlink:href="#mdb7fec0f33" x="160.880969" y="397.563307" style="fill: #262626; stroke: #262626; stroke-width: 1.25"/>
      </g>
     </g>
     <g id="text_2">
      <!-- −1 -->
      <g style="fill: #262626" transform="translate(150.561438 417.70112) scale(0.14 -0.14)">
       <defs>
        <path id="DejaVuSans-31" d="M 794 531 
L 1825 531 
L 1825 4091 
L 703 3866 
L 703 4441 
L 1819 4666 
L 2450 4666 
L 2450 531 
L 3481 531 
L 3481 0 
L 794 0 
L 794 531 
z
" transform="scale(0.015625)"/>
       </defs>
       <use xlink:href="#DejaVuSans-2212"/>
       <use xlink:href="#DejaVuSans-31" transform="translate(83.789062 0)"/>
      </g>
     </g>
    </g>
    <g id="xtick_3">
     <g id="line2d_3">
      <g>
       <use xlink:href="#mdb7fec0f33" x="252.586654" y="397.563307" style="fill: #262626; stroke: #262626; stroke-width: 1.25"/>
      </g>
     </g>
     <g id="text_3">
      <!-- 0 -->
      <g style="fill: #262626" transform="translate(248.132904 417.70112) scale(0.14 -0.14)">
       <defs>
        <path id="DejaVuSans-30" d="M 2034 4250 
Q 1547 4250 1301 3770 
Q 1056 3291 1056 2328 
Q 1056 1369 1301 889 
Q 1547 409 2034 409 
Q 2525 409 2770 889 
Q 3016 1369 3016 2328 
Q 3016 3291 2770 3770 
Q 2525 4250 2034 4250 
z
M 2034 4750 
Q 2819 4750 3233 4129 
Q 3647 3509 3647 2328 
Q 3647 1150 3233 529 
Q 2819 -91 2034 -91 
Q 1250 -91 836 529 
Q 422 1150 422 2328 
Q 422 3509 836 4129 
Q 1250 4750 2034 4750 
z
" transform="scale(0.015625)"/>
       </defs>
       <use xlink:href="#DejaVuSans-30"/>
      </g>
     </g>
    </g>
    <g id="xtick_4">
     <g id="line2d_4">
      <g>
       <use xlink:href="#mdb7fec0f33" x="344.292338" y="397.563307" style="fill: #262626; stroke: #262626; stroke-width: 1.25"/>
      </g>
     </g>
     <g id="text_4">
      <!-- 1 -->
      <g style="fill: #262626" transform="translate(339.838588 417.70112) scale(0.14 -0.14)">
       <use xlink:href="#DejaVuSans-31"/>
      </g>
     </g>
    </g>
    <g id="xtick_5">
     <g id="line2d_5">
      <g>
       <use xlink:href="#mdb7fec0f33" x="435.998023" y="397.563307" style="fill: #262626; stroke: #262626; stroke-width: 1.25"/>
      </g>
     </g>
     <g id="text_5">
      <!-- 2 -->
      <g style="fill: #262626" transform="translate(431.544273 417.70112) scale(0.14 -0.14)">
       <use xlink:href="#DejaVuSans-32"/>
      </g>
     </g>
    </g>
    <g id="text_6">
     <!-- x -->
     <g style="fill: #262626" transform="translate(247.851654 436.770182) scale(0.16 -0.16)">
      <defs>
       <path id="DejaVuSans-78" d="M 3513 3500 
L 2247 1797 
L 3578 0 
L 2900 0 
L 1881 1375 
L 863 0 
L 184 0 
L 1544 1831 
L 300 3500 
L 978 3500 
L 1906 2253 
L 2834 3500 
L 3513 3500 
z
" transform="scale(0.015625)"/>
      </defs>
      <use xlink:href="#DejaVuSans-78"/>
     </g>
    </g>
   </g>
   <g id="matplotlib.axis_2">
    <g id="ytick_1">
     <g id="line2d_6">
      <defs>
       <path id="mae6cb261a8" d="M 0 0 
L -6 0 
" style="stroke: #262626; stroke-width: 1.25"/>
      </defs>
      <g>
       <use xlink:href="#mae6cb261a8" x="64.59" y="354.013374" style="fill: #262626; stroke: #262626; stroke-width: 1.25"/>
      </g>
     </g>
     <g id="text_7">
      <!-- 0.0 -->
      <g style="fill: #262626" transform="translate(32.825625 359.33228) scale(0.14 -0.14)">
       <defs>
        <path id="DejaVuSans-2e" d="M 684 794 
L 1344 794 
L 1344 0 
L 684 0 
L 684 794 
z
" transform="scale(0.015625)"/>
       </defs>
       <use xlink:href="#DejaVuSans-30"/>
       <use xlink:href="#DejaVuSans-2e" transform="translate(63.623047 0)"/>
       <use xlink:href="#DejaVuSans-30" transform="translate(95.410156 0)"/>
      </g>
     </g>
    </g>
    <g id="ytick_2">
     <g id="line2d_7">
      <g>
       <use xlink:href="#mae6cb261a8" x="64.59" y="208.846931" style="fill: #262626; stroke: #262626; stroke-width: 1.25"/>
      </g>
     </g>
     <g id="text_8">
      <!-- 0.5 -->
      <g style="fill: #262626" transform="translate(32.825625 214.165838) scale(0.14 -0.14)">
       <defs>
        <path id="DejaVuSans-35" d="M 691 4666 
L 3169 4666 
L 3169 4134 
L 1269 4134 
L 1269 2991 
Q 1406 3038 1543 3061 
Q 1681 3084 1819 3084 
Q 2600 3084 3056 2656 
Q 3513 2228 3513 1497 
Q 3513 744 3044 326 
Q 2575 -91 1722 -91 
Q 1428 -91 1123 -41 
Q 819 9 494 109 
L 494 744 
Q 775 591 1075 516 
Q 1375 441 1709 441 
Q 2250 441 2565 725 
Q 2881 1009 2881 1497 
Q 2881 1984 2565 2268 
Q 2250 2553 1709 2553 
Q 1456 2553 1204 2497 
Q 953 2441 691 2322 
L 691 4666 
z
" transform="scale(0.015625)"/>
       </defs>
       <use xlink:href="#DejaVuSans-30"/>
       <use xlink:href="#DejaVuSans-2e" transform="translate(63.623047 0)"/>
       <use xlink:href="#DejaVuSans-35" transform="translate(95.410156 0)"/>
      </g>
     </g>
    </g>
    <g id="ytick_3">
     <g id="line2d_8">
      <g>
       <use xlink:href="#mae6cb261a8" x="64.59" y="63.680489" style="fill: #262626; stroke: #262626; stroke-width: 1.25"/>
      </g>
     </g>
     <g id="text_9">
      <!-- 1.0 -->
      <g style="fill: #262626" transform="translate(32.825625 68.999395) scale(0.14 -0.14)">
       <use xlink:href="#DejaVuSans-31"/>
       <use xlink:href="#DejaVuSans-2e" transform="translate(63.623047 0)"/>
       <use xlink:href="#DejaVuSans-30" transform="translate(95.410156 0)"/>
      </g>
     </g>
    </g>
    <g id="text_10">
     <!-- y -->
     <g style="fill: #262626" transform="translate(25.498125 220.840254) rotate(-90) scale(0.16 -0.16)">
      <defs>
       <path id="DejaVuSans-79" d="M 2059 -325 
Q 1816 -950 1584 -1140 
Q 1353 -1331 966 -1331 
L 506 -1331 
L 506 -850 
L 844 -850 
Q 1081 -850 1212 -737 
Q 1344 -625 1503 -206 
L 1606 56 
L 191 3500 
L 800 3500 
L 1894 763 
L 2988 3500 
L 3597 3500 
L 2059 -325 
z
" transform="scale(0.015625)"/>
      </defs>
      <use xlink:href="#DejaVuSans-79"/>
     </g>
    </g>
   </g>
   <g id="line2d_9">
    <path d="M 73.760568 346.181442 
L 78.345853 336.120603 
L 82.931137 334.151595 
L 87.516421 345.522435 
L 92.101705 346.1211 
L 96.68699 347.883497 
L 101.272274 367.014283 
L 105.857558 339.090856 
L 110.442842 333.306768 
L 115.028127 344.446853 
L 119.613411 346.700785 
L 124.198695 336.177587 
L 128.783979 349.521748 
L 133.369263 319.716807 
L 137.954548 345.228888 
L 142.539832 339.881117 
L 147.125116 326.621398 
L 151.7104 344.798989 
L 156.295685 314.241713 
L 160.880969 332.748898 
L 165.466253 330.238193 
L 170.051537 321.321201 
L 174.636822 334.087334 
L 179.222106 333.128357 
L 183.80739 343.554405 
L 188.392674 322.926112 
L 192.977959 333.844815 
L 197.563243 321.233888 
L 202.148527 326.137305 
L 206.733811 342.600111 
L 211.319095 329.126002 
L 215.90438 318.858365 
L 220.489664 334.304811 
L 225.074948 324.201755 
L 229.660232 307.273605 
L 234.245517 339.947792 
L 238.830801 319.815562 
L 243.416085 325.579021 
L 248.001369 307.577151 
L 252.586654 337.967786 
L 257.171938 313.308264 
L 261.757222 288.119809 
L 266.342506 260.458496 
L 270.92779 270.66259 
L 275.513075 269.823897 
L 280.098359 249.548414 
L 284.683643 236.973484 
L 289.268927 235.199624 
L 293.854212 206.041274 
L 298.439496 220.474654 
L 303.02478 198.792707 
L 307.610064 176.652991 
L 312.195349 173.553905 
L 316.780633 159.622451 
L 321.365917 154.973984 
L 325.951201 133.014883 
L 330.536486 124.817564 
L 335.12177 135.53677 
L 339.707054 143.44368 
L 344.292338 122.030793 
L 348.877622 128.958062 
L 353.462907 97.42511 
L 358.048191 103.979083 
L 362.633475 91.637839 
L 367.218759 97.944135 
L 371.804044 79.796826 
L 376.389328 92.075095 
L 380.974612 95.312973 
L 385.559896 81.230844 
L 390.145181 73.410256 
L 394.730465 57.688325 
L 399.315749 65.921786 
L 403.901033 73.957761 
L 408.486317 66.129431 
L 413.071602 71.185173 
L 417.656886 51.701661 
L 422.24217 72.522792 
L 426.827454 69.397831 
L 431.412739 72.641671 
L 435.998023 59.922792 
" clip-path="url(#p4e8d8a82b0)" style="fill: none; stroke: #949494; stroke-width: 3; stroke-linecap: round"/>
   </g>
   <g id="line2d_10">
    <defs>
     <path id="m043b89dd57" d="M 0 1.5 
C 0.397805 1.5 0.77937 1.341951 1.06066 1.06066 
C 1.341951 0.77937 1.5 0.397805 1.5 0 
C 1.5 -0.397805 1.341951 -0.77937 1.06066 -1.06066 
C 0.77937 -1.341951 0.397805 -1.5 0 -1.5 
C -0.397805 -1.5 -0.77937 -1.341951 -1.06066 -1.06066 
C -1.341951 -0.77937 -1.5 -0.397805 -1.5 0 
C -1.5 0.397805 -1.341951 0.77937 -1.06066 1.06066 
C -0.77937 1.341951 -0.397805 1.5 0 1.5 
z
" style="stroke: #0173b2"/>
    </defs>
    <g clip-path="url(#p4e8d8a82b0)">
     <use xlink:href="#m043b89dd57" x="73.760568" y="345.517084" style="fill: #0173b2; stroke: #0173b2"/>
     <use xlink:href="#m043b89dd57" x="78.345853" y="344.811201" style="fill: #0173b2; stroke: #0173b2"/>
     <use xlink:href="#m043b89dd57" x="82.931137" y="344.090005" style="fill: #0173b2; stroke: #0173b2"/>
     <use xlink:href="#m043b89dd57" x="87.516421" y="343.355444" style="fill: #0173b2; stroke: #0173b2"/>
     <use xlink:href="#m043b89dd57" x="92.101705" y="342.609448" style="fill: #0173b2; stroke: #0173b2"/>
     <use xlink:href="#m043b89dd57" x="96.68699" y="341.853914" style="fill: #0173b2; stroke: #0173b2"/>
     <use xlink:href="#m043b89dd57" x="101.272274" y="341.0907" style="fill: #0173b2; stroke: #0173b2"/>
     <use xlink:href="#m043b89dd57" x="105.857558" y="340.321613" style="fill: #0173b2; stroke: #0173b2"/>
     <use xlink:href="#m043b89dd57" x="110.442842" y="339.548417" style="fill: #0173b2; stroke: #0173b2"/>
     <use xlink:href="#m043b89dd57" x="115.028127" y="338.772843" style="fill: #0173b2; stroke: #0173b2"/>
     <use xlink:href="#m043b89dd57" x="119.613411" y="337.996611" style="fill: #0173b2; stroke: #0173b2"/>
     <use xlink:href="#m043b89dd57" x="124.198695" y="337.221475" style="fill: #0173b2; stroke: #0173b2"/>
     <use xlink:href="#m043b89dd57" x="128.783979" y="336.449278" style="fill: #0173b2; stroke: #0173b2"/>
     <use xlink:href="#m043b89dd57" x="133.369263" y="335.682041" style="fill: #0173b2; stroke: #0173b2"/>
     <use xlink:href="#m043b89dd57" x="137.954548" y="334.922066" style="fill: #0173b2; stroke: #0173b2"/>
     <use xlink:href="#m043b89dd57" x="142.539832" y="334.172079" style="fill: #0173b2; stroke: #0173b2"/>
     <use xlink:href="#m043b89dd57" x="147.125116" y="333.435385" style="fill: #0173b2; stroke: #0173b2"/>
     <use xlink:href="#m043b89dd57" x="151.7104" y="332.716052" style="fill: #0173b2; stroke: #0173b2"/>
     <use xlink:href="#m043b89dd57" x="156.295685" y="332.019097" style="fill: #0173b2; stroke: #0173b2"/>
     <use xlink:href="#m043b89dd57" x="160.880969" y="331.350651" style="fill: #0173b2; stroke: #0173b2"/>
     <use xlink:href="#m043b89dd57" x="165.466253" y="330.718067" style="fill: #0173b2; stroke: #0173b2"/>
     <use xlink:href="#m043b89dd57" x="170.051537" y="330.129914" style="fill: #0173b2; stroke: #0173b2"/>
     <use xlink:href="#m043b89dd57" x="174.636822" y="329.595784" style="fill: #0173b2; stroke: #0173b2"/>
     <use xlink:href="#m043b89dd57" x="179.222106" y="329.125821" style="fill: #0173b2; stroke: #0173b2"/>
     <use xlink:href="#m043b89dd57" x="183.80739" y="328.729871" style="fill: #0173b2; stroke: #0173b2"/>
     <use xlink:href="#m043b89dd57" x="188.392674" y="328.416168" style="fill: #0173b2; stroke: #0173b2"/>
     <use xlink:href="#m043b89dd57" x="192.977959" y="328.189496" style="fill: #0173b2; stroke: #0173b2"/>
     <use xlink:href="#m043b89dd57" x="197.563243" y="328.048836" style="fill: #0173b2; stroke: #0173b2"/>
     <use xlink:href="#m043b89dd57" x="202.148527" y="327.9846" style="fill: #0173b2; stroke: #0173b2"/>
     <use xlink:href="#m043b89dd57" x="206.733811" y="327.975641" style="fill: #0173b2; stroke: #0173b2"/>
     <use xlink:href="#m043b89dd57" x="211.319095" y="327.986329" style="fill: #0173b2; stroke: #0173b2"/>
     <use xlink:href="#m043b89dd57" x="215.90438" y="327.963971" style="fill: #0173b2; stroke: #0173b2"/>
     <use xlink:href="#m043b89dd57" x="220.489664" y="327.836831" style="fill: #0173b2; stroke: #0173b2"/>
     <use xlink:href="#m043b89dd57" x="225.074948" y="327.5129" style="fill: #0173b2; stroke: #0173b2"/>
     <use xlink:href="#m043b89dd57" x="229.660232" y="326.879531" style="fill: #0173b2; stroke: #0173b2"/>
     <use xlink:href="#m043b89dd57" x="234.245517" y="325.804128" style="fill: #0173b2; stroke: #0173b2"/>
     <use xlink:href="#m043b89dd57" x="238.830801" y="324.136321" style="fill: #0173b2; stroke: #0173b2"/>
     <use xlink:href="#m043b89dd57" x="243.416085" y="321.712381" style="fill: #0173b2; stroke: #0173b2"/>
     <use xlink:href="#m043b89dd57" x="248.001369" y="318.362879" style="fill: #0173b2; stroke: #0173b2"/>
     <use xlink:href="#m043b89dd57" x="252.586654" y="313.924515" style="fill: #0173b2; stroke: #0173b2"/>
     <use xlink:href="#m043b89dd57" x="257.171938" y="308.256444" style="fill: #0173b2; stroke: #0173b2"/>
     <use xlink:href="#m043b89dd57" x="261.757222" y="301.260124" style="fill: #0173b2; stroke: #0173b2"/>
     <use xlink:href="#m043b89dd57" x="266.342506" y="292.899818" style="fill: #0173b2; stroke: #0173b2"/>
     <use xlink:href="#m043b89dd57" x="270.92779" y="283.21903" style="fill: #0173b2; stroke: #0173b2"/>
     <use xlink:href="#m043b89dd57" x="275.513075" y="272.347369" style="fill: #0173b2; stroke: #0173b2"/>
     <use xlink:href="#m043b89dd57" x="280.098359" y="260.49387" style="fill: #0173b2; stroke: #0173b2"/>
     <use xlink:href="#m043b89dd57" x="284.683643" y="247.92658" style="fill: #0173b2; stroke: #0173b2"/>
     <use xlink:href="#m043b89dd57" x="289.268927" y="234.942842" style="fill: #0173b2; stroke: #0173b2"/>
     <use xlink:href="#m043b89dd57" x="293.854212" y="221.837704" style="fill: #0173b2; stroke: #0173b2"/>
     <use xlink:href="#m043b89dd57" x="298.439496" y="208.877622" style="fill: #0173b2; stroke: #0173b2"/>
     <use xlink:href="#m043b89dd57" x="303.02478" y="196.28376" style="fill: #0173b2; stroke: #0173b2"/>
     <use xlink:href="#m043b89dd57" x="307.610064" y="184.225425" style="fill: #0173b2; stroke: #0173b2"/>
     <use xlink:href="#m043b89dd57" x="312.195349" y="172.82147" style="fill: #0173b2; stroke: #0173b2"/>
     <use xlink:href="#m043b89dd57" x="316.780633" y="162.146436" style="fill: #0173b2; stroke: #0173b2"/>
     <use xlink:href="#m043b89dd57" x="321.365917" y="152.238601" style="fill: #0173b2; stroke: #0173b2"/>
     <use xlink:href="#m043b89dd57" x="325.951201" y="143.108011" style="fill: #0173b2; stroke: #0173b2"/>
     <use xlink:href="#m043b89dd57" x="330.536486" y="134.743566" style="fill: #0173b2; stroke: #0173b2"/>
     <use xlink:href="#m043b89dd57" x="335.12177" y="127.118874" style="fill: #0173b2; stroke: #0173b2"/>
     <use xlink:href="#m043b89dd57" x="339.707054" y="120.196968" style="fill: #0173b2; stroke: #0173b2"/>
     <use xlink:href="#m043b89dd57" x="344.292338" y="113.934048" style="fill: #0173b2; stroke: #0173b2"/>
     <use xlink:href="#m043b89dd57" x="348.877622" y="108.28246" style="fill: #0173b2; stroke: #0173b2"/>
     <use xlink:href="#m043b89dd57" x="353.462907" y="103.193033" style="fill: #0173b2; stroke: #0173b2"/>
     <use xlink:href="#m043b89dd57" x="358.048191" y="98.616875" style="fill: #0173b2; stroke: #0173b2"/>
     <use xlink:href="#m043b89dd57" x="362.633475" y="94.506724" style="fill: #0173b2; stroke: #0173b2"/>
     <use xlink:href="#m043b89dd57" x="367.218759" y="90.81788" style="fill: #0173b2; stroke: #0173b2"/>
     <use xlink:href="#m043b89dd57" x="371.804044" y="87.508818" style="fill: #0173b2; stroke: #0173b2"/>
     <use xlink:href="#m043b89dd57" x="376.389328" y="84.541512" style="fill: #0173b2; stroke: #0173b2"/>
     <use xlink:href="#m043b89dd57" x="380.974612" y="81.881552" style="fill: #0173b2; stroke: #0173b2"/>
     <use xlink:href="#m043b89dd57" x="385.559896" y="79.498092" style="fill: #0173b2; stroke: #0173b2"/>
     <use xlink:href="#m043b89dd57" x="390.145181" y="77.363686" style="fill: #0173b2; stroke: #0173b2"/>
     <use xlink:href="#m043b89dd57" x="394.730465" y="75.454051" style="fill: #0173b2; stroke: #0173b2"/>
     <use xlink:href="#m043b89dd57" x="399.315749" y="73.747784" style="fill: #0173b2; stroke: #0173b2"/>
     <use xlink:href="#m043b89dd57" x="403.901033" y="72.226066" style="fill: #0173b2; stroke: #0173b2"/>
     <use xlink:href="#m043b89dd57" x="408.486317" y="70.87236" style="fill: #0173b2; stroke: #0173b2"/>
     <use xlink:href="#m043b89dd57" x="413.071602" y="69.672124" style="fill: #0173b2; stroke: #0173b2"/>
     <use xlink:href="#m043b89dd57" x="417.656886" y="68.612543" style="fill: #0173b2; stroke: #0173b2"/>
     <use xlink:href="#m043b89dd57" x="422.24217" y="67.68228" style="fill: #0173b2; stroke: #0173b2"/>
     <use xlink:href="#m043b89dd57" x="426.827454" y="66.871255" style="fill: #0173b2; stroke: #0173b2"/>
     <use xlink:href="#m043b89dd57" x="431.412739" y="66.170455" style="fill: #0173b2; stroke: #0173b2"/>
     <use xlink:href="#m043b89dd57" x="435.998023" y="65.571755" style="fill: #0173b2; stroke: #0173b2"/>
    </g>
   </g>
   <g id="line2d_11">
    <path d="M 73.760568 344.629391 
L 78.345853 344.401345 
L 82.931137 344.153707 
L 87.516421 343.884792 
L 92.101705 343.592738 
L 96.68699 343.275443 
L 101.272274 342.930469 
L 105.857558 342.554903 
L 110.442842 342.145134 
L 115.028127 341.696526 
L 119.613411 341.202931 
L 124.198695 340.655984 
L 128.783979 340.044117 
L 133.369263 339.351271 
L 137.954548 338.555374 
L 142.539832 337.626965 
L 147.125116 336.52888 
L 151.7104 335.219012 
L 156.295685 333.659434 
L 160.880969 331.83597 
L 165.466253 329.78966 
L 170.051537 327.651984 
L 174.636822 325.659679 
L 179.222106 324.117693 
L 183.80739 323.304382 
L 188.392674 323.364986 
L 192.977959 324.25953 
L 197.563243 325.784634 
L 202.148527 327.631907 
L 206.733811 329.443647 
L 211.319095 330.862407 
L 215.90438 331.592557 
L 220.489664 331.480469 
L 225.074948 330.585767 
L 229.660232 329.179374 
L 234.245517 327.596759 
L 238.830801 325.94285 
L 243.416085 323.808922 
L 248.001369 320.303486 
L 252.586654 314.52806 
L 257.171938 306.143597 
L 261.757222 295.517768 
L 266.342506 283.415125 
L 270.92779 270.606103 
L 275.513075 257.666192 
L 280.098359 244.959796 
L 284.683643 232.699 
L 289.268927 221.003601 
L 293.854212 209.940608 
L 298.439496 199.545699 
L 303.02478 189.833919 
L 307.610064 180.805149 
L 312.195349 172.447393 
L 316.780633 164.739273 
L 321.365917 157.652235 
L 325.951201 151.152589 
L 330.536486 145.203349 
L 335.12177 139.765813 
L 339.707054 134.800872 
L 344.292338 130.270026 
L 348.877622 126.136134 
L 353.462907 122.363934 
L 358.048191 118.920366 
L 362.633475 115.774747 
L 367.218759 112.898828 
L 371.804044 110.266767 
L 376.389328 107.855046 
L 380.974612 105.642347 
L 385.559896 103.609408 
L 390.145181 101.738863 
L 394.730465 100.015091 
L 399.315749 98.424052 
L 403.901033 96.953141 
L 408.486317 95.591048 
L 413.071602 94.327627 
L 417.656886 93.153773 
L 422.24217 92.061319 
L 426.827454 91.042932 
L 431.412739 90.092025 
L 435.998023 89.202679 
" clip-path="url(#p4e8d8a82b0)" style="fill: none; stroke: #cc78bc; stroke-width: 3; stroke-linecap: round"/>
   </g>
   <g id="line2d_12">
    <path d="M 73.760568 336.011047 
L 78.345853 336.011047 
L 82.931137 336.011047 
L 87.516421 336.011047 
L 92.101705 336.011047 
L 96.68699 336.011047 
L 101.272274 336.011047 
L 105.857558 336.011047 
L 110.442842 336.011047 
L 115.028127 336.011047 
L 119.613411 336.011047 
L 124.198695 336.011047 
L 128.783979 336.011047 
L 133.369263 336.011047 
L 137.954548 336.011047 
L 142.539832 336.011047 
L 147.125116 336.011047 
L 151.7104 336.011047 
L 156.295685 336.011047 
L 160.880969 336.011046 
L 165.466253 336.01104 
L 170.051537 336.011009 
L 174.636822 336.010859 
L 179.222106 336.010255 
L 183.80739 336.008161 
L 188.392674 336.001813 
L 192.977959 335.984779 
L 197.563243 335.943806 
L 202.148527 335.854502 
L 206.733811 335.676395 
L 211.319095 335.348471 
L 215.90438 334.786629 
L 220.489664 333.884381 
L 225.074948 332.517533 
L 229.660232 330.552677 
L 234.245517 327.858412 
L 238.830801 324.317594 
L 243.416085 319.838696 
L 248.001369 314.364645 
L 252.586654 307.878059 
L 257.171938 300.402517 
L 261.757222 292.000126 
L 266.342506 282.766127 
L 270.92779 272.82154 
L 275.513075 262.304868 
L 280.098359 251.363778 
L 284.683643 240.147483 
L 289.268927 228.800278 
L 293.854212 217.456486 
L 298.439496 206.236855 
L 303.02478 195.24633 
L 307.610064 184.573017 
L 312.195349 174.288117 
L 316.780633 164.446608 
L 321.365917 155.088445 
L 325.951201 146.24009 
L 330.536486 137.916222 
L 335.12177 130.121484 
L 339.707054 122.852195 
L 344.292338 116.097953 
L 348.877622 109.843095 
L 353.462907 104.067984 
L 358.048191 98.750133 
L 362.633475 93.865154 
L 367.218759 89.387549 
L 371.804044 85.291353 
L 376.389328 81.550651 
L 380.974612 78.139979 
L 385.559896 75.034632 
L 390.145181 72.210881 
L 394.730465 69.646135 
L 399.315749 67.319039 
L 403.901033 65.20953 
L 408.486317 63.298856 
L 413.071602 61.569572 
L 417.656886 60.005513 
L 422.24217 58.591749 
L 426.827454 57.314534 
L 431.412739 56.161243 
L 435.998023 55.120312 
" clip-path="url(#p4e8d8a82b0)" style="fill: none; stroke-dasharray: 11.1,4.8; stroke-dashoffset: 0; stroke: #029e73; stroke-width: 3"/>
   </g>
   <g id="line2d_13">
    <path d="M 344.292338 397.563307 
L 344.292338 34.6472 
" clip-path="url(#p4e8d8a82b0)" style="fill: none; stroke-dasharray: 11.1,4.8; stroke-dashoffset: 0; stroke: #1a1a1a; stroke-width: 3"/>
   </g>
   <g id="patch_3">
    <path d="M 64.59 397.563307 
L 64.59 34.6472 
" style="fill: none; stroke: #262626; stroke-width: 1.25; stroke-linejoin: miter; stroke-linecap: square"/>
   </g>
   <g id="patch_4">
    <path d="M 64.59 397.563307 
L 440.583307 397.563307 
" style="fill: none; stroke: #262626; stroke-width: 1.25; stroke-linejoin: miter; stroke-linecap: square"/>
   </g>
   <g id="text_11">
    <!-- $c_{1} + c_{2}^{e^{c_{3} x_{1}}}$ -->
    <g style="fill: #262626" transform="translate(217.546654 28.6472) scale(0.16 -0.16)">
     <defs>
      <path id="DejaVuSans-Oblique-63" d="M 3431 3366 
L 3316 2797 
Q 3109 2947 2876 3022 
Q 2644 3097 2394 3097 
Q 2119 3097 1870 3000 
Q 1622 2903 1453 2725 
Q 1184 2453 1037 2087 
Q 891 1722 891 1331 
Q 891 859 1127 628 
Q 1363 397 1844 397 
Q 2081 397 2348 469 
Q 2616 541 2906 684 
L 2797 116 
Q 2547 13 2283 -39 
Q 2019 -91 1741 -91 
Q 1044 -91 669 257 
Q 294 606 294 1253 
Q 294 1797 489 2255 
Q 684 2713 1069 3078 
Q 1331 3328 1684 3456 
Q 2038 3584 2456 3584 
Q 2700 3584 2940 3529 
Q 3181 3475 3431 3366 
z
" transform="scale(0.015625)"/>
      <path id="DejaVuSans-2b" d="M 2944 4013 
L 2944 2272 
L 4684 2272 
L 4684 1741 
L 2944 1741 
L 2944 0 
L 2419 0 
L 2419 1741 
L 678 1741 
L 678 2272 
L 2419 2272 
L 2419 4013 
L 2944 4013 
z
" transform="scale(0.015625)"/>
      <path id="DejaVuSans-Oblique-65" d="M 3078 2063 
Q 3088 2113 3092 2166 
Q 3097 2219 3097 2272 
Q 3097 2653 2873 2875 
Q 2650 3097 2266 3097 
Q 1838 3097 1509 2826 
Q 1181 2556 1013 2059 
L 3078 2063 
z
M 3578 1613 
L 903 1613 
Q 884 1494 878 1425 
Q 872 1356 872 1306 
Q 872 872 1139 634 
Q 1406 397 1894 397 
Q 2269 397 2603 481 
Q 2938 566 3225 728 
L 3116 159 
Q 2806 34 2476 -28 
Q 2147 -91 1806 -91 
Q 1078 -91 686 257 
Q 294 606 294 1247 
Q 294 1794 489 2264 
Q 684 2734 1063 3103 
Q 1306 3334 1642 3459 
Q 1978 3584 2356 3584 
Q 2950 3584 3301 3228 
Q 3653 2872 3653 2272 
Q 3653 2128 3634 1964 
Q 3616 1800 3578 1613 
z
" transform="scale(0.015625)"/>
      <path id="DejaVuSans-33" d="M 2597 2516 
Q 3050 2419 3304 2112 
Q 3559 1806 3559 1356 
Q 3559 666 3084 287 
Q 2609 -91 1734 -91 
Q 1441 -91 1130 -33 
Q 819 25 488 141 
L 488 750 
Q 750 597 1062 519 
Q 1375 441 1716 441 
Q 2309 441 2620 675 
Q 2931 909 2931 1356 
Q 2931 1769 2642 2001 
Q 2353 2234 1838 2234 
L 1294 2234 
L 1294 2753 
L 1863 2753 
Q 2328 2753 2575 2939 
Q 2822 3125 2822 3475 
Q 2822 3834 2567 4026 
Q 2313 4219 1838 4219 
Q 1578 4219 1281 4162 
Q 984 4106 628 3988 
L 628 4550 
Q 988 4650 1302 4700 
Q 1616 4750 1894 4750 
Q 2613 4750 3031 4423 
Q 3450 4097 3450 3541 
Q 3450 3153 3228 2886 
Q 3006 2619 2597 2516 
z
" transform="scale(0.015625)"/>
      <path id="DejaVuSans-Oblique-78" d="M 3841 3500 
L 2234 1784 
L 3219 0 
L 2559 0 
L 1819 1388 
L 531 0 
L -166 0 
L 1556 1844 
L 641 3500 
L 1300 3500 
L 1972 2234 
L 3144 3500 
L 3841 3500 
z
" transform="scale(0.015625)"/>
     </defs>
     <use xlink:href="#DejaVuSans-Oblique-63" transform="translate(0 0.481875)"/>
     <use xlink:href="#DejaVuSans-31" transform="translate(54.980469 -15.924375) scale(0.7)"/>
     <use xlink:href="#DejaVuSans-2b" transform="translate(121.733398 0.481875)"/>
     <use xlink:href="#DejaVuSans-Oblique-63" transform="translate(225.004883 0.481875)"/>
     <use xlink:href="#DejaVuSans-Oblique-65" transform="translate(284.635247 38.763125) scale(0.7)"/>
     <use xlink:href="#DejaVuSans-Oblique-63" transform="translate(330.956581 65.56) scale(0.49)"/>
     <use xlink:href="#DejaVuSans-33" transform="translate(357.89701 57.520938) scale(0.343)"/>
     <use xlink:href="#DejaVuSans-Oblique-78" transform="translate(381.059559 65.56) scale(0.49)"/>
     <use xlink:href="#DejaVuSans-31" transform="translate(410.057606 57.520938) scale(0.343)"/>
     <use xlink:href="#DejaVuSans-32" transform="translate(279.985352 -26.861875) scale(0.7)"/>
    </g>
   </g>
   <g id="legend_1">
    <g id="patch_5">
     <path d="M 71.59 101.3597 
L 319.005625 101.3597 
Q 321.005625 101.3597 321.005625 99.3597 
L 321.005625 41.6472 
Q 321.005625 39.6472 319.005625 39.6472 
L 71.59 39.6472 
Q 69.59 39.6472 69.59 41.6472 
L 69.59 99.3597 
Q 69.59 101.3597 71.59 101.3597 
z
" style="fill: #ffffff; opacity: 0.8; stroke: #cccccc; stroke-linejoin: miter"/>
    </g>
    <g id="line2d_14">
     <path d="M 73.59 47.745637 
L 83.59 47.745637 
L 93.59 47.745637 
" style="fill: none; stroke: #949494; stroke-width: 3; stroke-linecap: round"/>
    </g>
    <g id="text_12">
     <!-- $\sigma$=0.04 -->
     <g style="fill: #262626" transform="translate(101.59 51.245637) scale(0.1 -0.1)">
      <defs>
       <path id="DejaVuSans-Oblique-3c3" d="M 2219 3044 
Q 1744 3044 1422 2700 
Q 1081 2341 969 1747 
Q 844 1119 1044 756 
Q 1241 397 1706 397 
Q 2166 397 2503 759 
Q 2844 1122 2966 1747 
Q 3075 2319 2881 2700 
Q 2700 3044 2219 3044 
z
M 2309 3503 
L 4219 3500 
L 4106 2925 
L 3463 2925 
Q 3706 2438 3575 1747 
Q 3406 888 2884 400 
Q 2359 -91 1609 -91 
Q 856 -91 525 400 
Q 194 888 363 1747 
Q 528 2609 1050 3097 
Q 1484 3503 2309 3503 
z
" transform="scale(0.015625)"/>
       <path id="DejaVuSans-3d" d="M 678 2906 
L 4684 2906 
L 4684 2381 
L 678 2381 
L 678 2906 
z
M 678 1631 
L 4684 1631 
L 4684 1100 
L 678 1100 
L 678 1631 
z
" transform="scale(0.015625)"/>
       <path id="DejaVuSans-34" d="M 2419 4116 
L 825 1625 
L 2419 1625 
L 2419 4116 
z
M 2253 4666 
L 3047 4666 
L 3047 1625 
L 3713 1625 
L 3713 1100 
L 3047 1100 
L 3047 0 
L 2419 0 
L 2419 1100 
L 313 1100 
L 313 1709 
L 2253 4666 
z
" transform="scale(0.015625)"/>
      </defs>
      <use xlink:href="#DejaVuSans-Oblique-3c3" transform="translate(0 0.78125)"/>
      <use xlink:href="#DejaVuSans-3d" transform="translate(63.378906 0.78125)"/>
      <use xlink:href="#DejaVuSans-30" transform="translate(147.167969 0.78125)"/>
      <use xlink:href="#DejaVuSans-2e" transform="translate(210.791016 0.78125)"/>
      <use xlink:href="#DejaVuSans-30" transform="translate(242.578125 0.78125)"/>
      <use xlink:href="#DejaVuSans-34" transform="translate(306.201172 0.78125)"/>
     </g>
    </g>
    <g id="line2d_15">
     <g>
      <use xlink:href="#m043b89dd57" x="83.59" y="62.423763" style="fill: #0173b2; stroke: #0173b2"/>
     </g>
    </g>
    <g id="text_13">
     <!-- observed data -->
     <g style="fill: #262626" transform="translate(101.59 65.923763) scale(0.1 -0.1)">
      <defs>
       <path id="DejaVuSans-6f" d="M 1959 3097 
Q 1497 3097 1228 2736 
Q 959 2375 959 1747 
Q 959 1119 1226 758 
Q 1494 397 1959 397 
Q 2419 397 2687 759 
Q 2956 1122 2956 1747 
Q 2956 2369 2687 2733 
Q 2419 3097 1959 3097 
z
M 1959 3584 
Q 2709 3584 3137 3096 
Q 3566 2609 3566 1747 
Q 3566 888 3137 398 
Q 2709 -91 1959 -91 
Q 1206 -91 779 398 
Q 353 888 353 1747 
Q 353 2609 779 3096 
Q 1206 3584 1959 3584 
z
" transform="scale(0.015625)"/>
       <path id="DejaVuSans-62" d="M 3116 1747 
Q 3116 2381 2855 2742 
Q 2594 3103 2138 3103 
Q 1681 3103 1420 2742 
Q 1159 2381 1159 1747 
Q 1159 1113 1420 752 
Q 1681 391 2138 391 
Q 2594 391 2855 752 
Q 3116 1113 3116 1747 
z
M 1159 2969 
Q 1341 3281 1617 3432 
Q 1894 3584 2278 3584 
Q 2916 3584 3314 3078 
Q 3713 2572 3713 1747 
Q 3713 922 3314 415 
Q 2916 -91 2278 -91 
Q 1894 -91 1617 61 
Q 1341 213 1159 525 
L 1159 0 
L 581 0 
L 581 4863 
L 1159 4863 
L 1159 2969 
z
" transform="scale(0.015625)"/>
       <path id="DejaVuSans-73" d="M 2834 3397 
L 2834 2853 
Q 2591 2978 2328 3040 
Q 2066 3103 1784 3103 
Q 1356 3103 1142 2972 
Q 928 2841 928 2578 
Q 928 2378 1081 2264 
Q 1234 2150 1697 2047 
L 1894 2003 
Q 2506 1872 2764 1633 
Q 3022 1394 3022 966 
Q 3022 478 2636 193 
Q 2250 -91 1575 -91 
Q 1294 -91 989 -36 
Q 684 19 347 128 
L 347 722 
Q 666 556 975 473 
Q 1284 391 1588 391 
Q 1994 391 2212 530 
Q 2431 669 2431 922 
Q 2431 1156 2273 1281 
Q 2116 1406 1581 1522 
L 1381 1569 
Q 847 1681 609 1914 
Q 372 2147 372 2553 
Q 372 3047 722 3315 
Q 1072 3584 1716 3584 
Q 2034 3584 2315 3537 
Q 2597 3491 2834 3397 
z
" transform="scale(0.015625)"/>
       <path id="DejaVuSans-65" d="M 3597 1894 
L 3597 1613 
L 953 1613 
Q 991 1019 1311 708 
Q 1631 397 2203 397 
Q 2534 397 2845 478 
Q 3156 559 3463 722 
L 3463 178 
Q 3153 47 2828 -22 
Q 2503 -91 2169 -91 
Q 1331 -91 842 396 
Q 353 884 353 1716 
Q 353 2575 817 3079 
Q 1281 3584 2069 3584 
Q 2775 3584 3186 3129 
Q 3597 2675 3597 1894 
z
M 3022 2063 
Q 3016 2534 2758 2815 
Q 2500 3097 2075 3097 
Q 1594 3097 1305 2825 
Q 1016 2553 972 2059 
L 3022 2063 
z
" transform="scale(0.015625)"/>
       <path id="DejaVuSans-72" d="M 2631 2963 
Q 2534 3019 2420 3045 
Q 2306 3072 2169 3072 
Q 1681 3072 1420 2755 
Q 1159 2438 1159 1844 
L 1159 0 
L 581 0 
L 581 3500 
L 1159 3500 
L 1159 2956 
Q 1341 3275 1631 3429 
Q 1922 3584 2338 3584 
Q 2397 3584 2469 3576 
Q 2541 3569 2628 3553 
L 2631 2963 
z
" transform="scale(0.015625)"/>
       <path id="DejaVuSans-76" d="M 191 3500 
L 800 3500 
L 1894 563 
L 2988 3500 
L 3597 3500 
L 2284 0 
L 1503 0 
L 191 3500 
z
" transform="scale(0.015625)"/>
       <path id="DejaVuSans-64" d="M 2906 2969 
L 2906 4863 
L 3481 4863 
L 3481 0 
L 2906 0 
L 2906 525 
Q 2725 213 2448 61 
Q 2172 -91 1784 -91 
Q 1150 -91 751 415 
Q 353 922 353 1747 
Q 353 2572 751 3078 
Q 1150 3584 1784 3584 
Q 2172 3584 2448 3432 
Q 2725 3281 2906 2969 
z
M 947 1747 
Q 947 1113 1208 752 
Q 1469 391 1925 391 
Q 2381 391 2643 752 
Q 2906 1113 2906 1747 
Q 2906 2381 2643 2742 
Q 2381 3103 1925 3103 
Q 1469 3103 1208 2742 
Q 947 2381 947 1747 
z
" transform="scale(0.015625)"/>
       <path id="DejaVuSans-20" transform="scale(0.015625)"/>
       <path id="DejaVuSans-61" d="M 2194 1759 
Q 1497 1759 1228 1600 
Q 959 1441 959 1056 
Q 959 750 1161 570 
Q 1363 391 1709 391 
Q 2188 391 2477 730 
Q 2766 1069 2766 1631 
L 2766 1759 
L 2194 1759 
z
M 3341 1997 
L 3341 0 
L 2766 0 
L 2766 531 
Q 2569 213 2275 61 
Q 1981 -91 1556 -91 
Q 1019 -91 701 211 
Q 384 513 384 1019 
Q 384 1609 779 1909 
Q 1175 2209 1959 2209 
L 2766 2209 
L 2766 2266 
Q 2766 2663 2505 2880 
Q 2244 3097 1772 3097 
Q 1472 3097 1187 3025 
Q 903 2953 641 2809 
L 641 3341 
Q 956 3463 1253 3523 
Q 1550 3584 1831 3584 
Q 2591 3584 2966 3190 
Q 3341 2797 3341 1997 
z
" transform="scale(0.015625)"/>
       <path id="DejaVuSans-74" d="M 1172 4494 
L 1172 3500 
L 2356 3500 
L 2356 3053 
L 1172 3053 
L 1172 1153 
Q 1172 725 1289 603 
Q 1406 481 1766 481 
L 2356 481 
L 2356 0 
L 1766 0 
Q 1100 0 847 248 
Q 594 497 594 1153 
L 594 3053 
L 172 3053 
L 172 3500 
L 594 3500 
L 594 4494 
L 1172 4494 
z
" transform="scale(0.015625)"/>
      </defs>
      <use xlink:href="#DejaVuSans-6f"/>
      <use xlink:href="#DejaVuSans-62" transform="translate(61.181641 0)"/>
      <use xlink:href="#DejaVuSans-73" transform="translate(124.658203 0)"/>
      <use xlink:href="#DejaVuSans-65" transform="translate(176.757812 0)"/>
      <use xlink:href="#DejaVuSans-72" transform="translate(238.28125 0)"/>
      <use xlink:href="#DejaVuSans-76" transform="translate(279.394531 0)"/>
      <use xlink:href="#DejaVuSans-65" transform="translate(338.574219 0)"/>
      <use xlink:href="#DejaVuSans-64" transform="translate(400.097656 0)"/>
      <use xlink:href="#DejaVuSans-20" transform="translate(463.574219 0)"/>
      <use xlink:href="#DejaVuSans-64" transform="translate(495.361328 0)"/>
      <use xlink:href="#DejaVuSans-61" transform="translate(558.837891 0)"/>
      <use xlink:href="#DejaVuSans-74" transform="translate(620.117188 0)"/>
      <use xlink:href="#DejaVuSans-61" transform="translate(659.326172 0)"/>
     </g>
    </g>
    <g id="line2d_16">
     <path d="M 73.59 77.101887 
L 83.59 77.101887 
L 93.59 77.101887 
" style="fill: none; stroke: #cc78bc; stroke-width: 3; stroke-linecap: round"/>
    </g>
    <g id="text_14">
     <!-- ann rmse: train= 2.27E-02, test= 7.90E-02 -->
     <g style="fill: #262626" transform="translate(101.59 80.601887) scale(0.1 -0.1)">
      <defs>
       <path id="DejaVuSans-6e" d="M 3513 2113 
L 3513 0 
L 2938 0 
L 2938 2094 
Q 2938 2591 2744 2837 
Q 2550 3084 2163 3084 
Q 1697 3084 1428 2787 
Q 1159 2491 1159 1978 
L 1159 0 
L 581 0 
L 581 3500 
L 1159 3500 
L 1159 2956 
Q 1366 3272 1645 3428 
Q 1925 3584 2291 3584 
Q 2894 3584 3203 3211 
Q 3513 2838 3513 2113 
z
" transform="scale(0.015625)"/>
       <path id="DejaVuSans-6d" d="M 3328 2828 
Q 3544 3216 3844 3400 
Q 4144 3584 4550 3584 
Q 5097 3584 5394 3201 
Q 5691 2819 5691 2113 
L 5691 0 
L 5113 0 
L 5113 2094 
Q 5113 2597 4934 2840 
Q 4756 3084 4391 3084 
Q 3944 3084 3684 2787 
Q 3425 2491 3425 1978 
L 3425 0 
L 2847 0 
L 2847 2094 
Q 2847 2600 2669 2842 
Q 2491 3084 2119 3084 
Q 1678 3084 1418 2786 
Q 1159 2488 1159 1978 
L 1159 0 
L 581 0 
L 581 3500 
L 1159 3500 
L 1159 2956 
Q 1356 3278 1631 3431 
Q 1906 3584 2284 3584 
Q 2666 3584 2933 3390 
Q 3200 3197 3328 2828 
z
" transform="scale(0.015625)"/>
       <path id="DejaVuSans-3a" d="M 750 794 
L 1409 794 
L 1409 0 
L 750 0 
L 750 794 
z
M 750 3309 
L 1409 3309 
L 1409 2516 
L 750 2516 
L 750 3309 
z
" transform="scale(0.015625)"/>
       <path id="DejaVuSans-69" d="M 603 3500 
L 1178 3500 
L 1178 0 
L 603 0 
L 603 3500 
z
M 603 4863 
L 1178 4863 
L 1178 4134 
L 603 4134 
L 603 4863 
z
" transform="scale(0.015625)"/>
       <path id="DejaVuSans-37" d="M 525 4666 
L 3525 4666 
L 3525 4397 
L 1831 0 
L 1172 0 
L 2766 4134 
L 525 4134 
L 525 4666 
z
" transform="scale(0.015625)"/>
       <path id="DejaVuSans-45" d="M 628 4666 
L 3578 4666 
L 3578 4134 
L 1259 4134 
L 1259 2753 
L 3481 2753 
L 3481 2222 
L 1259 2222 
L 1259 531 
L 3634 531 
L 3634 0 
L 628 0 
L 628 4666 
z
" transform="scale(0.015625)"/>
       <path id="DejaVuSans-2d" d="M 313 2009 
L 1997 2009 
L 1997 1497 
L 313 1497 
L 313 2009 
z
" transform="scale(0.015625)"/>
       <path id="DejaVuSans-2c" d="M 750 794 
L 1409 794 
L 1409 256 
L 897 -744 
L 494 -744 
L 750 256 
L 750 794 
z
" transform="scale(0.015625)"/>
       <path id="DejaVuSans-39" d="M 703 97 
L 703 672 
Q 941 559 1184 500 
Q 1428 441 1663 441 
Q 2288 441 2617 861 
Q 2947 1281 2994 2138 
Q 2813 1869 2534 1725 
Q 2256 1581 1919 1581 
Q 1219 1581 811 2004 
Q 403 2428 403 3163 
Q 403 3881 828 4315 
Q 1253 4750 1959 4750 
Q 2769 4750 3195 4129 
Q 3622 3509 3622 2328 
Q 3622 1225 3098 567 
Q 2575 -91 1691 -91 
Q 1453 -91 1209 -44 
Q 966 3 703 97 
z
M 1959 2075 
Q 2384 2075 2632 2365 
Q 2881 2656 2881 3163 
Q 2881 3666 2632 3958 
Q 2384 4250 1959 4250 
Q 1534 4250 1286 3958 
Q 1038 3666 1038 3163 
Q 1038 2656 1286 2365 
Q 1534 2075 1959 2075 
z
" transform="scale(0.015625)"/>
      </defs>
      <use xlink:href="#DejaVuSans-61"/>
      <use xlink:href="#DejaVuSans-6e" transform="translate(61.279297 0)"/>
      <use xlink:href="#DejaVuSans-6e" transform="translate(124.658203 0)"/>
      <use xlink:href="#DejaVuSans-20" transform="translate(188.037109 0)"/>
      <use xlink:href="#DejaVuSans-72" transform="translate(219.824219 0)"/>
      <use xlink:href="#DejaVuSans-6d" transform="translate(259.1875 0)"/>
      <use xlink:href="#DejaVuSans-73" transform="translate(356.599609 0)"/>
      <use xlink:href="#DejaVuSans-65" transform="translate(408.699219 0)"/>
      <use xlink:href="#DejaVuSans-3a" transform="translate(470.222656 0)"/>
      <use xlink:href="#DejaVuSans-20" transform="translate(503.914062 0)"/>
      <use xlink:href="#DejaVuSans-74" transform="translate(535.701172 0)"/>
      <use xlink:href="#DejaVuSans-72" transform="translate(574.910156 0)"/>
      <use xlink:href="#DejaVuSans-61" transform="translate(616.023438 0)"/>
      <use xlink:href="#DejaVuSans-69" transform="translate(677.302734 0)"/>
      <use xlink:href="#DejaVuSans-6e" transform="translate(705.085938 0)"/>
      <use xlink:href="#DejaVuSans-3d" transform="translate(768.464844 0)"/>
      <use xlink:href="#DejaVuSans-20" transform="translate(852.253906 0)"/>
      <use xlink:href="#DejaVuSans-32" transform="translate(884.041016 0)"/>
      <use xlink:href="#DejaVuSans-2e" transform="translate(947.664062 0)"/>
      <use xlink:href="#DejaVuSans-32" transform="translate(979.451172 0)"/>
      <use xlink:href="#DejaVuSans-37" transform="translate(1043.074219 0)"/>
      <use xlink:href="#DejaVuSans-45" transform="translate(1106.697266 0)"/>
      <use xlink:href="#DejaVuSans-2d" transform="translate(1169.880859 0)"/>
      <use xlink:href="#DejaVuSans-30" transform="translate(1205.964844 0)"/>
      <use xlink:href="#DejaVuSans-32" transform="translate(1269.587891 0)"/>
      <use xlink:href="#DejaVuSans-2c" transform="translate(1333.210938 0)"/>
      <use xlink:href="#DejaVuSans-20" transform="translate(1364.998047 0)"/>
      <use xlink:href="#DejaVuSans-74" transform="translate(1396.785156 0)"/>
      <use xlink:href="#DejaVuSans-65" transform="translate(1435.994141 0)"/>
      <use xlink:href="#DejaVuSans-73" transform="translate(1497.517578 0)"/>
      <use xlink:href="#DejaVuSans-74" transform="translate(1549.617188 0)"/>
      <use xlink:href="#DejaVuSans-3d" transform="translate(1588.826172 0)"/>
      <use xlink:href="#DejaVuSans-20" transform="translate(1672.615234 0)"/>
      <use xlink:href="#DejaVuSans-37" transform="translate(1704.402344 0)"/>
      <use xlink:href="#DejaVuSans-2e" transform="translate(1768.025391 0)"/>
      <use xlink:href="#DejaVuSans-39" transform="translate(1799.8125 0)"/>
      <use xlink:href="#DejaVuSans-30" transform="translate(1863.435547 0)"/>
      <use xlink:href="#DejaVuSans-45" transform="translate(1927.058594 0)"/>
      <use xlink:href="#DejaVuSans-2d" transform="translate(1990.242188 0)"/>
      <use xlink:href="#DejaVuSans-30" transform="translate(2026.326172 0)"/>
      <use xlink:href="#DejaVuSans-32" transform="translate(2089.949219 0)"/>
     </g>
    </g>
    <g id="line2d_17">
     <path d="M 73.59 91.780012 
L 83.59 91.780012 
L 93.59 91.780012 
" style="fill: none; stroke-dasharray: 11.1,4.8; stroke-dashoffset: 0; stroke: #029e73; stroke-width: 3"/>
    </g>
    <g id="text_15">
     <!-- mdl rmse: train= 1.97E-02, test= 2.11E-02 -->
     <g style="fill: #262626" transform="translate(101.59 95.280012) scale(0.1 -0.1)">
      <defs>
       <path id="DejaVuSans-6c" d="M 603 4863 
L 1178 4863 
L 1178 0 
L 603 0 
L 603 4863 
z
" transform="scale(0.015625)"/>
      </defs>
      <use xlink:href="#DejaVuSans-6d"/>
      <use xlink:href="#DejaVuSans-64" transform="translate(97.412109 0)"/>
      <use xlink:href="#DejaVuSans-6c" transform="translate(160.888672 0)"/>
      <use xlink:href="#DejaVuSans-20" transform="translate(188.671875 0)"/>
      <use xlink:href="#DejaVuSans-72" transform="translate(220.458984 0)"/>
      <use xlink:href="#DejaVuSans-6d" transform="translate(259.822266 0)"/>
      <use xlink:href="#DejaVuSans-73" transform="translate(357.234375 0)"/>
      <use xlink:href="#DejaVuSans-65" transform="translate(409.333984 0)"/>
      <use xlink:href="#DejaVuSans-3a" transform="translate(470.857422 0)"/>
      <use xlink:href="#DejaVuSans-20" transform="translate(504.548828 0)"/>
      <use xlink:href="#DejaVuSans-74" transform="translate(536.335938 0)"/>
      <use xlink:href="#DejaVuSans-72" transform="translate(575.544922 0)"/>
      <use xlink:href="#DejaVuSans-61" transform="translate(616.658203 0)"/>
      <use xlink:href="#DejaVuSans-69" transform="translate(677.9375 0)"/>
      <use xlink:href="#DejaVuSans-6e" transform="translate(705.720703 0)"/>
      <use xlink:href="#DejaVuSans-3d" transform="translate(769.099609 0)"/>
      <use xlink:href="#DejaVuSans-20" transform="translate(852.888672 0)"/>
      <use xlink:href="#DejaVuSans-31" transform="translate(884.675781 0)"/>
      <use xlink:href="#DejaVuSans-2e" transform="translate(948.298828 0)"/>
      <use xlink:href="#DejaVuSans-39" transform="translate(980.085938 0)"/>
      <use xlink:href="#DejaVuSans-37" transform="translate(1043.708984 0)"/>
      <use xlink:href="#DejaVuSans-45" transform="translate(1107.332031 0)"/>
      <use xlink:href="#DejaVuSans-2d" transform="translate(1170.515625 0)"/>
      <use xlink:href="#DejaVuSans-30" transform="translate(1206.599609 0)"/>
      <use xlink:href="#DejaVuSans-32" transform="translate(1270.222656 0)"/>
      <use xlink:href="#DejaVuSans-2c" transform="translate(1333.845703 0)"/>
      <use xlink:href="#DejaVuSans-20" transform="translate(1365.632812 0)"/>
      <use xlink:href="#DejaVuSans-74" transform="translate(1397.419922 0)"/>
      <use xlink:href="#DejaVuSans-65" transform="translate(1436.628906 0)"/>
      <use xlink:href="#DejaVuSans-73" transform="translate(1498.152344 0)"/>
      <use xlink:href="#DejaVuSans-74" transform="translate(1550.251953 0)"/>
      <use xlink:href="#DejaVuSans-3d" transform="translate(1589.460938 0)"/>
      <use xlink:href="#DejaVuSans-20" transform="translate(1673.25 0)"/>
      <use xlink:href="#DejaVuSans-32" transform="translate(1705.037109 0)"/>
      <use xlink:href="#DejaVuSans-2e" transform="translate(1768.660156 0)"/>
      <use xlink:href="#DejaVuSans-31" transform="translate(1800.447266 0)"/>
      <use xlink:href="#DejaVuSans-31" transform="translate(1864.070312 0)"/>
      <use xlink:href="#DejaVuSans-45" transform="translate(1927.693359 0)"/>
      <use xlink:href="#DejaVuSans-2d" transform="translate(1990.876953 0)"/>
      <use xlink:href="#DejaVuSans-30" transform="translate(2026.960938 0)"/>
      <use xlink:href="#DejaVuSans-32" transform="translate(2090.583984 0)"/>
     </g>
    </g>
   </g>
  </g>
 </g>
 <defs>
  <clipPath id="p4e8d8a82b0">
   <rect x="64.59" y="34.6472" width="375.993307" height="362.916107"/>
  </clipPath>
 </defs>
</svg>
