<?xml version="1.0" encoding="utf-8" standalone="no"?>
<!DOCTYPE svg PUBLIC "-//W3C//DTD SVG 1.1//EN"
  "http://www.w3.org/Graphics/SVG/1.1/DTD/svg11.dtd">
<svg xmlns:xlink="http://www.w3.org/1999/xlink" width="1080pt" height="360pt" viewBox="0 0 1080 360" xmlns="http://www.w3.org/2000/svg" version="1.1">
 <metadata>
  <rdf:RDF xmlns:dc="http://purl.org/dc/elements/1.1/" xmlns:cc="http://creativecommons.org/ns#" xmlns:rdf="http://www.w3.org/1999/02/22-rdf-syntax-ns#">
   <cc:Work>
    <dc:type rdf:resource="http://purl.org/dc/dcmitype/StillImage"/>
    <dc:date>2025-06-13T16:53:48.298749</dc:date>
    <dc:format>image/svg+xml</dc:format>
    <dc:creator>
     <cc:Agent>
      <dc:title>Matplotlib v3.10.3, https://matplotlib.org/</dc:title>
     </cc:Agent>
    </dc:creator>
   </cc:Work>
  </rdf:RDF>
 </metadata>
 <defs>
  <style type="text/css">*{stroke-linejoin: round; stroke-linecap: butt}</style>
 </defs>
 <g id="figure_1">
  <g id="patch_1">
   <path d="M 0 360 
L 1080 360 
L 1080 0 
L 0 0 
z
" style="fill: #ffffff"/>
  </g>
  <g id="axes_1">
   <g id="patch_2">
    <path d="M 135 320.4 
L 972 320.4 
L 972 43.2 
L 135 43.2 
z
" style="fill: #ffffff"/>
   </g>
   <g id="matplotlib.axis_1">
    <g id="xtick_1">
     <g id="line2d_1">
      <defs>
       <path id="m3435111c69" d="M 0 0 
L 0 3.5 
" style="stroke: #000000; stroke-width: 0.8"/>
      </defs>
      <g>
       <use xlink:href="#m3435111c69" x="173.030236" y="320.4" style="stroke: #000000; stroke-width: 0.8"/>
      </g>
     </g>
     <g id="text_1">
      <!-- 0 -->
      <g transform="translate(166.667736 342.596875) scale(0.2 -0.2)">
       <defs>
        <path id="DejaVuSans-30" d="M 2034 4250 
Q 1547 4250 1301 3770 
Q 1056 3291 1056 2328 
Q 1056 1369 1301 889 
Q 1547 409 2034 409 
Q 2525 409 2770 889 
Q 3016 1369 3016 2328 
Q 3016 3291 2770 3770 
Q 2525 4250 2034 4250 
z
M 2034 4750 
Q 2819 4750 3233 4129 
Q 3647 3509 3647 2328 
Q 3647 1150 3233 529 
Q 2819 -91 2034 -91 
Q 1250 -91 836 529 
Q 422 1150 422 2328 
Q 422 3509 836 4129 
Q 1250 4750 2034 4750 
z
" transform="scale(0.015625)"/>
       </defs>
       <use xlink:href="#DejaVuSans-30"/>
      </g>
     </g>
    </g>
    <g id="xtick_2">
     <g id="line2d_2">
      <g>
       <use xlink:href="#m3435111c69" x="325.218141" y="320.4" style="stroke: #000000; stroke-width: 0.8"/>
      </g>
     </g>
     <g id="text_2">
      <!-- 10000 -->
      <g transform="translate(293.405641 342.596875) scale(0.2 -0.2)">
       <defs>
        <path id="DejaVuSans-31" d="M 794 531 
L 1825 531 
L 1825 4091 
L 703 3866 
L 703 4441 
L 1819 4666 
L 2450 4666 
L 2450 531 
L 3481 531 
L 3481 0 
L 794 0 
L 794 531 
z
" transform="scale(0.015625)"/>
       </defs>
       <use xlink:href="#DejaVuSans-31"/>
       <use xlink:href="#DejaVuSans-30" transform="translate(63.623047 0)"/>
       <use xlink:href="#DejaVuSans-30" transform="translate(127.246094 0)"/>
       <use xlink:href="#DejaVuSans-30" transform="translate(190.869141 0)"/>
       <use xlink:href="#DejaVuSans-30" transform="translate(254.492188 0)"/>
      </g>
     </g>
    </g>
    <g id="xtick_3">
     <g id="line2d_3">
      <g>
       <use xlink:href="#m3435111c69" x="477.406047" y="320.4" style="stroke: #000000; stroke-width: 0.8"/>
      </g>
     </g>
     <g id="text_3">
      <!-- 20000 -->
      <g transform="translate(445.593547 342.596875) scale(0.2 -0.2)">
       <defs>
        <path id="DejaVuSans-32" d="M 1228 531 
L 3431 531 
L 3431 0 
L 469 0 
L 469 531 
Q 828 903 1448 1529 
Q 2069 2156 2228 2338 
Q 2531 2678 2651 2914 
Q 2772 3150 2772 3378 
Q 2772 3750 2511 3984 
Q 2250 4219 1831 4219 
Q 1534 4219 1204 4116 
Q 875 4013 500 3803 
L 500 4441 
Q 881 4594 1212 4672 
Q 1544 4750 1819 4750 
Q 2544 4750 2975 4387 
Q 3406 4025 3406 3419 
Q 3406 3131 3298 2873 
Q 3191 2616 2906 2266 
Q 2828 2175 2409 1742 
Q 1991 1309 1228 531 
z
" transform="scale(0.015625)"/>
       </defs>
       <use xlink:href="#DejaVuSans-32"/>
       <use xlink:href="#DejaVuSans-30" transform="translate(63.623047 0)"/>
       <use xlink:href="#DejaVuSans-30" transform="translate(127.246094 0)"/>
       <use xlink:href="#DejaVuSans-30" transform="translate(190.869141 0)"/>
       <use xlink:href="#DejaVuSans-30" transform="translate(254.492188 0)"/>
      </g>
     </g>
    </g>
    <g id="xtick_4">
     <g id="line2d_4">
      <g>
       <use xlink:href="#m3435111c69" x="629.593953" y="320.4" style="stroke: #000000; stroke-width: 0.8"/>
      </g>
     </g>
     <g id="text_4">
      <!-- 30000 -->
      <g transform="translate(597.781453 342.596875) scale(0.2 -0.2)">
       <defs>
        <path id="DejaVuSans-33" d="M 2597 2516 
Q 3050 2419 3304 2112 
Q 3559 1806 3559 1356 
Q 3559 666 3084 287 
Q 2609 -91 1734 -91 
Q 1441 -91 1130 -33 
Q 819 25 488 141 
L 488 750 
Q 750 597 1062 519 
Q 1375 441 1716 441 
Q 2309 441 2620 675 
Q 2931 909 2931 1356 
Q 2931 1769 2642 2001 
Q 2353 2234 1838 2234 
L 1294 2234 
L 1294 2753 
L 1863 2753 
Q 2328 2753 2575 2939 
Q 2822 3125 2822 3475 
Q 2822 3834 2567 4026 
Q 2313 4219 1838 4219 
Q 1578 4219 1281 4162 
Q 984 4106 628 3988 
L 628 4550 
Q 988 4650 1302 4700 
Q 1616 4750 1894 4750 
Q 2613 4750 3031 4423 
Q 3450 4097 3450 3541 
Q 3450 3153 3228 2886 
Q 3006 2619 2597 2516 
z
" transform="scale(0.015625)"/>
       </defs>
       <use xlink:href="#DejaVuSans-33"/>
       <use xlink:href="#DejaVuSans-30" transform="translate(63.623047 0)"/>
       <use xlink:href="#DejaVuSans-30" transform="translate(127.246094 0)"/>
       <use xlink:href="#DejaVuSans-30" transform="translate(190.869141 0)"/>
       <use xlink:href="#DejaVuSans-30" transform="translate(254.492188 0)"/>
      </g>
     </g>
    </g>
    <g id="xtick_5">
     <g id="line2d_5">
      <g>
       <use xlink:href="#m3435111c69" x="781.781859" y="320.4" style="stroke: #000000; stroke-width: 0.8"/>
      </g>
     </g>
     <g id="text_5">
      <!-- 40000 -->
      <g transform="translate(749.969359 342.596875) scale(0.2 -0.2)">
       <defs>
        <path id="DejaVuSans-34" d="M 2419 4116 
L 825 1625 
L 2419 1625 
L 2419 4116 
z
M 2253 4666 
L 3047 4666 
L 3047 1625 
L 3713 1625 
L 3713 1100 
L 3047 1100 
L 3047 0 
L 2419 0 
L 2419 1100 
L 313 1100 
L 313 1709 
L 2253 4666 
z
" transform="scale(0.015625)"/>
       </defs>
       <use xlink:href="#DejaVuSans-34"/>
       <use xlink:href="#DejaVuSans-30" transform="translate(63.623047 0)"/>
       <use xlink:href="#DejaVuSans-30" transform="translate(127.246094 0)"/>
       <use xlink:href="#DejaVuSans-30" transform="translate(190.869141 0)"/>
       <use xlink:href="#DejaVuSans-30" transform="translate(254.492188 0)"/>
      </g>
     </g>
    </g>
    <g id="xtick_6">
     <g id="line2d_6">
      <g>
       <use xlink:href="#m3435111c69" x="933.969764" y="320.4" style="stroke: #000000; stroke-width: 0.8"/>
      </g>
     </g>
     <g id="text_6">
      <!-- 50000 -->
      <g transform="translate(902.157264 342.596875) scale(0.2 -0.2)">
       <defs>
        <path id="DejaVuSans-35" d="M 691 4666 
L 3169 4666 
L 3169 4134 
L 1269 4134 
L 1269 2991 
Q 1406 3038 1543 3061 
Q 1681 3084 1819 3084 
Q 2600 3084 3056 2656 
Q 3513 2228 3513 1497 
Q 3513 744 3044 326 
Q 2575 -91 1722 -91 
Q 1428 -91 1123 -41 
Q 819 9 494 109 
L 494 744 
Q 775 591 1075 516 
Q 1375 441 1709 441 
Q 2250 441 2565 725 
Q 2881 1009 2881 1497 
Q 2881 1984 2565 2268 
Q 2250 2553 1709 2553 
Q 1456 2553 1204 2497 
Q 953 2441 691 2322 
L 691 4666 
z
" transform="scale(0.015625)"/>
       </defs>
       <use xlink:href="#DejaVuSans-35"/>
       <use xlink:href="#DejaVuSans-30" transform="translate(63.623047 0)"/>
       <use xlink:href="#DejaVuSans-30" transform="translate(127.246094 0)"/>
       <use xlink:href="#DejaVuSans-30" transform="translate(190.869141 0)"/>
       <use xlink:href="#DejaVuSans-30" transform="translate(254.492188 0)"/>
      </g>
     </g>
    </g>
    <g id="text_7">
     <!-- steps -->
     <g transform="translate(521.29125 368.9925) scale(0.24 -0.24)">
      <defs>
       <path id="DejaVuSans-73" d="M 2834 3397 
L 2834 2853 
Q 2591 2978 2328 3040 
Q 2066 3103 1784 3103 
Q 1356 3103 1142 2972 
Q 928 2841 928 2578 
Q 928 2378 1081 2264 
Q 1234 2150 1697 2047 
L 1894 2003 
Q 2506 1872 2764 1633 
Q 3022 1394 3022 966 
Q 3022 478 2636 193 
Q 2250 -91 1575 -91 
Q 1294 -91 989 -36 
Q 684 19 347 128 
L 347 722 
Q 666 556 975 473 
Q 1284 391 1588 391 
Q 1994 391 2212 530 
Q 2431 669 2431 922 
Q 2431 1156 2273 1281 
Q 2116 1406 1581 1522 
L 1381 1569 
Q 847 1681 609 1914 
Q 372 2147 372 2553 
Q 372 3047 722 3315 
Q 1072 3584 1716 3584 
Q 2034 3584 2315 3537 
Q 2597 3491 2834 3397 
z
" transform="scale(0.015625)"/>
       <path id="DejaVuSans-74" d="M 1172 4494 
L 1172 3500 
L 2356 3500 
L 2356 3053 
L 1172 3053 
L 1172 1153 
Q 1172 725 1289 603 
Q 1406 481 1766 481 
L 2356 481 
L 2356 0 
L 1766 0 
Q 1100 0 847 248 
Q 594 497 594 1153 
L 594 3053 
L 172 3053 
L 172 3500 
L 594 3500 
L 594 4494 
L 1172 4494 
z
" transform="scale(0.015625)"/>
       <path id="DejaVuSans-65" d="M 3597 1894 
L 3597 1613 
L 953 1613 
Q 991 1019 1311 708 
Q 1631 397 2203 397 
Q 2534 397 2845 478 
Q 3156 559 3463 722 
L 3463 178 
Q 3153 47 2828 -22 
Q 2503 -91 2169 -91 
Q 1331 -91 842 396 
Q 353 884 353 1716 
Q 353 2575 817 3079 
Q 1281 3584 2069 3584 
Q 2775 3584 3186 3129 
Q 3597 2675 3597 1894 
z
M 3022 2063 
Q 3016 2534 2758 2815 
Q 2500 3097 2075 3097 
Q 1594 3097 1305 2825 
Q 1016 2553 972 2059 
L 3022 2063 
z
" transform="scale(0.015625)"/>
       <path id="DejaVuSans-70" d="M 1159 525 
L 1159 -1331 
L 581 -1331 
L 581 3500 
L 1159 3500 
L 1159 2969 
Q 1341 3281 1617 3432 
Q 1894 3584 2278 3584 
Q 2916 3584 3314 3078 
Q 3713 2572 3713 1747 
Q 3713 922 3314 415 
Q 2916 -91 2278 -91 
Q 1894 -91 1617 61 
Q 1341 213 1159 525 
z
M 3116 1747 
Q 3116 2381 2855 2742 
Q 2594 3103 2138 3103 
Q 1681 3103 1420 2742 
Q 1159 2381 1159 1747 
Q 1159 1113 1420 752 
Q 1681 391 2138 391 
Q 2594 391 2855 752 
Q 3116 1113 3116 1747 
z
" transform="scale(0.015625)"/>
      </defs>
      <use xlink:href="#DejaVuSans-73"/>
      <use xlink:href="#DejaVuSans-74" transform="translate(52.099609 0)"/>
      <use xlink:href="#DejaVuSans-65" transform="translate(91.308594 0)"/>
      <use xlink:href="#DejaVuSans-70" transform="translate(152.832031 0)"/>
      <use xlink:href="#DejaVuSans-73" transform="translate(216.308594 0)"/>
     </g>
    </g>
   </g>
   <g id="matplotlib.axis_2">
    <g id="ytick_1">
     <g id="line2d_7">
      <defs>
       <path id="mb92a1622c2" d="M 0 0 
L -3.5 0 
" style="stroke: #000000; stroke-width: 0.8"/>
      </defs>
      <g>
       <use xlink:href="#mb92a1622c2" x="135" y="301.450961" style="stroke: #000000; stroke-width: 0.8"/>
      </g>
     </g>
     <g id="text_8">
      <!-- −350 -->
      <g transform="translate(73.065625 309.049398) scale(0.2 -0.2)">
       <defs>
        <path id="DejaVuSans-2212" d="M 678 2272 
L 4684 2272 
L 4684 1741 
L 678 1741 
L 678 2272 
z
" transform="scale(0.015625)"/>
       </defs>
       <use xlink:href="#DejaVuSans-2212"/>
       <use xlink:href="#DejaVuSans-33" transform="translate(83.789062 0)"/>
       <use xlink:href="#DejaVuSans-35" transform="translate(147.412109 0)"/>
       <use xlink:href="#DejaVuSans-30" transform="translate(211.035156 0)"/>
      </g>
     </g>
    </g>
    <g id="ytick_2">
     <g id="line2d_8">
      <g>
       <use xlink:href="#mb92a1622c2" x="135" y="266.733024" style="stroke: #000000; stroke-width: 0.8"/>
      </g>
     </g>
     <g id="text_9">
      <!-- −300 -->
      <g transform="translate(73.065625 274.331462) scale(0.2 -0.2)">
       <use xlink:href="#DejaVuSans-2212"/>
       <use xlink:href="#DejaVuSans-33" transform="translate(83.789062 0)"/>
       <use xlink:href="#DejaVuSans-30" transform="translate(147.412109 0)"/>
       <use xlink:href="#DejaVuSans-30" transform="translate(211.035156 0)"/>
      </g>
     </g>
    </g>
    <g id="ytick_3">
     <g id="line2d_9">
      <g>
       <use xlink:href="#mb92a1622c2" x="135" y="232.015088" style="stroke: #000000; stroke-width: 0.8"/>
      </g>
     </g>
     <g id="text_10">
      <!-- −250 -->
      <g transform="translate(73.065625 239.613525) scale(0.2 -0.2)">
       <use xlink:href="#DejaVuSans-2212"/>
       <use xlink:href="#DejaVuSans-32" transform="translate(83.789062 0)"/>
       <use xlink:href="#DejaVuSans-35" transform="translate(147.412109 0)"/>
       <use xlink:href="#DejaVuSans-30" transform="translate(211.035156 0)"/>
      </g>
     </g>
    </g>
    <g id="ytick_4">
     <g id="line2d_10">
      <g>
       <use xlink:href="#mb92a1622c2" x="135" y="197.297151" style="stroke: #000000; stroke-width: 0.8"/>
      </g>
     </g>
     <g id="text_11">
      <!-- −200 -->
      <g transform="translate(73.065625 204.895589) scale(0.2 -0.2)">
       <use xlink:href="#DejaVuSans-2212"/>
       <use xlink:href="#DejaVuSans-32" transform="translate(83.789062 0)"/>
       <use xlink:href="#DejaVuSans-30" transform="translate(147.412109 0)"/>
       <use xlink:href="#DejaVuSans-30" transform="translate(211.035156 0)"/>
      </g>
     </g>
    </g>
    <g id="ytick_5">
     <g id="line2d_11">
      <g>
       <use xlink:href="#mb92a1622c2" x="135" y="162.579215" style="stroke: #000000; stroke-width: 0.8"/>
      </g>
     </g>
     <g id="text_12">
      <!-- −150 -->
      <g transform="translate(73.065625 170.177652) scale(0.2 -0.2)">
       <use xlink:href="#DejaVuSans-2212"/>
       <use xlink:href="#DejaVuSans-31" transform="translate(83.789062 0)"/>
       <use xlink:href="#DejaVuSans-35" transform="translate(147.412109 0)"/>
       <use xlink:href="#DejaVuSans-30" transform="translate(211.035156 0)"/>
      </g>
     </g>
    </g>
    <g id="ytick_6">
     <g id="line2d_12">
      <g>
       <use xlink:href="#mb92a1622c2" x="135" y="127.861278" style="stroke: #000000; stroke-width: 0.8"/>
      </g>
     </g>
     <g id="text_13">
      <!-- −100 -->
      <g transform="translate(73.065625 135.459716) scale(0.2 -0.2)">
       <use xlink:href="#DejaVuSans-2212"/>
       <use xlink:href="#DejaVuSans-31" transform="translate(83.789062 0)"/>
       <use xlink:href="#DejaVuSans-30" transform="translate(147.412109 0)"/>
       <use xlink:href="#DejaVuSans-30" transform="translate(211.035156 0)"/>
      </g>
     </g>
    </g>
    <g id="ytick_7">
     <g id="line2d_13">
      <g>
       <use xlink:href="#mb92a1622c2" x="135" y="93.143342" style="stroke: #000000; stroke-width: 0.8"/>
      </g>
     </g>
     <g id="text_14">
      <!-- −50 -->
      <g transform="translate(85.790625 100.741779) scale(0.2 -0.2)">
       <use xlink:href="#DejaVuSans-2212"/>
       <use xlink:href="#DejaVuSans-35" transform="translate(83.789062 0)"/>
       <use xlink:href="#DejaVuSans-30" transform="translate(147.412109 0)"/>
      </g>
     </g>
    </g>
    <g id="ytick_8">
     <g id="line2d_14">
      <g>
       <use xlink:href="#mb92a1622c2" x="135" y="58.425405" style="stroke: #000000; stroke-width: 0.8"/>
      </g>
     </g>
     <g id="text_15">
      <!-- 0 -->
      <g transform="translate(115.275 66.023843) scale(0.2 -0.2)">
       <use xlink:href="#DejaVuSans-30"/>
      </g>
     </g>
    </g>
    <g id="text_16">
     <!-- Energy -->
     <g transform="translate(64.074375 223.815) rotate(-90) scale(0.24 -0.24)">
      <defs>
       <path id="DejaVuSans-45" d="M 628 4666 
L 3578 4666 
L 3578 4134 
L 1259 4134 
L 1259 2753 
L 3481 2753 
L 3481 2222 
L 1259 2222 
L 1259 531 
L 3634 531 
L 3634 0 
L 628 0 
L 628 4666 
z
" transform="scale(0.015625)"/>
       <path id="DejaVuSans-6e" d="M 3513 2113 
L 3513 0 
L 2938 0 
L 2938 2094 
Q 2938 2591 2744 2837 
Q 2550 3084 2163 3084 
Q 1697 3084 1428 2787 
Q 1159 2491 1159 1978 
L 1159 0 
L 581 0 
L 581 3500 
L 1159 3500 
L 1159 2956 
Q 1366 3272 1645 3428 
Q 1925 3584 2291 3584 
Q 2894 3584 3203 3211 
Q 3513 2838 3513 2113 
z
" transform="scale(0.015625)"/>
       <path id="DejaVuSans-72" d="M 2631 2963 
Q 2534 3019 2420 3045 
Q 2306 3072 2169 3072 
Q 1681 3072 1420 2755 
Q 1159 2438 1159 1844 
L 1159 0 
L 581 0 
L 581 3500 
L 1159 3500 
L 1159 2956 
Q 1341 3275 1631 3429 
Q 1922 3584 2338 3584 
Q 2397 3584 2469 3576 
Q 2541 3569 2628 3553 
L 2631 2963 
z
" transform="scale(0.015625)"/>
       <path id="DejaVuSans-67" d="M 2906 1791 
Q 2906 2416 2648 2759 
Q 2391 3103 1925 3103 
Q 1463 3103 1205 2759 
Q 947 2416 947 1791 
Q 947 1169 1205 825 
Q 1463 481 1925 481 
Q 2391 481 2648 825 
Q 2906 1169 2906 1791 
z
M 3481 434 
Q 3481 -459 3084 -895 
Q 2688 -1331 1869 -1331 
Q 1566 -1331 1297 -1286 
Q 1028 -1241 775 -1147 
L 775 -588 
Q 1028 -725 1275 -790 
Q 1522 -856 1778 -856 
Q 2344 -856 2625 -561 
Q 2906 -266 2906 331 
L 2906 616 
Q 2728 306 2450 153 
Q 2172 0 1784 0 
Q 1141 0 747 490 
Q 353 981 353 1791 
Q 353 2603 747 3093 
Q 1141 3584 1784 3584 
Q 2172 3584 2450 3431 
Q 2728 3278 2906 2969 
L 2906 3500 
L 3481 3500 
L 3481 434 
z
" transform="scale(0.015625)"/>
       <path id="DejaVuSans-79" d="M 2059 -325 
Q 1816 -950 1584 -1140 
Q 1353 -1331 966 -1331 
L 506 -1331 
L 506 -850 
L 844 -850 
Q 1081 -850 1212 -737 
Q 1344 -625 1503 -206 
L 1606 56 
L 191 3500 
L 800 3500 
L 1894 763 
L 2988 3500 
L 3597 3500 
L 2059 -325 
z
" transform="scale(0.015625)"/>
      </defs>
      <use xlink:href="#DejaVuSans-45"/>
      <use xlink:href="#DejaVuSans-6e" transform="translate(63.183594 0)"/>
      <use xlink:href="#DejaVuSans-65" transform="translate(126.5625 0)"/>
      <use xlink:href="#DejaVuSans-72" transform="translate(188.085938 0)"/>
      <use xlink:href="#DejaVuSans-67" transform="translate(227.449219 0)"/>
      <use xlink:href="#DejaVuSans-79" transform="translate(290.925781 0)"/>
     </g>
    </g>
   </g>
   <g id="line2d_15">
    <path d="M 173.045455 55.8 
L 181.324477 55.8 
L 181.446227 113.286741 
L 181.978885 113.286741 
L 182.100635 110.719048 
L 182.28326 113.99058 
L 182.557199 113.978091 
L 182.678949 111.410398 
L 182.755043 111.410398 
L 182.876793 109.86707 
L 182.968106 109.756799 
L 183.105075 108.061724 
L 183.181169 108.708916 
L 183.287701 105.372782 
L 183.302919 105.897481 
L 183.42467 105.729316 
L 183.439889 105.729316 
L 183.455107 55.8 
L 183.54642 105.729316 
L 183.759483 109.565442 
L 183.987765 109.565442 
L 184.109515 106.229308 
L 184.155172 106.229308 
L 184.216047 105.512315 
L 184.337797 109.233614 
L 184.42911 109.233614 
L 184.55086 112.519506 
L 185.661832 112.519506 
L 185.783582 113.286741 
L 185.996645 113.286741 
L 186.118396 109.950607 
L 186.148833 109.950607 
L 186.301021 107.941681 
L 186.377115 107.941681 
L 186.498865 112.519506 
L 187.19893 112.519506 
L 187.32068 113.286741 
L 187.411993 113.286741 
L 187.533743 112.519506 
L 187.807681 112.519506 
L 187.929432 107.941681 
L 188.644715 107.941681 
L 188.766465 123.293546 
L 189.314342 123.293546 
L 189.451311 117.922978 
L 189.58828 117.922978 
L 189.71003 120.725853 
L 189.831781 120.725853 
L 189.953531 121.493088 
L 189.96875 121.493088 
L 190.0905 118.156954 
L 190.227469 124.060781 
L 190.394876 124.060781 
L 190.501407 121.848606 
L 190.607939 122.565599 
L 190.729689 119.179223 
L 190.897096 119.179223 
L 190.988409 119.770089 
L 191.003627 119.485408 
L 191.018846 119.485408 
L 191.140597 123.206706 
L 191.444972 123.206706 
L 191.566723 145.888713 
L 191.688473 145.888713 
L 191.825442 139.222488 
L 191.886317 139.222488 
L 191.931974 134.364399 
L 191.992849 139.222488 
L 192.023286 139.222488 
L 192.068943 136.666934 
L 192.129818 139.222488 
L 192.464631 139.222488 
L 192.525506 143.333509 
L 192.586382 142.452095 
L 192.677694 142.452095 
L 192.799445 140.467132 
L 192.845101 140.467132 
L 192.966851 137.911929 
L 193.149477 137.911929 
L 193.271227 133.042436 
L 193.301665 133.042436 
L 193.423415 130.474743 
L 193.499509 130.474743 
L 193.560384 131.209557 
L 193.606041 130.474743 
L 193.621259 130.474743 
L 193.727791 135.59764 
L 193.758229 135.145755 
L 194.36698 135.145755 
L 194.48873 131.118272 
L 194.580043 131.118272 
L 194.656137 135.145755 
L 194.686575 131.118272 
L 194.838763 131.118272 
L 194.960513 134.1052 
L 195.051826 134.1052 
L 195.097482 133.488691 
L 195.219232 137.541817 
L 195.584483 137.541817 
L 195.706234 134.918215 
L 195.721452 134.918215 
L 195.843203 133.488691 
L 195.919297 133.488691 
L 196.056266 140.928193 
L 196.63458 140.928193 
L 196.75633 137.541817 
L 196.771549 137.541817 
L 196.908518 128.794035 
L 197.060706 128.794035 
L 197.182456 133.898664 
L 198.217334 133.898664 
L 198.369522 139.188308 
L 198.978274 139.188308 
L 199.100024 138.558711 
L 199.160899 138.558711 
L 199.191337 137.89196 
L 199.221774 138.558711 
L 199.343525 111.144003 
L 199.373962 111.144003 
L 199.419619 138.558711 
L 199.495713 133.731263 
L 200.02837 133.731263 
L 200.226215 138.558711 
L 200.347965 133.652932 
L 200.363184 133.652932 
L 200.484934 131.085239 
L 200.591465 131.085239 
L 200.713216 127.032112 
L 200.743653 127.032112 
L 200.819747 126.339718 
L 200.865404 132.986181 
L 200.926279 128.87516 
L 200.987154 128.598405 
L 201.108904 133.198325 
L 201.489374 133.198325 
L 201.595906 141.348002 
L 201.626343 141.298732 
L 202.006813 141.298732 
L 202.067688 139.422388 
L 202.128563 141.990082 
L 203.133004 141.990082 
L 203.254754 141.090036 
L 203.30041 141.090036 
L 203.346067 140.867272 
L 203.467817 142.251727 
L 203.635224 142.251727 
L 203.741755 141.866682 
L 203.939599 145.977703 
L 203.954818 145.977703 
L 204.076569 145.336595 
L 204.670101 145.336595 
L 204.730977 109.108116 
L 204.791852 115.338704 
L 204.852727 115.338704 
L 204.974477 145.336595 
L 205.096227 145.336595 
L 205.202759 110.63134 
L 205.217978 116.679705 
L 205.263634 116.679705 
L 205.324509 112.568684 
L 205.44626 145.336595 
L 205.56801 145.336595 
L 205.628885 145.977703 
L 205.720198 111.556808 
L 205.735417 145.977703 
L 206.115886 145.977703 
L 206.207199 109.368102 
L 206.222418 145.977703 
L 207.287733 145.977703 
L 207.409484 114.490998 
L 207.424702 114.490998 
L 207.546453 145.977703 
L 207.789953 145.977703 
L 207.911704 141.95022 
L 208.109548 141.95022 
L 208.231298 141.100482 
L 208.626987 141.100482 
L 208.748737 145.977703 
L 208.9618 145.977703 
L 209.083551 142.541086 
L 209.113988 142.541086 
L 209.235739 138.953576 
L 209.418364 138.953576 
L 209.540114 132.568854 
L 209.600989 132.828293 
L 209.616208 132.336985 
L 209.72274 131.241496 
L 209.84449 134.970538 
L 209.859709 134.970538 
L 209.981459 138.54835 
L 210.087991 138.54835 
L 210.22496 144.593249 
L 210.559773 144.593249 
L 210.681524 145.599157 
L 210.711961 145.599157 
L 210.84893 139.045986 
L 210.909805 139.045986 
L 211.031556 138.028103 
L 211.183744 138.028103 
L 211.259838 131.131226 
L 211.305494 134.46736 
L 211.381588 134.46736 
L 211.457682 140.248645 
L 211.48812 139.668048 
L 211.60987 135.640564 
L 211.685964 135.640564 
L 211.807714 131.080783 
L 211.822933 131.080783 
L 211.944683 134.661168 
L 212.005558 134.661168 
L 212.020777 132.502255 
L 212.127309 133.042879 
L 212.203403 132.886254 
L 212.249059 130.280243 
L 212.264278 135.03094 
L 212.294715 135.03094 
L 212.340372 135.03094 
L 212.401247 133.642289 
L 212.416466 137.669772 
L 212.431685 137.669772 
L 212.553435 165.892763 
L 212.568654 164.478627 
L 212.644748 164.51423 
L 212.766498 168.135686 
L 212.903467 168.135686 
L 213.025217 172.361953 
L 213.390468 172.361953 
L 213.512219 168.263554 
L 213.801376 168.263554 
L 213.862251 134.822343 
L 213.923126 138.051518 
L 214.044876 137.285318 
L 214.197064 137.285318 
L 214.318815 168.3081 
L 214.88191 168.3081 
L 215.00366 172.361953 
L 217.179947 172.361953 
L 217.301698 137.669836 
L 217.377791 137.669836 
L 217.408229 172.361953 
L 217.423448 133.642353 
L 217.484323 133.642353 
L 217.499542 133.642353 
L 217.621292 137.669836 
L 217.727824 137.669836 
L 217.849574 164.817196 
L 217.864793 164.817196 
L 217.986543 164.152609 
L 218.138731 164.152609 
L 218.260481 159.824937 
L 218.321356 159.866377 
L 218.443107 163.977397 
L 218.990983 163.973853 
L 219.112734 168.087949 
L 219.508422 168.087949 
L 219.53886 164.745143 
L 219.614954 168.087949 
L 219.630172 168.087949 
L 219.751923 110.199506 
L 219.797579 110.199506 
L 219.828017 107.014321 
L 219.904111 107.638482 
L 220.04108 115.731999 
L 220.147611 115.731999 
L 220.208487 109.683634 
L 220.269362 110.231757 
L 220.315018 110.231757 
L 220.436768 166.744406 
L 220.893332 166.744406 
L 221.04552 161.783227 
L 221.365115 161.783227 
L 221.486865 163.205076 
L 221.623834 163.205076 
L 221.745584 157.224299 
L 221.836897 157.224299 
L 221.958647 158.636573 
L 222.080398 158.636573 
L 222.202148 134.864852 
L 222.323898 158.636573 
L 222.521743 158.636573 
L 222.597837 152.871648 
L 222.613055 159.10308 
L 222.750025 159.10308 
L 222.841337 162.645543 
L 222.856556 161.474787 
L 223.328339 161.471032 
L 223.450089 165.582503 
L 223.967528 165.582503 
L 224.089278 162.045392 
L 224.211028 165.582503 
L 224.332779 165.582503 
L 224.454529 164.843845 
L 224.667592 164.843845 
L 224.789342 159.889462 
L 225.185031 159.889462 
L 225.306781 163.422638 
L 226.08294 163.42218 
L 226.20469 159.04051 
L 226.387315 159.04051 
L 226.509066 164.843067 
L 226.767785 164.843067 
L 226.889536 166.079295 
L 227.011286 166.079295 
L 227.133036 163.523186 
L 227.406974 163.523186 
L 227.528725 166.754081 
L 227.680913 166.754081 
L 227.772225 135.37306 
L 227.802663 139.483821 
L 227.878757 139.483821 
L 228.000507 136.916127 
L 228.061382 136.916127 
L 228.183133 166.754081 
L 228.548384 166.754081 
L 228.670134 137.515802 
L 228.898416 137.515802 
L 229.020166 166.754081 
L 229.081041 166.754081 
L 229.111479 138.827003 
L 229.187573 166.754081 
L 229.339761 166.754081 
L 229.400636 138.827003 
L 229.446292 166.754081 
L 231.500829 166.754081 
L 231.622579 165.332097 
L 231.881299 165.332097 
L 232.003049 161.222936 
L 232.261769 161.222936 
L 232.383519 162.650709 
L 232.535707 162.650709 
L 232.62702 178.269122 
L 232.642238 162.650709 
L 232.809645 162.650709 
L 232.916177 178.269122 
L 232.931395 175.701429 
L 233.479272 175.701429 
L 233.601022 165.447975 
L 233.661897 165.447975 
L 233.783648 159.369721 
L 234.057586 159.369721 
L 234.179336 175.701429 
L 234.301087 175.701429 
L 234.392399 178.269122 
L 234.407618 162.05349 
L 234.51415 164.07175 
L 234.620681 164.07175 
L 234.742432 178.269122 
L 234.970713 178.269122 
L 235.092464 156.497772 
L 235.107682 156.497772 
L 235.229433 160.598682 
L 235.39684 160.598682 
L 235.457715 159.970348 
L 235.503371 160.562316 
L 235.51859 160.562312 
L 235.64034 161.452602 
L 235.746872 161.452602 
L 235.868622 174.782262 
L 236.675218 174.782262 
L 236.796968 178.269122 
L 236.888281 178.269122 
L 237.010031 162.487298 
L 237.02525 162.487298 
L 237.147 178.269122 
L 237.238313 162.487298 
L 237.253532 178.269122 
L 237.329626 178.269122 
L 237.451376 178.840856 
L 237.542689 178.840856 
L 237.664439 173.932524 
L 237.679658 173.932524 
L 237.816627 183.718077 
L 238.121003 183.718077 
L 238.242753 162.487298 
L 238.623223 162.487298 
L 238.668879 178.185584 
L 238.729755 162.487298 
L 238.821067 162.487298 
L 238.836286 158.95035 
L 238.851505 179.607056 
L 239.003693 179.607056 
L 239.125443 175.885757 
L 239.1711 175.885757 
L 239.186318 158.501654 
L 239.277631 175.885757 
L 239.566788 175.885757 
L 239.582007 176.120197 
L 239.703757 167.5291 
L 239.871164 167.5291 
L 239.932039 181.162523 
L 239.977695 167.5291 
L 239.992914 167.5291 
L 240.053789 181.162523 
L 240.099446 167.011803 
L 240.129883 167.011803 
L 240.190759 181.162523 
L 240.236415 175.63003 
L 240.692979 175.63003 
L 240.784291 177.135039 
L 240.814729 177.051502 
L 240.982136 177.051502 
L 241.103886 176.53563 
L 241.195199 176.53563 
L 241.316949 179.091184 
L 241.697419 179.091184 
L 241.819169 170.841813 
L 241.880044 170.841813 
L 242.001795 179.091184 
L 242.032232 179.091184 
L 242.153983 149.147868 
L 242.230076 149.147868 
L 242.367046 177.663524 
L 242.488796 153.706322 
L 242.701859 153.706322 
L 242.747515 177.663524 
L 242.823609 177.039363 
L 243.097548 177.039363 
L 243.219298 163.793733 
L 243.325829 163.793733 
L 243.44758 181.150384 
L 243.554111 181.150384 
L 243.630205 163.793733 
L 243.645424 181.162523 
L 243.660643 181.162523 
L 243.706299 181.162523 
L 243.736737 158.734734 
L 243.812831 181.162523 
L 243.980237 181.162523 
L 244.101988 153.596117 
L 244.223738 162.370752 
L 244.254176 162.370752 
L 244.375926 163.790359 
L 244.619427 163.790359 
L 244.665083 181.162523 
L 244.725958 167.370206 
L 245.517335 167.370206 
L 245.608648 183.043673 
L 245.639086 179.335893 
L 245.745617 179.317697 
L 245.83693 163.779237 
L 245.867367 175.596398 
L 245.882586 175.596398 
L 245.943461 163.779237 
L 245.989118 175.294891 
L 246.004337 175.294891 
L 246.171743 163.779237 
L 246.308712 163.769119 
L 246.369588 174.986828 
L 246.415244 163.769119 
L 246.597869 163.769119 
L 246.71962 159.69231 
L 246.84137 174.986828 
L 246.932683 174.986828 
L 247.054433 163.769119 
L 247.282715 163.769119 
L 247.404465 173.168184 
L 247.754497 173.168184 
L 247.876248 158.609635 
L 248.013217 158.609635 
L 248.058873 173.168184 
L 248.119748 158.609635 
L 248.804594 158.630351 
L 248.926344 169.781857 
L 248.987219 169.781857 
L 249.10897 160.056714 
L 249.428564 160.056714 
L 249.550315 171.039774 
L 249.763378 170.956853 
L 249.778597 168.111026 
L 249.869909 169.698343 
L 249.976441 169.698343 
L 249.99166 160.056714 
L 250.082972 169.698343 
L 250.219942 169.698343 
L 250.341692 172.927749 
L 250.706943 172.927749 
L 250.767818 160.114322 
L 250.813474 171.773038 
L 250.889568 171.773038 
L 251.011319 169.00404 
L 251.193944 169.109247 
L 251.209163 172.927749 
L 251.300476 168.136179 
L 251.391788 168.136179 
L 251.513539 172.927749 
L 251.604851 172.927749 
L 251.726602 175.495936 
L 251.817915 175.495936 
L 251.939665 178.932472 
L 252.396229 178.932609 
L 252.517979 175.723826 
L 253.355012 175.742761 
L 253.476763 170.643629 
L 253.796357 170.665542 
L 253.918108 174.865527 
L 254.039858 174.865527 
L 254.070296 170.665542 
L 254.161608 170.77781 
L 254.359453 170.77781 
L 254.481203 170.103406 
L 254.952985 170.103406 
L 255.074736 167.535713 
L 255.135611 167.535713 
L 255.257361 168.595559 
L 255.439987 168.595559 
L 255.531299 167.535713 
L 255.546518 168.595559 
L 255.561737 168.595559 
L 255.683487 167.535713 
L 255.790019 167.535713 
L 255.911769 170.103406 
L 255.942207 170.103406 
L 256.063957 217.942044 
L 256.459646 217.942044 
L 256.581396 213.888917 
L 256.687928 213.888917 
L 256.809678 212.487348 
L 257.022741 212.487348 
L 257.144491 216.540474 
L 258.118494 216.540474 
L 258.148931 173.889518 
L 258.225025 212.429453 
L 258.361994 212.429453 
L 258.483745 216.540474 
L 258.909871 216.540474 
L 259.031621 213.103857 
L 259.275122 213.103857 
L 259.396872 214.505426 
L 259.853436 214.505426 
L 259.975186 173.483488 
L 260.31 173.483539 
L 260.355656 170.046946 
L 260.477406 217.743633 
L 261.131814 217.743633 
L 261.207908 213.75521 
L 261.238346 216.613324 
L 261.420971 216.632752 
L 261.542722 217.872404 
L 261.573159 217.872404 
L 261.664472 176.869984 
L 261.69491 176.870069 
L 261.786222 176.870069 
L 261.907973 217.872404 
L 261.953629 217.872404 
L 262.075379 213.819277 
L 262.19713 213.819277 
L 262.242786 210.38266 
L 262.31888 210.554546 
L 262.547162 210.554546 
L 262.684131 201.424924 
L 262.729787 201.424924 
L 262.881975 206.333255 
L 263.445071 206.333255 
L 263.505946 210.554546 
L 263.551602 209.133074 
L 263.901634 209.133074 
L 263.916853 205.646215 
L 264.008166 208.55312 
L 264.556042 208.55312 
L 264.677793 173.483696 
L 264.769105 173.483696 
L 264.890856 208.55312 
L 265.073481 208.55312 
L 265.180013 211.120813 
L 265.301763 209.709206 
L 265.46917 209.709206 
L 265.59092 213.196279 
L 265.97139 213.196279 
L 266.062703 213.006748 
L 266.184453 208.895727 
L 266.549704 208.895727 
L 266.671454 213.006748 
L 266.930174 173.483696 
L 267.067143 173.483696 
L 267.188893 209.140171 
L 268.786866 209.140118 
L 268.908616 209.473845 
L 269.121679 209.473845 
L 269.152117 203.082503 
L 269.228211 208.557878 
L 269.24343 208.557878 
L 269.36518 203.680094 
L 269.380399 203.680094 
L 269.502149 207.164202 
L 269.730431 207.164202 
L 269.943494 212.040054 
L 271.115341 212.040054 
L 271.237091 208.553708 
L 271.450154 208.553708 
L 271.571905 205.987085 
L 271.693655 205.987085 
L 271.815405 205.489353 
L 271.876281 205.489353 
L 272.01325 197.840933 
L 272.576345 197.842956 
L 272.713314 203.947859 
L 273.154659 203.944404 
L 273.276409 201.03862 
L 273.443816 201.03862 
L 273.565566 205.356194 
L 273.672098 205.356194 
L 273.793848 209.467215 
L 273.809067 209.467215 
L 273.930817 211.120813 
L 274.326506 211.120813 
L 274.478694 205.869705 
L 275.544009 205.869705 
L 275.665759 209.577485 
L 275.817947 209.577485 
L 275.939698 213.064345 
L 276.28973 213.064345 
L 276.41148 208.953324 
L 276.807169 208.953324 
L 276.837606 192.294675 
L 276.9137 208.953324 
L 277.050669 208.953324 
L 277.17242 213.064345 
L 277.233295 213.064345 
L 277.355045 162.724162 
L 277.461577 162.724162 
L 277.522452 165.891155 
L 277.644202 212.757823 
L 278.389923 212.757823 
L 278.511673 212.291019 
L 279.226956 212.291019 
L 279.348707 211.058889 
L 279.424801 211.058889 
L 279.516113 201.103528 
L 279.546551 201.677294 
L 279.56177 201.677294 
L 279.592207 197.566273 
L 279.637864 202.546218 
L 279.668301 202.546218 
L 279.68352 202.546218 
L 279.80527 215.406928 
L 279.927021 211.379445 
L 280.06399 211.198387 
L 280.18574 215.309408 
L 280.596648 215.309408 
L 280.764054 197.045976 
L 280.855367 197.045976 
L 280.977117 201.853824 
L 281.083649 201.821573 
L 281.144524 198.435197 
L 281.266274 216.795758 
L 281.464119 216.795758 
L 281.540213 198.435197 
L 281.585869 201.853824 
L 281.814151 201.853824 
L 281.844588 197.742803 
L 281.920682 201.853824 
L 282.103308 201.853824 
L 282.225058 215.346223 
L 282.651184 215.346223 
L 282.772935 201.677294 
L 282.788153 201.677294 
L 282.909904 197.099469 
L 283.031654 197.099469 
L 283.153404 214.019524 
L 283.275155 214.903329 
L 283.396905 214.903329 
L 283.518655 211.730148 
L 283.777375 211.730148 
L 283.899125 212.29554 
L 284.660065 212.29554 
L 284.766596 214.903329 
L 284.781815 214.892378 
L 284.903565 214.892378 
L 285.025316 212.598844 
L 285.238379 212.598844 
L 285.360129 202.853074 
L 285.512317 202.853074 
L 285.649286 211.454297 
L 285.938443 211.454297 
L 285.999318 214.628244 
L 286.075412 206.964095 
L 286.121068 208.385567 
L 286.258038 208.385567 
L 286.273256 212.881379 
L 286.364569 208.385567 
L 286.684164 208.385567 
L 286.805914 212.881379 
L 287.308134 212.881379 
L 287.369009 215.203342 
L 287.445103 204.94895 
L 287.475541 215.203342 
L 287.825573 215.203342 
L 287.947323 218.640187 
L 288.327793 218.640187 
L 288.449543 200.553247 
L 288.540856 200.553247 
L 288.723482 220.650745 
L 289.651828 220.650745 
L 289.712703 217.214032 
L 289.758359 220.650745 
L 289.804016 220.650745 
L 290.017079 207.361202 
L 290.138829 219.511036 
L 290.154048 219.511036 
L 290.336673 204.626048 
L 290.351892 204.626048 
L 290.519299 216.836845 
L 291.523739 216.836845 
L 291.645489 217.424266 
L 291.76724 203.005418 
L 291.919428 203.005418 
L 291.949865 217.424266 
L 292.025959 203.005418 
L 292.14771 203.005418 
L 292.178147 217.424266 
L 292.26946 216.836845 
L 292.604273 216.934481 
L 292.726024 217.525636 
L 292.847774 203.937074 
L 293.578276 203.937074 
L 293.700026 206.492278 
L 293.943527 206.492278 
L 293.958746 213.495491 
L 294.065277 212.081567 
L 294.993623 211.998007 
L 295.115374 209.385702 
L 295.16103 209.385702 
L 295.28278 213.414503 
L 296.074158 213.414503 
L 296.211127 207.371859 
L 296.332877 207.371859 
L 296.454627 210.858823 
L 296.561159 210.858823 
L 296.682909 206.492278 
L 296.789441 206.492278 
L 296.911191 206.831115 
L 296.972066 206.831115 
L 297.093816 210.858707 
L 297.276442 210.858707 
L 297.398192 206.492278 
L 297.565599 206.492278 
L 297.672131 213.414617 
L 297.793881 206.492278 
L 298.204788 206.492278 
L 298.235226 213.414617 
L 298.31132 206.492278 
L 298.737446 206.492278 
L 298.81354 213.414617 
L 298.843977 210.858707 
L 299.087478 210.858707 
L 299.209228 206.492278 
L 299.361416 206.492278 
L 299.483167 210.858823 
L 299.894074 210.858823 
L 300.015824 206.492278 
L 300.076699 206.492278 
L 300.19845 210.858823 
L 300.94417 210.858707 
L 301.065921 203.924585 
L 301.309421 203.924585 
L 301.385515 205.802668 
L 301.415953 203.924585 
L 301.979048 203.924585 
L 301.994267 206.492278 
L 302.009486 200.502219 
L 302.08558 204.482146 
L 302.435612 204.482146 
L 302.557362 201.472852 
L 302.70955 204.482146 
L 302.892176 204.482146 
L 302.922613 204.047841 
L 302.937832 205.469582 
L 302.96827 205.469582 
L 303.029145 205.469582 
L 303.09002 203.442244 
L 303.150895 203.525782 
L 303.196551 203.525782 
L 303.318302 204.482146 
L 303.942272 204.482146 
L 304.064023 204.18275 
L 304.292304 204.18275 
L 304.368398 210.630528 
L 304.398836 208.024517 
L 304.520586 204.18275 
L 304.627118 204.18275 
L 304.748868 208.565141 
L 305.235869 208.565141 
L 305.251088 209.851818 
L 305.372839 200.69589 
L 305.433714 200.69589 
L 305.540245 209.311217 
L 305.555464 209.311089 
L 306.148997 209.312562 
L 306.270747 200.69589 
L 306.331622 209.312562 
L 306.377279 200.69589 
L 306.499029 200.69589 
L 306.529467 209.275463 
L 306.605561 200.69589 
L 306.818624 200.69589 
L 306.940374 198.128197 
L 306.98603 198.128197 
L 307.107781 209.275463 
L 307.122999 209.275463 
L 307.138218 198.128197 
L 307.183875 211.523645 
L 307.229531 211.523645 
L 307.3665 211.523645 
L 307.518688 200.69589 
L 307.640438 200.69589 
L 307.777407 214.500935 
L 308.279628 214.500935 
L 308.37094 160.340385 
L 308.386159 214.500935 
L 308.462253 214.500935 
L 308.584003 215.634666 
L 308.736191 215.634666 
L 308.857942 221.083621 
L 308.994911 221.083621 
L 309.116661 217.596762 
L 309.360162 217.596762 
L 309.390599 218.528418 
L 309.405818 215.041559 
L 309.421037 215.041559 
L 309.451474 215.041559 
L 309.573225 213.99607 
L 309.6341 213.99607 
L 309.649319 164.066361 
L 309.740631 213.99607 
L 309.923257 214.017679 
L 309.953695 217.504538 
L 310.075445 164.066361 
L 310.212414 164.066361 
L 310.334164 217.504538 
L 310.562446 217.504538 
L 310.684196 214.017679 
L 310.714634 214.017679 
L 310.836384 216.572882 
L 310.851603 216.572882 
L 311.155979 164.066361 
L 311.384261 164.066361 
L 311.506011 203.005418 
L 311.627761 199.468317 
L 311.703855 199.468317 
L 311.825606 199.743132 
L 312.236513 199.743132 
L 312.266951 198.894397 
L 312.282169 199.827777 
L 312.327826 199.827777 
L 312.449576 164.066361 
L 312.632202 164.066361 
L 312.753952 221.157457 
L 312.982234 221.157457 
L 313.073547 224.594075 
L 313.088765 221.157457 
L 313.103984 221.157457 
L 313.225734 224.594075 
L 313.438798 224.594075 
L 313.560548 198.42326 
L 314.245393 198.42326 
L 314.306269 222.026382 
L 314.351925 198.42326 
L 314.367144 198.42326 
L 314.488894 222.026382 
L 315.051989 222.026382 
L 315.204177 220.189916 
L 315.341146 220.189916 
L 315.386803 198.42326 
L 315.447678 220.189916 
L 315.554209 220.189916 
L 315.67596 216.753299 
L 315.767273 216.753299 
L 315.889023 198.42326 
L 315.91946 198.42326 
L 316.041211 216.044205 
L 316.376024 216.044205 
L 316.512993 218.312544 
L 317.258714 218.239059 
L 317.380464 214.128038 
L 317.56309 214.128038 
L 317.68484 210.017017 
L 317.730496 210.017017 
L 317.852247 204.682636 
L 318.095747 204.717931 
L 318.247935 192.923019 
L 318.324029 192.923019 
L 318.44578 203.810419 
L 318.537092 203.810419 
L 318.597968 207.92144 
L 318.613186 207.732383 
L 318.674062 192.923019 
L 318.719718 207.732383 
L 318.871906 207.815921 
L 318.993656 209.460832 
L 319.541533 209.471743 
L 319.663283 200.978464 
L 321.565632 200.978464 
L 321.687382 210.893199 
L 321.71782 210.893199 
L 321.83957 200.978464 
L 322.387446 200.978464 
L 322.509197 172.710823 
L 322.524416 172.710823 
L 322.646166 206.767663 
L 322.950542 206.767663 
L 323.072292 205.212957 
L 323.84845 205.212957 
L 323.939763 207.901234 
L 323.985419 203.839993 
L 324.046295 207.901234 
L 324.913766 207.901234 
L 325.035516 205.333764 
L 325.050735 205.333764 
L 325.157266 204.981201 
L 325.324673 207.95938 
L 325.339892 205.403644 
L 325.355111 208.558034 
L 325.431205 208.50014 
L 325.507298 208.50014 
L 325.629049 207.883631 
L 326.009519 207.883631 
L 326.131269 206.462159 
L 326.253019 206.462159 
L 326.37477 208.215458 
L 326.450863 205.682664 
L 326.466082 208.417818 
L 326.481301 208.417818 
L 326.587833 208.417818 
L 326.603051 216.047778 
L 326.694364 208.417818 
L 327.181365 208.417818 
L 327.242241 204.696519 
L 327.257459 214.542769 
L 327.485741 214.542769 
L 327.607492 205.338672 
L 327.668367 204.680768 
L 327.683586 215.323133 
L 327.790117 214.839506 
L 327.911867 211.453131 
L 328.109712 211.453131 
L 328.231462 210.728485 
L 328.353212 211.453131 
L 328.5054 211.453131 
L 328.611932 200.959469 
L 328.733682 211.453131 
L 328.76412 211.453131 
L 328.88587 208.362731 
L 329.022839 208.362731 
L 329.098933 200.959469 
L 329.129371 208.362731 
L 329.190246 208.362731 
L 329.311996 200.959469 
L 329.327215 200.959469 
L 329.448965 210.401797 
L 329.722903 210.369551 
L 329.844654 200.959469 
L 330.240342 200.959469 
L 330.362093 210.369551 
L 330.407749 214.222503 
L 330.422968 200.959469 
L 331.290439 200.959469 
L 331.381752 214.863611 
L 331.39697 200.959469 
L 331.442627 200.959469 
L 331.518721 214.863611 
L 331.564377 211.217969 
L 331.610033 211.217969 
L 331.731784 200.959469 
L 332.066597 200.959469 
L 332.188348 172.49284 
L 332.462286 172.49284 
L 332.477505 169.083576 
L 332.599255 215.123058 
L 332.721005 215.123058 
L 332.842756 200.959469 
L 332.918849 200.959469 
L 332.994943 215.123058 
L 333.0406 214.840303 
L 333.086256 214.840303 
L 333.208007 200.959469 
L 333.603695 200.959469 
L 333.649351 214.840303 
L 333.710227 200.959469 
L 333.831977 200.959469 
L 333.999384 215.434097 
L 334.318978 215.434097 
L 334.440729 211.386097 
L 334.516822 211.386097 
L 334.638573 207.727664 
L 334.92773 207.727664 
L 335.04948 208.402067 
L 335.856076 208.402067 
L 335.977826 208.254529 
L 336.175671 208.254529 
L 336.297421 204.546748 
L 336.327859 204.546748 
L 336.403953 208.254529 
L 336.43439 205.686836 
L 336.617016 205.686836 
L 336.738766 217.214765 
L 336.860516 217.214765 
L 336.982267 204.546748 
L 337.073579 204.546748 
L 337.19533 199.014255 
L 337.256205 203.125277 
L 337.301861 199.417496 
L 337.31708 199.417496 
L 337.43883 216.997296 
L 337.454049 216.997296 
L 337.484487 206.392166 
L 337.560581 216.997296 
L 337.575799 216.997296 
L 337.591018 206.392166 
L 337.606237 219.478111 
L 337.682331 219.478111 
L 338.032363 219.478111 
L 338.154113 202.44963 
L 338.428052 202.44963 
L 338.549802 220.641341 
L 338.671552 216.529764 
L 338.869397 216.529764 
L 338.991147 213.093483 
L 339.052022 213.093483 
L 339.067241 202.44963 
L 339.158554 213.093483 
L 339.280304 213.093483 
L 339.402054 203.565417 
L 339.493367 203.565417 
L 339.569461 204.986889 
L 339.691211 201.349304 
L 339.858618 201.349304 
L 339.980368 211.672058 
L 340.041243 211.672058 
L 340.162994 198.78161 
L 340.3304 198.763415 
L 340.452151 197.911566 
L 340.528245 197.911566 
L 340.649995 215.815706 
L 340.984808 215.815706 
L 341.106559 216.527837 
L 341.152215 216.527837 
L 341.273966 220.781659 
L 341.730529 220.781659 
L 341.85228 199.239623 
L 341.913155 199.239623 
L 341.928373 199.057787 
L 342.080561 204.116844 
L 342.247968 204.116844 
L 342.430594 220.639879 
L 342.948032 220.639879 
L 343.024126 220.21567 
L 343.145877 222.026382 
L 343.48069 222.065977 
L 343.60244 223.456037 
L 343.693753 223.456037 
L 343.769847 222.026382 
L 343.800285 223.456037 
L 343.86116 223.456037 
L 343.98291 217.399489 
L 344.013348 218.589764 
L 344.104661 218.589764 
L 344.226411 201.772498 
L 344.728631 201.772498 
L 344.850381 223.456037 
L 344.926475 223.456037 
L 345.048226 194.246118 
L 345.322164 194.246118 
L 345.443914 223.456037 
L 345.596102 223.456037 
L 345.717852 195.189811 
L 345.915697 195.189811 
L 346.037447 223.456037 
L 346.159197 223.456037 
L 346.280948 211.263641 
L 346.387479 211.263641 
L 346.509229 210.176212 
L 346.570105 210.176212 
L 346.691855 206.148728 
L 346.75273 206.148728 
L 346.859262 220.393486 
L 346.889699 216.314716 
L 347.01145 216.314716 
L 347.1332 215.797646 
L 347.178856 215.797646 
L 347.300607 222.017688 
L 347.331044 222.017688 
L 347.452794 223.43916 
L 347.559326 223.43916 
L 347.681076 218.480587 
L 347.711514 218.480587 
L 347.878921 223.980829 
L 348.228953 223.980829 
L 348.411578 210.25975 
L 348.533329 221.425626 
L 348.624641 221.425626 
L 348.746392 205.632857 
L 348.685517 223.461291 
L 348.776829 210.25975 
L 348.807267 210.25975 
L 348.883361 223.927075 
L 348.913798 210.25975 
L 349.035549 210.25975 
L 349.157299 200.349567 
L 349.370362 200.349567 
L 349.492112 199.959669 
L 349.659519 199.959669 
L 349.781269 218.394582 
L 349.90302 222.505603 
L 350.02477 218.868018 
L 350.298708 218.868018 
L 350.344365 215.180191 
L 350.40524 218.868018 
L 350.420459 218.868018 
L 350.542209 223.927075 
L 350.603084 223.927075 
L 350.694397 227.514418 
L 350.816147 203.559729 
L 351.105304 203.559729 
L 351.227055 230.485252 
L 351.303148 230.485252 
L 351.318367 208.997856 
L 351.424899 210.468396 
L 351.546649 210.468396 
L 351.561868 210.166889 
L 351.637962 206.440913 
L 351.759712 230.485252 
L 353.114185 230.485252 
L 353.235935 203.500664 
L 353.327248 203.500664 
L 353.509873 226.998393 
L 353.631623 206.055868 
L 353.646842 206.055868 
L 353.768593 193.683049 
L 353.92078 193.683049 
L 354.042531 197.549343 
L 354.240375 197.549343 
L 354.362125 230.789705 
L 355.123065 230.789705 
L 355.244815 224.155731 
L 355.260034 224.155731 
L 355.30569 187.288242 
L 355.366566 187.711411 
L 355.44266 221.833714 
L 355.473097 187.71144 
L 355.488316 187.71144 
L 355.610066 226.710935 
L 356.06663 226.710935 
L 356.18838 230.789705 
L 356.416662 230.789705 
L 356.538412 227.302845 
L 357.360227 227.302845 
L 357.481977 199.217294 
L 358.212479 199.217294 
L 358.33423 197.220605 
L 358.562512 197.220605 
L 358.608168 194.652912 
L 358.699481 231.571057 
L 358.714699 194.652912 
L 358.729918 194.652912 
L 358.745137 190.541891 
L 358.866887 231.571057 
L 359.049513 231.571057 
L 359.07995 186.3206 
L 359.171263 190.541891 
L 359.21692 190.541891 
L 359.308232 186.514408 
L 359.429983 231.571057 
L 359.475639 231.571057 
L 359.597389 232.061439 
L 359.96264 232.061439 
L 360.084391 181.83469 
L 360.480079 181.83469 
L 360.60183 182.577979 
L 361.301894 182.577979 
L 361.423644 221.413136 
L 361.743239 221.413136 
L 361.864989 217.302115 
L 361.925864 217.302115 
L 362.047615 206.996346 
L 362.458522 206.996346 
L 362.580272 217.767898 
L 362.656366 217.767898 
L 362.762898 216.346426 
L 362.884648 221.413136 
L 362.899867 221.413136 
L 363.006398 207.935742 
L 363.128149 221.413136 
L 363.295555 221.413136 
L 363.417306 206.514271 
L 363.447743 206.514271 
L 363.4934 221.413136 
L 363.554275 206.514271 
L 363.599931 206.514271 
L 363.691244 203.308849 
L 363.812994 221.413136 
L 364.163027 221.413136 
L 364.284777 217.825793 
L 364.771778 217.825793 
L 364.87831 204.430739 
L 364.893528 204.801728 
L 365.106592 204.801728 
L 365.228342 217.825793 
L 365.837093 217.767898 
L 365.989281 213.747023 
L 366.019719 183.436283 
L 366.111032 187.547304 
L 366.248001 213.229953 
L 366.415408 213.223345 
L 366.537158 201.709788 
L 366.613252 201.709788 
L 366.628471 201.91571 
L 366.643689 201.46693 
L 366.704565 201.46693 
L 366.826315 201.46693 
L 366.948065 197.410784 
L 367.054597 190.216638 
L 367.161128 180.957752 
L 367.282879 191.785282 
L 367.343754 202.976385 
L 367.404629 196.33007 
L 367.51116 196.33007 
L 367.632911 196.859714 
L 368.043818 196.859714 
L 368.196006 180.794105 
L 368.317756 211.159568 
L 368.363413 211.159568 
L 368.485163 180.794105 
L 368.606913 180.794105 
L 368.728664 181.309977 
L 368.880852 181.309977 
L 369.002602 191.950407 
L 369.078696 191.950407 
L 369.15479 180.920079 
L 369.185227 189.382714 
L 369.200446 189.382714 
L 369.291759 180.920079 
L 369.306978 189.382714 
L 369.337415 189.382714 
L 369.459166 191.950407 
L 369.77876 191.950407 
L 369.900511 194.381144 
L 370.022261 194.381144 
L 370.128792 220.252054 
L 370.189668 194.381144 
L 370.235324 202.468444 
L 370.5397 202.468444 
L 370.676669 220.252054 
L 370.707106 220.252054 
L 370.813638 219.811914 
L 370.935388 212.468485 
L 371.194108 212.468485 
L 371.315858 215.443134 
L 371.391952 215.443134 
L 371.513702 223.70785 
L 371.559359 223.70785 
L 371.681109 215.443134 
L 371.696328 215.443134 
L 371.757203 210.865309 
L 371.772422 223.70785 
L 372.42683 223.70785 
L 372.54858 223.984252 
L 372.67033 223.984252 
L 372.792081 226.684716 
L 372.944269 226.684716 
L 372.974706 223.166972 
L 372.989925 226.892948 
L 373.0508 226.892948 
L 373.157332 226.892948 
L 373.294301 219.986551 
L 373.55302 219.981874 
L 373.583458 219.596507 
L 373.598677 220.036647 
L 373.659552 220.036647 
L 373.689989 220.036647 
L 373.81174 223.762624 
L 373.903052 223.762624 
L 373.93349 198.157067 
L 374.009584 223.762624 
L 374.603117 223.762624 
L 374.679211 195.589374 
L 374.69443 225.586145 
L 374.709648 225.586145 
L 376.398934 225.586145 
L 376.520684 224.363075 
L 376.596778 224.363075 
L 376.718529 233.15349 
L 376.840279 232.629812 
L 377.068561 232.629812 
L 377.251186 235.523925 
L 378.179533 235.523925 
L 378.301283 235.359076 
L 378.453471 235.359076 
L 378.575221 231.300818 
L 379.71663 231.300818 
L 379.838381 231.749648 
L 380.234069 231.749648 
L 380.35582 231.300818 
L 380.371038 231.300818 
L 380.492789 227.189797 
L 381.527667 227.189797 
L 381.649417 227.663233 
L 381.877699 227.663233 
L 381.999449 231.721491 
L 382.212512 231.721491 
L 382.334262 234.942788 
L 382.592982 234.948079 
L 382.714732 238.585664 
L 383.308265 238.585664 
L 383.430015 234.948079 
L 384.312705 234.948079 
L 384.434456 234.558181 
L 384.921457 234.558181 
L 384.951894 225.478752 
L 385.027988 234.558181 
L 385.819366 234.558181 
L 385.941116 238.585664 
L 386.565086 238.585664 
L 386.686837 238.406391 
L 387.052088 238.406391 
L 387.128181 198.340204 
L 387.173838 234.378907 
L 387.539089 234.378907 
L 387.676058 227.153979 
L 387.706496 227.153979 
L 387.828246 226.738438 
L 387.873902 226.738438 
L 388.041309 204.112689 
L 388.056528 222.111545 
L 388.163059 218.000524 
L 388.208716 218.000524 
L 388.223934 215.856247 
L 388.315247 216.845554 
L 388.756592 216.853347 
L 388.878342 213.173529 
L 388.969655 213.173529 
L 389.106624 220.970968 
L 389.700157 220.970968 
L 389.821907 224.526402 
L 389.867564 224.526402 
L 389.989314 220.668377 
L 390.111064 220.668377 
L 390.202377 230.967981 
L 390.232815 224.723457 
L 390.278471 224.723457 
L 390.29369 230.967981 
L 390.385003 224.723457 
L 391.389443 224.739984 
L 391.511193 228.305748 
L 391.891663 228.305748 
L 392.013413 228.785025 
L 392.317789 228.785025 
L 392.439539 224.630031 
L 392.622165 224.630031 
L 392.743915 228.785025 
L 392.896103 228.785025 
L 393.017853 228.367247 
L 393.44398 228.367247 
L 393.550511 227.792651 
L 393.626605 211.121463 
L 393.672261 211.493738 
L 393.900543 211.493738 
L 394.022294 206.312761 
L 394.433201 206.312761 
L 394.554951 228.310476 
L 395.818111 228.32409 
L 395.939861 228.431867 
L 396.320331 228.431867 
L 396.365987 225.274594 
L 396.426863 228.431867 
L 397.233458 228.431867 
L 397.355209 228.698534 
L 398.024836 228.698534 
L 398.146586 212.029652 
L 398.450962 212.029652 
L 398.572712 228.698534 
L 399.272776 228.698534 
L 399.34887 223.521717 
L 399.394527 223.741907 
L 399.485839 223.741907 
L 399.622809 231.540755 
L 399.835872 231.540755 
L 399.957622 219.080056 
L 400.079372 231.468329 
L 402.849192 231.540755 
L 402.970942 246.267667 
L 403.290537 246.267667 
L 403.412287 231.540755 
L 403.792757 231.540755 
L 403.853632 246.417949 
L 403.899289 231.540755 
L 404.142789 231.540755 
L 404.158008 246.417949 
L 404.249321 231.540755 
L 404.416728 231.540755 
L 404.538478 246.267667 
L 404.568915 246.267667 
L 404.690666 231.540755 
L 405.01026 231.540755 
L 405.071136 244.719439 
L 405.116792 231.540755 
L 405.177667 231.540755 
L 405.223323 244.719439 
L 405.284199 231.540755 
L 405.466824 231.540755 
L 405.51248 244.719439 
L 405.573356 231.540755 
L 405.710325 231.540755 
L 405.725544 239.911672 
L 405.816856 231.540755 
L 405.877731 231.540755 
L 405.953825 247.554912 
L 405.969044 230.789856 
L 405.984263 230.789856 
L 406.106013 230.789856 
L 406.227764 233.34541 
L 406.714765 233.34541 
L 406.806078 244.344808 
L 406.836515 243.82113 
L 406.973484 243.82113 
L 407.095235 233.34541 
L 407.140891 233.34541 
L 407.262641 230.570732 
L 407.490923 230.570732 
L 407.612674 239.793647 
L 407.643111 239.793647 
L 407.65833 240.11335 
L 407.78008 230.570732 
L 407.901831 230.570732 
L 408.023581 230.155461 
L 408.388832 230.155461 
L 408.495363 247.547106 
L 408.617114 230.155461 
L 408.891052 234.616308 
L 409.42371 234.616308 
L 409.54546 247.547106 
L 410.382493 247.547106 
L 410.504244 230.071754 
L 410.610775 230.071754 
L 410.625994 247.547106 
L 410.732526 243.959763 
L 411.021683 243.959763 
L 411.036901 228.414065 
L 411.128214 243.959763 
L 411.660872 243.959763 
L 411.782622 234.150524 
L 411.797841 234.150524 
L 411.93481 224.542231 
L 411.965248 224.542231 
L 412.086998 245.994551 
L 412.117436 245.994551 
L 412.19353 245.226841 
L 412.31528 224.251245 
L 412.43703 224.251245 
L 412.558781 223.427504 
L 412.69575 223.427504 
L 412.8175 223.264168 
L 412.832719 223.264168 
L 412.893594 219.159755 
L 412.93925 223.0325 
L 413.167532 223.0325 
L 413.289282 218.405607 
L 413.624096 218.405607 
L 413.806721 243.939142 
L 413.928472 240.185464 
L 414.20241 240.185464 
L 414.385035 243.896569 
L 414.522005 243.896569 
L 414.735068 223.932861 
L 414.765505 223.932861 
L 414.811162 223.703204 
L 414.932912 237.077499 
L 415.252506 237.077499 
L 415.374257 230.590027 
L 415.419913 230.590027 
L 415.450351 235.21692 
L 415.541663 235.212459 
L 415.556882 235.212459 
L 415.572101 239.270047 
L 415.663414 235.938179 
L 415.724289 235.938179 
L 415.846039 239.965662 
L 415.952571 239.965662 
L 416.074321 242.001428 
L 416.47001 242.001428 
L 416.546104 230.782122 
L 416.576541 238.524408 
L 416.911355 238.524408 
L 416.97223 230.782122 
L 417.017886 238.524408 
L 417.078761 238.524408 
L 417.200512 230.782122 
L 417.230949 230.782122 
L 417.3527 227.194779 
L 417.47445 230.818583 
L 417.489669 230.818583 
L 417.611419 242.216616 
L 417.915795 242.216616 
L 418.037545 238.495318 
L 418.128858 238.495318 
L 418.189733 242.216616 
L 418.204952 227.073821 
L 418.296265 245.918955 
L 418.35714 245.918955 
L 418.402796 246.180595 
L 418.524546 225.200764 
L 418.60064 225.200764 
L 418.722391 225.54045 
L 418.950673 225.540433 
L 419.072423 250.328663 
L 419.285486 250.328663 
L 419.300705 229.322087 
L 419.392017 250.328663 
L 419.833362 250.328663 
L 419.955113 225.624142 
L 420.061644 225.624142 
L 420.183395 250.328663 
L 420.776927 250.328663 
L 420.898678 246.698384 
L 421.035647 246.698384 
L 421.157397 229.651625 
L 421.279148 246.698384 
L 421.416117 246.698384 
L 421.537867 250.328663 
L 422.055306 250.306488 
L 422.177056 249.290902 
L 422.481432 249.290902 
L 422.603182 229.324108 
L 422.648839 229.324108 
L 422.846683 252.868134 
L 423.227153 252.868134 
L 423.303247 219.391442 
L 423.333684 252.868134 
L 424.079405 252.871402 
L 424.14028 226.199273 
L 424.185937 252.871402 
L 424.383781 252.871402 
L 424.399 226.199273 
L 424.505531 229.786616 
L 424.52075 229.786616 
L 424.6425 232.354309 
L 425.266471 232.354309 
L 425.281689 231.32252 
L 425.40344 261.000308 
L 425.844785 261.000308 
L 425.966535 261.241673 
L 426.742693 261.241673 
L 426.864444 262.006728 
L 428.325448 262.006728 
L 428.447198 264.197712 
L 429.466857 264.197712 
L 429.588607 228.318198 
L 429.634264 228.318198 
L 429.756014 264.197712 
L 430.501735 264.197712 
L 430.623485 261.265658 
L 431.384424 261.265658 
L 431.506175 228.383538 
L 431.56705 228.383538 
L 431.840988 232.424866 
L 431.94752 232.424866 
L 432.06927 261.265658 
L 432.556271 261.265658 
L 432.678022 261.524306 
L 432.982397 261.524306 
L 433.104148 231.304732 
L 433.195461 231.304732 
L 433.317211 261.265658 
L 434.139026 261.265658 
L 434.260776 257.131341 
L 435.417404 257.131341 
L 435.539154 231.519001 
L 435.600029 231.519001 
L 435.72178 231.373836 
L 435.767436 231.373836 
L 435.889186 257.131341 
L 436.391407 257.131341 
L 436.513157 231.347104 
L 436.619688 231.347104 
L 436.741439 257.131341 
L 436.984939 257.131341 
L 437.10669 260.099788 
L 437.73066 260.099788 
L 437.85241 264.197712 
L 439.587353 264.197712 
L 439.709103 240.484463 
L 439.830853 244.177034 
L 439.922166 244.177034 
L 440.043916 246.744727 
L 440.059135 246.744727 
L 440.180885 264.197712 
L 444.122552 264.197712 
L 444.244302 248.267808 
L 444.807398 248.267808 
L 444.929148 264.197712 
L 445.081336 264.197712 
L 445.203086 248.267808 
L 445.218305 248.267808 
L 445.340055 264.197712 
L 445.598775 264.197712 
L 445.690088 259.098828 
L 445.720525 259.779413 
L 445.842276 259.779413 
L 445.964026 239.117575 
L 445.994463 239.117575 
L 446.116214 259.779413 
L 446.390152 259.779413 
L 446.511902 264.197712 
L 446.724965 264.197712 
L 446.740184 238.752275 
L 446.831497 264.197712 
L 447.04456 264.197712 
L 447.16631 259.320491 
L 447.42503 259.320491 
L 447.54678 247.262683 
L 448.064219 247.262683 
L 448.185969 259.320491 
L 448.42947 259.320491 
L 448.55122 264.197712 
L 448.779502 264.197712 
L 448.870815 236.184582 
L 448.886034 264.197712 
L 449.981787 264.197712 
L 450.103537 243.580268 
L 450.255725 243.580268 
L 450.377475 264.197712 
L 450.94057 264.197712 
L 451.047102 264.611822 
L 451.107977 239.117575 
L 451.153633 264.611822 
L 451.305821 264.611822 
L 451.32104 239.117575 
L 451.412353 261.271096 
L 452.08198 261.271096 
L 452.127636 264.611822 
L 452.188511 243.41896 
L 452.234168 264.611822 
L 453.192951 264.611822 
L 453.284264 247.640251 
L 453.299483 264.611822 
L 456.754148 264.617878 
L 456.875899 260.904924 
L 457.149837 260.904924 
L 457.271587 256.824855 
L 458.24559 256.824855 
L 458.36734 249.071242 
L 458.412997 249.071242 
L 458.534747 251.638935 
L 458.854341 251.638935 
L 458.976092 256.824855 
L 460.13272 256.824855 
L 460.25447 252.743456 
L 460.482752 252.743456 
L 460.604502 252.528034 
L 461.730693 252.528034 
L 461.852443 252.872816 
L 462.004631 252.872816 
L 462.126381 253.215646 
L 462.765571 253.215646 
L 462.887321 252.715346 
L 463.161259 252.651403 
L 463.28301 250.506369 
L 463.359103 250.506369 
L 463.480854 251.638935 
L 463.90698 251.638935 
L 464.02873 255.226279 
L 464.104824 255.226279 
L 464.226575 250.506369 
L 466.083267 250.506369 
L 466.098486 251.115257 
L 466.189799 250.506369 
L 466.41808 250.506369 
L 466.539831 251.115257 
L 466.737675 251.115257 
L 466.859425 250.506369 
L 467.376864 250.506369 
L 467.498614 251.434018 
L 468.381304 251.434018 
L 468.503055 251.929667 
L 469.111806 251.929667 
L 469.233557 252.415209 
L 469.355307 252.120695 
L 469.811871 252.120695 
L 469.933621 252.415209 
L 470.131465 252.415209 
L 470.253216 252.783289 
L 470.892405 252.783699 
L 471.014155 254.676249 
L 471.105468 254.676249 
L 471.166343 256.30006 
L 471.211999 254.676249 
L 471.348969 254.676249 
L 471.501156 260.581144 
L 471.516375 260.581144 
L 471.638126 260.234797 
L 472.018595 260.234797 
L 472.140346 260.004054 
L 472.399065 260.011209 
L 472.520815 256.424851 
L 472.779535 256.471769 
L 472.901285 256.286898 
L 473.46438 256.286898 
L 473.586131 253.715174 
L 474.316633 253.715174 
L 474.438383 250.454957 
L 475.214541 250.454957 
L 475.336292 253.715174 
L 476.888608 253.715174 
L 477.010359 253.254777 
L 477.451704 253.254777 
L 477.558235 250.565228 
L 477.679985 253.715174 
L 477.893048 253.715174 
L 478.014799 238.485143 
L 478.136549 253.715174 
L 478.440925 253.715174 
L 478.456144 230.964645 
L 478.547456 253.715174 
L 479.993242 253.715174 
L 480.069336 261.033647 
L 480.084554 246.839251 
L 480.251961 246.839251 
L 480.373711 242.786125 
L 480.419368 242.786125 
L 480.51068 242.474633 
L 480.525899 267.767216 
L 480.632431 264.044273 
L 480.738962 264.044208 
L 480.799837 264.51381 
L 480.921588 277.48418 
L 481.134651 277.48418 
L 481.256401 278.2819 
L 482.413029 278.2819 
L 482.53478 252.149262 
L 482.671749 252.149262 
L 482.793499 277.766028 
L 483.128312 277.766028 
L 483.250063 278.2819 
L 483.265282 278.2819 
L 483.341375 252.149262 
L 483.371813 278.2819 
L 484.224065 278.2819 
L 484.345816 275.714207 
L 484.513222 275.714207 
L 484.528441 251.977013 
L 484.619754 275.714207 
L 484.771942 275.714207 
L 484.893692 272.785145 
L 484.939348 272.785145 
L 484.969786 273.258581 
L 485.091536 255.600047 
L 485.532881 255.600047 
L 485.654632 269.967673 
L 485.685069 269.967673 
L 485.80682 273.258581 
L 488.348358 273.258581 
L 488.43967 269.358611 
L 488.454889 273.258581 
L 488.576639 273.258581 
L 488.637515 273.763455 
L 488.667952 264.92549 
L 488.744046 273.763455 
L 489.048422 273.763455 
L 489.170172 273.884359 
L 489.428892 273.884359 
L 489.550642 265.471908 
L 489.626736 265.471908 
L 489.748486 273.884359 
L 489.961549 273.884359 
L 490.0833 274.882344 
L 490.631176 274.882344 
L 490.752926 265.471908 
L 490.783364 265.471908 
L 490.905114 265.326813 
L 490.935552 265.326813 
L 491.057302 270.937373 
L 491.316022 270.937373 
L 491.437772 265.326813 
L 491.559522 265.326813 
L 491.681273 274.850317 
L 492.168274 274.850317 
L 492.290024 274.725735 
L 492.640057 274.725735 
L 492.761807 277.156087 
L 493.324902 277.156087 
L 493.446652 265.326813 
L 493.522746 265.326813 
L 493.644497 277.156087 
L 498.179696 277.156087 
L 498.301447 281.944509 
L 519.014221 281.944509 
L 519.135971 258.95489 
L 519.15119 258.95489 
L 519.242502 281.944509 
L 519.257721 258.95489 
L 519.333815 258.95489 
L 519.455565 281.944509 
L 525.603957 281.944509 
L 525.680051 260.390314 
L 525.725707 261.188969 
L 525.93877 261.188969 
L 526.060521 281.944509 
L 527.673712 281.944509 
L 527.795463 256.646265 
L 528.175932 256.646265 
L 528.297683 281.944509 
L 528.32812 281.944509 
L 528.449871 256.646265 
L 529.545624 256.646265 
L 529.667374 281.944509 
L 529.895656 281.944509 
L 530.017406 281.471073 
L 531.067503 281.471073 
L 531.189253 280.501722 
L 531.584942 280.501722 
L 531.706692 260.599496 
L 532.087162 260.599496 
L 532.208912 281.97642 
L 534.004729 281.97642 
L 534.12648 287.632778 
L 535.389639 287.632778 
L 535.51139 261.188969 
L 536.104922 261.188969 
L 536.226673 287.632778 
L 538.600804 287.632778 
L 538.722554 287.433769 
L 538.78343 287.433769 
L 538.90518 250.495892 
L 539.011711 250.495892 
L 539.133462 256.41326 
L 539.239993 256.41326 
L 539.361744 287.433769 
L 547.138546 287.433769 
L 547.260296 287.70625 
L 547.595109 287.70625 
L 547.71686 290.273943 
L 548.538674 290.273943 
L 548.660425 290.491176 
L 550.638867 290.491176 
L 550.745399 255.969552 
L 550.760618 255.989498 
L 550.85193 255.989498 
L 550.973681 290.491176 
L 552.830373 290.491176 
L 552.952124 256.559156 
L 552.99778 256.559156 
L 553.11953 290.491176 
L 553.226062 290.491176 
L 553.347812 256.559156 
L 553.469562 290.491176 
L 554.808816 290.491176 
L 554.930566 291.63824 
L 556.26982 291.63824 
L 556.39157 291.408666 
L 559.815798 291.408666 
L 559.937548 290.758451 
L 560.759363 290.758451 
L 560.881113 290.906964 
L 564.046622 290.906964 
L 564.168372 290.261107 
L 565.385875 290.261107 
L 565.507626 286.622277 
L 565.842439 286.622277 
L 565.964189 290.261107 
L 569.540605 290.261107 
L 569.662356 253.217649 
L 569.951513 253.217649 
L 570.073263 290.261107 
L 570.225451 290.261107 
L 570.347201 285.859037 
L 570.468951 290.758451 
L 570.529827 290.758451 
L 570.651577 291.408666 
L 572.051706 291.408666 
L 572.173456 290.758451 
L 574.197555 290.758451 
L 574.319305 290.261107 
L 574.730213 290.261107 
L 574.851963 286.568029 
L 576.678218 286.568029 
L 576.799968 290.261107 
L 576.997813 290.261107 
L 577.119563 286.535131 
L 579.082787 286.535131 
L 579.204537 290.261107 
L 580.969917 290.261107 
L 581.091667 291.302271 
L 585.505117 291.302271 
L 585.626867 291.571962 
L 586.250837 291.571962 
L 586.372588 253.256607 
L 586.433463 253.256607 
L 586.555213 289.580072 
L 586.707401 289.580072 
L 586.829151 253.256607 
L 587.179184 253.256607 
L 587.300934 252.889968 
L 587.696622 252.889968 
L 587.818373 292.275062 
L 588.488 292.275062 
L 588.60975 291.816818 
L 589.248939 291.816818 
L 589.370689 291.336013 
L 589.568534 291.336013 
L 589.598971 252.832011 
L 589.675065 291.336013 
L 591.014319 291.372302 
L 591.136069 293.463748 
L 592.170947 293.463748 
L 592.292697 298.019153 
L 592.642729 298.019153 
L 592.76448 249.403246 
L 592.855792 249.403246 
L 592.88623 244.796589 
L 592.977543 245.292225 
L 592.992762 245.292225 
L 593.114512 298.019153 
L 595.793019 298.019153 
L 595.929988 292.225635 
L 596.264802 292.225635 
L 596.386552 294.010082 
L 596.493083 294.010082 
L 596.614834 290.696634 
L 597.451867 290.696634 
L 597.573617 289.63198 
L 598.897652 289.63198 
L 599.019403 294.148679 
L 599.658592 294.148679 
L 599.780342 253.79085 
L 599.856436 253.79085 
L 599.978186 294.148679 
L 600.145593 294.148679 
L 600.267343 288.52606 
L 600.754345 288.52606 
L 600.876095 253.79085 
L 601.089158 253.79085 
L 601.210908 294.148679 
L 602.230567 294.148679 
L 602.352318 295.091997 
L 602.808881 295.091997 
L 602.930632 298.6013 
L 607.024486 298.6013 
L 607.146237 294.652495 
L 607.23755 294.652495 
L 607.3593 297.491862 
L 610.555246 297.491862 
L 610.676996 294.692264 
L 611.803187 294.692264 
L 611.924937 253.597704 
L 612.092344 253.597704 
L 612.214094 297.491862 
L 613.994693 297.491862 
L 614.116443 298.6013 
L 614.451256 298.6013 
L 614.573007 293.913185 
L 614.78607 293.913185 
L 614.801288 253.831358 
L 614.892601 293.913185 
L 616.749294 293.913185 
L 616.871044 290.35007 
L 616.9167 290.35007 
L 617.038451 293.913185 
L 618.316829 293.913185 
L 618.438579 289.802164 
L 618.727736 289.802164 
L 618.879924 295.469173 
L 619.275613 295.469173 
L 619.397363 291.851365 
L 619.44302 291.851365 
L 619.56477 295.469173 
L 620.18874 295.469173 
L 620.310491 253.831358 
L 620.340928 253.831358 
L 620.462679 295.469173 
L 620.477897 295.469173 
L 620.599648 296.782301 
L 620.934461 296.782301 
L 621.056211 300.401802 
L 622.33459 300.401802 
L 622.45634 297.110284 
L 622.806372 297.110284 
L 622.928123 299.689159 
L 623.430343 299.689159 
L 623.552093 299.928854 
L 624.586971 299.928854 
L 624.708721 300.097433 
L 624.72394 300.097433 
L 624.84569 299.928854 
L 625.469661 299.928854 
L 625.591411 300.439556 
L 626.854571 300.439556 
L 626.976321 300.152744 
L 628.787357 300.152744 
L 628.909107 302.747502 
L 633.429088 302.736473 
L 633.505182 256.349558 
L 633.53562 302.736473 
L 635.727125 302.736473 
L 635.848876 253.597308 
L 635.909751 253.597308 
L 636.031501 302.736473 
L 637.781662 302.736473 
L 637.903413 302.319488 
L 654.628863 302.319488 
L 654.750614 252.30625 
L 654.887583 252.30625 
L 655.009333 302.319488 
L 660.122847 302.319488 
L 660.244597 302.736473 
L 662.953542 302.766865 
L 663.075292 304.322332 
L 665.23636 304.322332 
L 665.358111 302.766865 
L 665.571174 302.766865 
L 665.692924 304.322332 
L 671.004282 304.322332 
L 671.126032 249.332098 
L 671.521721 249.332098 
L 671.643471 304.322332 
L 673.089256 304.322332 
L 673.211007 259.417899 
L 673.226225 259.417899 
L 673.347976 304.322332 
L 675.037261 304.322332 
L 675.098137 300.081607 
L 675.143793 304.302969 
L 675.661232 304.302969 
L 675.782982 300.554687 
L 678.187551 300.554687 
L 678.309301 304.322332 
L 678.370177 304.322332 
L 678.491927 259.448187 
L 678.796303 259.448187 
L 678.918053 278.857873 
L 678.994147 278.857873 
L 679.115897 259.448187 
L 679.191991 259.448187 
L 679.252866 303.874954 
L 679.298523 259.448187 
L 679.405054 259.448187 
L 679.526805 303.874954 
L 685.051226 303.765796 
L 685.112101 274.779103 
L 685.157757 303.765796 
L 685.903478 303.765796 
L 686.025228 304.322332 
L 689.966895 304.274872 
L 690.088645 299.477803 
L 690.103864 299.477803 
L 690.225614 304.274872 
L 697.058851 304.274872 
L 697.07407 299.70476 
L 697.089289 304.355024 
L 697.165383 304.355024 
L 697.728478 304.355024 
L 697.850229 272.58344 
L 697.865447 272.58344 
L 697.987198 304.355024 
L 703.283337 304.302969 
L 703.405087 303.861437 
L 703.526837 303.861437 
L 703.648588 264.685261 
L 703.846432 264.685261 
L 703.968182 303.861437 
L 707.666348 303.765796 
L 707.788099 300.153743 
L 707.864193 300.153743 
L 707.985943 300.595102 
L 708.838195 300.595102 
L 708.959946 304.274872 
L 712.384174 304.274872 
L 712.505924 272.21141 
L 712.627674 272.21141 
L 712.749425 299.673638 
L 714.408273 299.690764 
L 714.530023 304.29194 
L 719.09566 304.302969 
L 719.217411 303.861437 
L 719.369598 303.861437 
L 719.491349 304.302969 
L 720.830602 304.302969 
L 720.952353 288.356979 
L 721.348041 288.356979 
L 721.469792 264.315473 
L 721.606761 264.315473 
L 721.728511 304.302969 
L 722.778608 304.274872 
L 722.900358 303.921281 
L 723.067765 303.921281 
L 723.189515 287.752223 
L 723.950454 287.752223 
L 724.072205 303.921281 
L 727.511651 303.861437 
L 727.633402 304.302969 
L 727.952996 304.302969 
L 728.074747 292.433567 
L 728.363904 292.386579 
L 728.485654 304.302969 
L 731.498975 304.322332 
L 731.620725 302.347907 
L 734.801452 302.347907 
L 734.923202 302.769567 
L 736.140706 302.769567 
L 736.262456 304.684255 
L 738.058273 304.648229 
L 738.180024 259.031406 
L 738.60615 259.031406 
L 738.7279 304.648229 
L 742.730442 304.664187 
L 742.852192 288.698752 
L 743.034818 288.698752 
L 743.156568 304.664187 
L 744.739322 304.664187 
L 744.861073 304.222654 
L 747.463486 304.222654 
L 747.585236 251.382044 
L 748.346176 251.382044 
L 748.467926 278.725298 
L 748.787521 278.725298 
L 748.833177 304.222654 
L 748.909271 300.52118 
L 749.015802 300.52118 
L 749.137553 304.222654 
L 749.502804 304.222654 
L 749.624554 304.094806 
L 750.492025 304.094806 
L 750.613775 304.664187 
L 751.496465 304.664187 
L 751.618216 284.884116 
L 751.663872 284.884116 
L 751.770404 304.664187 
L 751.785622 300.927415 
L 752.379155 300.927415 
L 752.500905 304.653157 
L 752.850938 304.653157 
L 752.972688 304.236172 
L 753.764065 304.236172 
L 753.885815 281.94805 
L 754.022785 281.94805 
L 754.144535 304.236172 
L 754.296723 304.236172 
L 754.32716 284.884116 
L 754.403254 304.236172 
L 754.677193 304.236172 
L 754.798943 284.884116 
L 754.920693 304.236172 
L 755.20985 304.236172 
L 755.225069 284.503604 
L 755.316382 304.236172 
L 757.112199 304.236172 
L 757.188293 284.503604 
L 757.233949 287.058808 
L 757.431794 287.058808 
L 757.629638 304.236172 
L 758.451453 304.236172 
L 758.573203 284.884116 
L 758.588422 284.884116 
L 758.710172 298.901293 
L 760.064644 298.865094 
L 760.140738 289.626501 
L 760.171176 298.865094 
L 760.734271 298.865094 
L 760.856022 299.269603 
L 761.160397 299.269603 
L 761.282148 280.92156 
L 761.312585 280.92156 
L 761.434336 299.269603 
L 762.073525 299.269603 
L 762.195275 280.92156 
L 762.773589 280.92156 
L 762.895339 300.143152 
L 763.001871 300.143152 
L 763.123621 280.92156 
L 763.291028 280.92156 
L 763.412778 300.172823 
L 763.534529 293.314328 
L 763.671498 293.314328 
L 763.793248 300.610811 
L 764.90422 300.610811 
L 765.02597 293.314328 
L 765.741253 293.314328 
L 765.863004 283.015004 
L 765.923879 283.015004 
L 766.045629 300.610811 
L 769.576389 300.610811 
L 769.622045 280.728416 
L 769.68292 289.203307 
L 769.880764 289.203307 
L 769.926421 285.092286 
L 769.987296 289.203307 
L 770.459078 289.203307 
L 770.580829 293.314328 
L 770.626485 293.314328 
L 770.748235 299.276329 
L 774.796434 299.254871 
L 774.918184 293.314328 
L 775.161685 293.314328 
L 775.283435 299.254871 
L 776.166125 299.297798 
L 776.287875 299.655182 
L 777.277097 299.655182 
L 777.398847 298.567437 
L 778.372849 298.567437 
L 778.4946 300.143227 
L 783.105893 300.159625 
L 783.227644 284.884116 
L 783.242862 284.884116 
L 783.364613 300.159625 
L 784.795179 300.159625 
L 784.840835 294.379836 
L 784.901711 300.159625 
L 786.027901 300.159625 
L 786.149651 291.824632 
L 786.408371 291.824632 
L 786.530121 284.884116 
L 786.758403 284.884116 
L 786.880153 291.824632 
L 786.986685 291.824632 
L 787.04756 299.230489 
L 787.108435 299.072845 
L 787.412811 299.072845 
L 787.534561 299.230489 
L 788.173751 299.230489 
L 788.249845 289.815161 
L 788.295501 293.452746 
L 788.462908 293.452746 
L 788.584658 296.020439 
L 788.706408 296.020439 
L 788.828159 299.230489 
L 789.147753 299.230489 
L 789.269504 298.874389 
L 789.43691 298.874389 
L 789.558661 296.020439 
L 789.604317 296.020439 
L 789.680411 298.874389 
L 789.726067 298.682785 
L 790.304381 298.682785 
L 790.350038 278.636831 
L 790.410913 298.682785 
L 791.08054 298.682785 
L 791.20229 282.44968 
L 791.293603 282.44968 
L 791.415353 298.682785 
L 791.461009 298.682785 
L 791.58276 280.257223 
L 792.267605 280.257223 
L 792.389356 276.619638 
L 792.480668 276.619638 
L 792.602419 281.903381 
L 792.693731 281.903381 
L 792.815482 298.682785 
L 794.519986 298.682785 
L 794.565643 288.140154 
L 794.626518 298.682785 
L 794.915675 298.682785 
L 795.037425 298.874389 
L 795.783146 298.874389 
L 795.904896 276.619638 
L 796.026647 276.619638 
L 796.148397 298.874389 
L 797.122399 298.874389 
L 797.152837 277.090831 
L 797.228931 298.874389 
L 798.583403 298.874389 
L 798.705154 299.072845 
L 802.114163 299.072845 
L 802.235913 278.928928 
L 802.418539 278.928928 
L 802.464195 276.619638 
L 802.52507 283.058984 
L 802.616383 276.619638 
L 802.64682 278.947963 
L 802.677258 278.947963 
L 802.722914 276.619638 
L 802.738133 283.058984 
L 802.753352 283.058984 
L 803.559948 283.058984 
L 803.681698 298.612775 
L 803.970855 298.612775 
L 804.092606 299.939583 
L 806.573268 299.939583 
L 806.695019 276.619638 
L 807.151582 276.619638 
L 807.273333 302.507276 
L 807.94296 302.507276 
L 808.06471 276.619638 
L 808.110366 276.619638 
L 808.232117 302.507276 
L 808.338648 302.507276 
L 808.460398 302.040121 
L 811.230218 302.040121 
L 811.33675 288.238196 
L 811.4585 302.040121 
L 811.732438 302.040121 
L 811.854189 297.1629 
L 812.249877 297.1629 
L 812.371628 277.920426 
L 813.330411 277.920426 
L 813.452162 302.040121 
L 813.634787 302.040121 
L 813.710881 277.920426 
L 813.741319 302.040121 
L 813.908725 302.040121 
L 814.000038 277.920426 
L 814.015257 302.040121 
L 816.587233 302.040121 
L 816.61767 285.696827 
L 816.693764 302.040121 
L 816.952484 302.040121 
L 817.043796 288.252381 
L 817.059015 302.040121 
L 817.804736 302.040121 
L 817.926486 287.734266 
L 817.956924 287.734266 
L 818.078674 302.040121 
L 820.376711 302.040121 
L 820.498462 301.018896 
L 820.696306 301.018896 
L 820.818056 278.419435 
L 821.183307 278.419435 
L 821.305058 301.018896 
L 821.472464 301.018896 
L 821.594215 303.294564 
L 822.202966 303.294564 
L 822.324717 302.21626 
L 823.679189 302.21626 
L 823.709627 280.936986 
L 823.800939 285.048007 
L 823.983565 285.048007 
L 824.105315 302.21626 
L 826.662072 302.21626 
L 826.783822 282.463383 
L 826.905573 302.21626 
L 827.392574 302.21626 
L 827.514324 298.829706 
L 828.686171 298.829706 
L 828.807921 282.463383 
L 829.142735 282.463383 
L 829.264485 298.829706 
L 831.836461 298.829706 
L 831.958211 302.21626 
L 832.125618 302.21626 
L 832.247368 293.358901 
L 832.399556 293.358901 
L 832.521306 302.21626 
L 833.053964 302.21626 
L 833.09962 280.013531 
L 833.160496 301.501292 
L 835.230251 301.501292 
L 835.275907 292.867767 
L 835.336783 301.501292 
L 835.656377 301.501292 
L 835.778127 276.305751 
L 836.341223 276.305751 
L 836.462973 301.501292 
L 837.3761 301.501292 
L 837.497851 293.935203 
L 837.619601 293.935203 
L 837.741351 297.572788 
L 837.832664 297.572788 
L 837.923977 301.501292 
L 837.939196 297.572788 
L 838.502291 297.572788 
L 838.624041 280.013531 
L 838.974074 280.013531 
L 839.095824 301.34644 
L 839.491512 301.34644 
L 839.613263 297.572788 
L 839.780669 297.572788 
L 839.90242 301.34644 
L 841.880863 301.34644 
L 842.002613 303.294564 
L 843.981056 303.294564 
L 844.102806 299.535013 
L 844.133244 299.535013 
L 844.254994 303.294564 
L 844.80287 303.294564 
L 844.924621 280.411613 
L 845.868186 280.411613 
L 845.989936 303.294564 
L 847.603128 303.294564 
L 847.724878 280.411613 
L 847.861847 280.411613 
L 847.983598 303.294564 
L 848.318411 303.294564 
L 848.440161 300.647129 
L 848.972819 300.647129 
L 849.094569 303.294564 
L 849.353289 303.294564 
L 849.475039 302.853379 
L 850.586011 302.821128 
L 850.692542 300.647129 
L 850.814293 302.821128 
L 850.981699 302.821128 
L 851.10345 300.647129 
L 851.2252 300.647129 
L 851.34695 302.821128 
L 854.086333 302.821128 
L 854.208083 282.979306 
L 854.314614 282.979306 
L 854.436365 302.821128 
L 854.984241 302.821128 
L 855.105992 300.129014 
L 855.273398 300.129014 
L 855.395149 302.821128 
L 855.456024 302.821128 
L 855.562555 295.94767 
L 855.684306 303.294564 
L 855.714743 303.294564 
L 855.836493 300.726871 
L 856.110432 300.726871 
L 856.232182 282.979306 
L 856.50612 282.979306 
L 856.612652 300.726871 
L 856.734402 282.979306 
L 856.856152 282.979306 
L 856.977903 300.726871 
L 857.343154 300.726871 
L 857.464904 307.8 
L 857.586654 300.726871 
L 857.784499 300.726871 
L 857.875811 282.979306 
L 857.89103 300.726871 
L 858.971564 300.726871 
L 859.093315 294.999899 
L 859.869473 294.999899 
L 859.991223 301.876268 
L 860.341255 301.876268 
L 860.386912 282.979306 
L 860.447787 301.876268 
L 861.132633 301.876268 
L 861.193508 300.726871 
L 861.208727 304.364456 
L 862.54798 304.364456 
L 862.66973 282.979306 
L 862.821918 282.979306 
L 862.943669 300.590064 
L 863.187169 300.590064 
L 863.30892 304.894087 
L 863.613295 304.894087 
L 863.735046 304.364456 
L 864.343797 304.364456 
L 864.465548 300.590064 
L 864.785142 300.590064 
L 864.906893 304.364456 
L 865.424332 304.364456 
L 865.546082 300.285686 
L 865.622176 300.285686 
L 865.728707 305.259618 
L 865.850458 300.590064 
L 866.017864 300.590064 
L 866.139615 300.285686 
L 867.463649 300.285686 
L 867.5854 304.952479 
L 867.676713 304.952479 
L 867.798463 300.285686 
L 867.996307 300.285686 
L 868.102839 304.952479 
L 868.224589 300.285686 
L 868.452871 300.285686 
L 868.574621 282.979306 
L 868.696371 300.285686 
L 869.09206 300.285686 
L 869.122498 284.2879 
L 869.198592 300.285686 
L 870.0965 300.285686 
L 870.218251 298.850722 
L 870.85744 298.850722 
L 870.97919 300.940151 
L 871.055284 300.940151 
L 871.177034 298.850722 
L 871.314003 298.850722 
L 871.435754 300.940151 
L 871.953193 300.940151 
L 871.98363 304.364456 
L 871.998849 298.850722 
L 872.044505 298.850722 
L 872.24235 298.850722 
L 872.3641 304.364456 
L 873.429415 304.364456 
L 873.444634 298.850722 
L 873.535947 304.364456 
L 874.007729 304.364456 
L 874.12948 298.850722 
L 874.540387 298.850722 
L 874.662137 304.364456 
L 875.712234 304.364456 
L 875.75789 298.205435 
L 875.833984 299.223642 
L 876.64058 299.223642 
L 876.76233 298.205435 
L 876.8993 298.205435 
L 877.02105 299.223642 
L 877.234113 299.223642 
L 877.355863 304.364456 
L 877.888521 304.364456 
L 878.010271 284.2879 
L 878.360304 284.2879 
L 878.482054 298.850722 
L 878.512491 298.850722 
L 878.634242 284.2879 
L 878.664679 284.2879 
L 878.78643 302.098992 
L 879.182118 302.098992 
L 879.303869 304.620478 
L 879.729995 304.620478 
L 879.851745 280.619895 
L 879.988714 280.619895 
L 880.110464 299.531299 
L 881.358405 299.531299 
L 881.480156 304.620478 
L 881.784531 304.620478 
L 881.906282 299.531299 
L 881.982376 299.531299 
L 882.088907 304.620478 
L 882.134564 299.531299 
L 882.195439 304.620478 
L 882.80419 304.620478 
L 882.925941 300.507446 
L 883.215098 300.507446 
L 883.336848 304.620478 
L 884.158663 304.620478 
L 884.234757 298.850722 
L 884.265194 304.620478 
L 885.893605 304.620478 
L 886.015355 302.42177 
L 886.791513 302.42177 
L 886.913264 297.864443 
L 887.019795 297.864443 
L 887.141546 302.42177 
L 887.156764 302.42177 
L 887.278515 298.850722 
L 887.598109 298.850722 
L 887.71986 302.42177 
L 888.009017 302.42177 
L 888.130767 300.112242 
L 888.237299 300.112242 
L 888.359049 302.31095 
L 888.46558 302.31095 
L 888.587331 284.2879 
L 888.861269 284.2879 
L 888.891707 302.31095 
L 888.967801 284.2879 
L 889.10477 284.2879 
L 889.150426 302.31095 
L 889.22652 301.407909 
L 889.500458 301.407909 
L 889.713521 282.875469 
L 890.200523 282.875469 
L 890.322273 301.639633 
L 890.870149 301.639633 
L 890.9919 297.864443 
L 891.418026 297.864443 
L 891.539776 298.205435 
L 892.057215 298.205435 
L 892.178965 297.864443 
L 892.239841 297.864443 
L 892.361591 301.016961 
L 892.559435 301.016961 
L 892.681185 302.620785 
L 892.711623 302.620785 
L 892.833373 301.016961 
L 893.289937 301.016961 
L 893.411687 306.138403 
L 893.472563 306.138403 
L 893.533438 301.016961 
L 893.579094 306.138403 
L 894.537878 306.138403 
L 894.659628 305.481728 
L 894.933566 305.481728 
L 895.055317 305.312105 
L 895.603193 305.312105 
L 895.724944 301.041879 
L 895.740162 301.041879 
L 895.861913 298.79515 
L 896.029319 298.79515 
L 896.120632 282.875469 
L 896.135851 298.79515 
L 896.211945 298.79515 
L 896.333695 299.338909 
L 896.409789 296.13974 
L 896.425008 301.016961 
L 896.470664 301.016961 
L 896.561977 299.338909 
L 896.577196 301.016961 
L 899.088296 301.041879 
L 899.103515 298.79515 
L 899.194828 301.041879 
L 899.377453 301.041879 
L 899.499204 298.79515 
L 899.864455 298.79515 
L 899.970986 304.654546 
L 900.062299 298.79515 
L 900.077518 304.654546 
L 900.123174 304.654546 
L 900.244924 298.79515 
L 900.366675 305.312105 
L 900.503644 305.312105 
L 900.625394 304.654546 
L 901.005864 304.654546 
L 901.127614 305.312105 
L 901.629834 305.312105 
L 901.751585 302.686809 
L 902.147273 302.686809 
L 902.269023 304.654546 
L 902.329899 304.654546 
L 902.421211 302.686809 
L 902.43643 303.324626 
L 902.558181 303.69445 
L 902.634274 303.69445 
L 902.756025 307.799372 
L 902.892994 307.799372 
L 903.014744 298.296489 
L 903.029963 298.296489 
L 903.151713 307.799372 
L 903.273464 304.654546 
L 903.486527 304.654546 
L 903.608277 298.296489 
L 903.638715 298.296489 
L 903.760465 282.875469 
L 903.897434 282.875469 
L 904.019184 298.296489 
L 904.70403 298.296489 
L 904.810562 307.799372 
L 904.932312 304.86095 
L 905.343219 304.86095 
L 905.46497 298.467446 
L 905.601939 298.467446 
L 905.723689 304.86095 
L 905.769345 304.86095 
L 905.83022 298.467446 
L 905.875877 304.86095 
L 906.012846 304.86095 
L 906.134596 298.467446 
L 906.46941 298.467446 
L 906.59116 282.875469 
L 906.606379 282.875469 
L 906.728129 304.86095 
L 907.778226 304.86095 
L 907.899976 295.110442 
L 907.945632 295.110442 
L 908.067383 298.79515 
L 908.128258 298.79515 
L 908.250008 294.173349 
L 908.386977 294.173349 
L 908.523946 304.654546 
L 908.60004 304.654546 
L 908.721791 298.79515 
L 908.889197 298.79515 
L 909.010948 304.654546 
L 909.543605 304.654546 
L 909.665356 298.79515 
L 910.913297 298.79515 
L 911.035047 307.799372 
L 911.522048 307.799372 
L 911.582923 298.79515 
L 911.62858 307.799372 
L 911.902518 307.799372 
L 911.948174 283.367941 
L 912.009049 307.799372 
L 912.343863 307.799372 
L 912.465613 283.367941 
L 912.526488 283.367941 
L 912.648239 299.624508 
L 912.693895 299.624508 
L 912.815645 307.799372 
L 913.272209 307.799372 
L 913.333084 297.428713 
L 913.378741 307.799372 
L 915.281089 307.799372 
L 915.341965 303.852778 
L 915.387621 307.799372 
L 915.478934 307.799372 
L 915.600684 297.428713 
L 915.844185 297.428713 
L 915.965935 300.543525 
L 915.996373 300.543525 
L 916.118123 297.847802 
L 916.163779 297.847802 
L 916.209436 300.543525 
L 916.270311 297.847802 
L 916.711656 297.847802 
L 916.78775 307.799372 
L 916.802968 297.391007 
L 916.818187 297.391007 
L 916.833406 297.391007 
L 916.955156 306.105584 
L 917.03125 306.105584 
L 917.153001 297.847802 
L 918.127003 297.847802 
L 918.248754 306.105584 
L 918.309629 306.105584 
L 918.431379 297.847802 
L 918.583567 297.847802 
L 918.705317 306.105584 
L 918.750974 306.105584 
L 918.79663 297.391007 
L 918.857505 306.105584 
L 919.131443 306.105584 
L 919.253194 297.391007 
L 919.846727 297.391007 
L 919.968477 306.105584 
L 920.044571 306.105584 
L 920.166321 297.391007 
L 920.56201 297.391007 
L 920.68376 306.105584 
L 920.912042 306.105584 
L 921.033792 298.850722 
L 921.079449 298.850722 
L 921.201199 306.105584 
L 921.322949 298.850722 
L 921.429481 298.850722 
L 921.551231 306.105584 
L 921.840388 306.105584 
L 921.962138 302.572287 
L 922.038232 302.572287 
L 922.159983 306.105584 
L 923.423142 306.105584 
L 923.544893 298.850722 
L 923.590549 298.850722 
L 923.712299 307.343921 
L 925.568992 307.343921 
L 925.629867 298.850722 
L 925.675523 307.343921 
L 926.299494 307.343921 
L 926.421244 303.767503 
L 926.436463 303.767503 
L 926.4669 281.285261 
L 926.527776 307.343921 
L 926.542994 307.343921 
L 927.836592 307.343921 
L 927.958342 297.913138 
L 928.080092 307.343921 
L 928.11053 307.343921 
L 928.217061 297.913138 
L 928.338812 307.343921 
L 928.460562 307.343921 
L 928.582312 297.368172 
L 928.962782 297.368172 
L 929.084532 298.850722 
L 929.465002 298.850722 
L 929.525877 297.181689 
L 929.571534 298.850722 
L 929.73894 298.850722 
L 929.860691 297.181689 
L 930.073754 297.181689 
L 930.195504 298.850722 
L 930.62163 298.850722 
L 930.743381 307.343921 
L 933.056637 307.343921 
L 933.14795 301.29271 
L 933.163168 307.343921 
L 933.284919 307.343921 
L 933.406669 298.850722 
L 933.787139 298.850722 
L 933.908889 307.343921 
L 933.954545 307.343921 
L 933.954545 307.343921 
" clip-path="url(#p97b7341dd6)" style="fill: none; stroke: #3182bd; stroke-width: 1.5; stroke-linecap: square"/>
   </g>
   <g id="patch_3">
    <path d="M 135 301.450961 
L 135 58.425405 
" style="fill: none; stroke: #000000; stroke-width: 0.8; stroke-linejoin: miter; stroke-linecap: square"/>
   </g>
   <g id="patch_4">
    <path d="M 173.030236 320.4 
L 933.969764 320.4 
" style="fill: none; stroke: #000000; stroke-width: 0.8; stroke-linejoin: miter; stroke-linecap: square"/>
   </g>
  </g>
 </g>
 <defs>
  <clipPath id="p97b7341dd6">
   <rect x="135" y="43.2" width="837" height="277.2"/>
  </clipPath>
 </defs>
</svg>
