<?xml version="1.0" encoding="utf-8" standalone="no"?>
<!DOCTYPE svg PUBLIC "-//W3C//DTD SVG 1.1//EN"
  "http://www.w3.org/Graphics/SVG/1.1/DTD/svg11.dtd">
<svg xmlns:xlink="http://www.w3.org/1999/xlink" width="453.543307pt" height="453.543307pt" viewBox="0 0 453.543307 453.543307" xmlns="http://www.w3.org/2000/svg" version="1.1">
 <metadata>
  <rdf:RDF xmlns:dc="http://purl.org/dc/elements/1.1/" xmlns:cc="http://creativecommons.org/ns#" xmlns:rdf="http://www.w3.org/1999/02/22-rdf-syntax-ns#">
   <cc:Work>
    <dc:type rdf:resource="http://purl.org/dc/dcmitype/StillImage"/>
    <dc:date>2025-07-18T14:55:13.414006</dc:date>
    <dc:format>image/svg+xml</dc:format>
    <dc:creator>
     <cc:Agent>
      <dc:title>Matplotlib v3.10.3, https://matplotlib.org/</dc:title>
     </cc:Agent>
    </dc:creator>
   </cc:Work>
  </rdf:RDF>
 </metadata>
 <defs>
  <style type="text/css">*{stroke-linejoin: round; stroke-linecap: butt}</style>
 </defs>
 <g id="figure_1">
  <g id="patch_1">
   <path d="M 0 453.543307 
L 453.543307 453.543307 
L 453.543307 0 
L 0 0 
z
" style="fill: #ffffff"/>
  </g>
  <g id="axes_1">
   <g id="patch_2">
    <path d="M 56.692913 403.653543 
L 408.188976 403.653543 
L 408.188976 54.425197 
L 56.692913 54.425197 
z
" style="fill: #ffffff"/>
   </g>
   <g id="matplotlib.axis_1">
    <g id="xtick_1">
     <g id="line2d_1">
      <defs>
       <path id="mc554db3617" d="M 0 0 
L 0 6 
" style="stroke: #262626; stroke-width: 1.25"/>
      </defs>
      <g>
       <use xlink:href="#mc554db3617" x="64.86724" y="403.653543" style="fill: #262626; stroke: #262626; stroke-width: 1.25"/>
      </g>
     </g>
     <g id="text_1">
      <!-- 0 -->
      <g style="fill: #262626" transform="translate(60.41349 423.791356) scale(0.14 -0.14)">
       <defs>
        <path id="DejaVuSans-30" d="M 2034 4250 
Q 1547 4250 1301 3770 
Q 1056 3291 1056 2328 
Q 1056 1369 1301 889 
Q 1547 409 2034 409 
Q 2525 409 2770 889 
Q 3016 1369 3016 2328 
Q 3016 3291 2770 3770 
Q 2525 4250 2034 4250 
z
M 2034 4750 
Q 2819 4750 3233 4129 
Q 3647 3509 3647 2328 
Q 3647 1150 3233 529 
Q 2819 -91 2034 -91 
Q 1250 -91 836 529 
Q 422 1150 422 2328 
Q 422 3509 836 4129 
Q 1250 4750 2034 4750 
z
" transform="scale(0.015625)"/>
       </defs>
       <use xlink:href="#DejaVuSans-30"/>
      </g>
     </g>
    </g>
    <g id="xtick_2">
     <g id="line2d_2">
      <g>
       <use xlink:href="#mc554db3617" x="228.353781" y="403.653543" style="fill: #262626; stroke: #262626; stroke-width: 1.25"/>
      </g>
     </g>
     <g id="text_2">
      <!-- 2 -->
      <g style="fill: #262626" transform="translate(223.900031 423.791356) scale(0.14 -0.14)">
       <defs>
        <path id="DejaVuSans-32" d="M 1228 531 
L 3431 531 
L 3431 0 
L 469 0 
L 469 531 
Q 828 903 1448 1529 
Q 2069 2156 2228 2338 
Q 2531 2678 2651 2914 
Q 2772 3150 2772 3378 
Q 2772 3750 2511 3984 
Q 2250 4219 1831 4219 
Q 1534 4219 1204 4116 
Q 875 4013 500 3803 
L 500 4441 
Q 881 4594 1212 4672 
Q 1544 4750 1819 4750 
Q 2544 4750 2975 4387 
Q 3406 4025 3406 3419 
Q 3406 3131 3298 2873 
Q 3191 2616 2906 2266 
Q 2828 2175 2409 1742 
Q 1991 1309 1228 531 
z
" transform="scale(0.015625)"/>
       </defs>
       <use xlink:href="#DejaVuSans-32"/>
      </g>
     </g>
    </g>
    <g id="xtick_3">
     <g id="line2d_3">
      <g>
       <use xlink:href="#mc554db3617" x="391.840322" y="403.653543" style="fill: #262626; stroke: #262626; stroke-width: 1.25"/>
      </g>
     </g>
     <g id="text_3">
      <!-- 4 -->
      <g style="fill: #262626" transform="translate(387.386572 423.791356) scale(0.14 -0.14)">
       <defs>
        <path id="DejaVuSans-34" d="M 2419 4116 
L 825 1625 
L 2419 1625 
L 2419 4116 
z
M 2253 4666 
L 3047 4666 
L 3047 1625 
L 3713 1625 
L 3713 1100 
L 3047 1100 
L 3047 0 
L 2419 0 
L 2419 1100 
L 313 1100 
L 313 1709 
L 2253 4666 
z
" transform="scale(0.015625)"/>
       </defs>
       <use xlink:href="#DejaVuSans-34"/>
      </g>
     </g>
    </g>
    <g id="text_4">
     <!-- x -->
     <g style="fill: #262626" transform="translate(227.705945 442.860418) scale(0.16 -0.16)">
      <defs>
       <path id="DejaVuSans-78" d="M 3513 3500 
L 2247 1797 
L 3578 0 
L 2900 0 
L 1881 1375 
L 863 0 
L 184 0 
L 1544 1831 
L 300 3500 
L 978 3500 
L 1906 2253 
L 2834 3500 
L 3513 3500 
z
" transform="scale(0.015625)"/>
      </defs>
      <use xlink:href="#DejaVuSans-78"/>
     </g>
    </g>
   </g>
   <g id="matplotlib.axis_2">
    <g id="ytick_1">
     <g id="line2d_4">
      <defs>
       <path id="mf8da5e5b79" d="M 0 0 
L -6 0 
" style="stroke: #262626; stroke-width: 1.25"/>
      </defs>
      <g>
       <use xlink:href="#mf8da5e5b79" x="56.692913" y="390.221684" style="fill: #262626; stroke: #262626; stroke-width: 1.25"/>
      </g>
     </g>
     <g id="text_5">
      <!-- 0 -->
      <g style="fill: #262626" transform="translate(38.285413 395.54059) scale(0.14 -0.14)">
       <use xlink:href="#DejaVuSans-30"/>
      </g>
     </g>
    </g>
    <g id="ytick_2">
     <g id="line2d_5">
      <g>
       <use xlink:href="#mf8da5e5b79" x="56.692913" y="255.903089" style="fill: #262626; stroke: #262626; stroke-width: 1.25"/>
      </g>
     </g>
     <g id="text_6">
      <!-- 1 -->
      <g style="fill: #262626" transform="translate(38.285413 261.221995) scale(0.14 -0.14)">
       <defs>
        <path id="DejaVuSans-31" d="M 794 531 
L 1825 531 
L 1825 4091 
L 703 3866 
L 703 4441 
L 1819 4666 
L 2450 4666 
L 2450 531 
L 3481 531 
L 3481 0 
L 794 0 
L 794 531 
z
" transform="scale(0.015625)"/>
       </defs>
       <use xlink:href="#DejaVuSans-31"/>
      </g>
     </g>
    </g>
    <g id="ytick_3">
     <g id="line2d_6">
      <g>
       <use xlink:href="#mf8da5e5b79" x="56.692913" y="121.584494" style="fill: #262626; stroke: #262626; stroke-width: 1.25"/>
      </g>
     </g>
     <g id="text_7">
      <!-- 2 -->
      <g style="fill: #262626" transform="translate(38.285413 126.9034) scale(0.14 -0.14)">
       <use xlink:href="#DejaVuSans-32"/>
      </g>
     </g>
    </g>
    <g id="text_8">
     <!-- y -->
     <g style="fill: #262626" transform="translate(30.957913 233.77437) rotate(-90) scale(0.16 -0.16)">
      <defs>
       <path id="DejaVuSans-79" d="M 2059 -325 
Q 1816 -950 1584 -1140 
Q 1353 -1331 966 -1331 
L 506 -1331 
L 506 -850 
L 844 -850 
Q 1081 -850 1212 -737 
Q 1344 -625 1503 -206 
L 1606 56 
L 191 3500 
L 800 3500 
L 1894 763 
L 2988 3500 
L 3597 3500 
L 2059 -325 
z
" transform="scale(0.015625)"/>
      </defs>
      <use xlink:href="#DejaVuSans-79"/>
     </g>
    </g>
   </g>
   <g id="line2d_7">
    <defs>
     <path id="m55daa37073" d="M 0 2 
C 0.530406 2 1.03916 1.789267 1.414214 1.414214 
C 1.789267 1.03916 2 0.530406 2 0 
C 2 -0.530406 1.789267 -1.03916 1.414214 -1.414214 
C 1.03916 -1.789267 0.530406 -2 0 -2 
C -0.530406 -2 -1.03916 -1.789267 -1.414214 -1.414214 
C -1.789267 -1.03916 -2 -0.530406 -2 0 
C -2 0.530406 -1.789267 1.03916 -1.414214 1.414214 
C -1.03916 1.789267 -0.530406 2 0 2 
z
" style="stroke: #0173b2"/>
    </defs>
    <g clip-path="url(#pd650d923a0)">
     <use xlink:href="#m55daa37073" x="64.86724" y="390.221684" style="fill: #0173b2; stroke: #0173b2"/>
     <use xlink:href="#m55daa37073" x="68.954404" y="356.911756" style="fill: #0173b2; stroke: #0173b2"/>
     <use xlink:href="#m55daa37073" x="73.041567" y="343.114331" style="fill: #0173b2; stroke: #0173b2"/>
     <use xlink:href="#m55daa37073" x="77.128731" y="332.527196" style="fill: #0173b2; stroke: #0173b2"/>
     <use xlink:href="#m55daa37073" x="81.215895" y="323.601827" style="fill: #0173b2; stroke: #0173b2"/>
     <use xlink:href="#m55daa37073" x="85.303058" y="315.73842" style="fill: #0173b2; stroke: #0173b2"/>
     <use xlink:href="#m55daa37073" x="89.390222" y="308.629356" style="fill: #0173b2; stroke: #0173b2"/>
     <use xlink:href="#m55daa37073" x="93.477385" y="302.091897" style="fill: #0173b2; stroke: #0173b2"/>
     <use xlink:href="#m55daa37073" x="97.564549" y="296.006979" style="fill: #0173b2; stroke: #0173b2"/>
     <use xlink:href="#m55daa37073" x="101.651712" y="290.291899" style="fill: #0173b2; stroke: #0173b2"/>
     <use xlink:href="#m55daa37073" x="105.738876" y="284.886442" style="fill: #0173b2; stroke: #0173b2"/>
     <use xlink:href="#m55daa37073" x="109.826039" y="279.74515" style="fill: #0173b2; stroke: #0173b2"/>
     <use xlink:href="#m55daa37073" x="113.913203" y="274.832707" style="fill: #0173b2; stroke: #0173b2"/>
     <use xlink:href="#m55daa37073" x="118.000366" y="270.121029" style="fill: #0173b2; stroke: #0173b2"/>
     <use xlink:href="#m55daa37073" x="122.08753" y="265.587345" style="fill: #0173b2; stroke: #0173b2"/>
     <use xlink:href="#m55daa37073" x="126.174693" y="261.212886" style="fill: #0173b2; stroke: #0173b2"/>
     <use xlink:href="#m55daa37073" x="130.261857" y="256.981971" style="fill: #0173b2; stroke: #0173b2"/>
     <use xlink:href="#m55daa37073" x="134.34902" y="252.881331" style="fill: #0173b2; stroke: #0173b2"/>
     <use xlink:href="#m55daa37073" x="138.436184" y="248.899627" style="fill: #0173b2; stroke: #0173b2"/>
     <use xlink:href="#m55daa37073" x="142.523347" y="245.027073" style="fill: #0173b2; stroke: #0173b2"/>
     <use xlink:href="#m55daa37073" x="146.610511" y="241.255156" style="fill: #0173b2; stroke: #0173b2"/>
     <use xlink:href="#m55daa37073" x="150.697674" y="237.576416" style="fill: #0173b2; stroke: #0173b2"/>
     <use xlink:href="#m55daa37073" x="154.784838" y="233.984271" style="fill: #0173b2; stroke: #0173b2"/>
     <use xlink:href="#m55daa37073" x="158.872001" y="230.47288" style="fill: #0173b2; stroke: #0173b2"/>
     <use xlink:href="#m55daa37073" x="162.959165" y="227.037029" style="fill: #0173b2; stroke: #0173b2"/>
     <use xlink:href="#m55daa37073" x="167.046329" y="223.672042" style="fill: #0173b2; stroke: #0173b2"/>
     <use xlink:href="#m55daa37073" x="171.133492" y="220.37371" style="fill: #0173b2; stroke: #0173b2"/>
     <use xlink:href="#m55daa37073" x="175.220656" y="217.138219" style="fill: #0173b2; stroke: #0173b2"/>
     <use xlink:href="#m55daa37073" x="179.307819" y="213.962111" style="fill: #0173b2; stroke: #0173b2"/>
     <use xlink:href="#m55daa37073" x="183.394983" y="210.84223" style="fill: #0173b2; stroke: #0173b2"/>
     <use xlink:href="#m55daa37073" x="187.482146" y="207.775693" style="fill: #0173b2; stroke: #0173b2"/>
     <use xlink:href="#m55daa37073" x="191.56931" y="204.759852" style="fill: #0173b2; stroke: #0173b2"/>
     <use xlink:href="#m55daa37073" x="195.656473" y="201.792275" style="fill: #0173b2; stroke: #0173b2"/>
     <use xlink:href="#m55daa37073" x="199.743637" y="198.870714" style="fill: #0173b2; stroke: #0173b2"/>
     <use xlink:href="#m55daa37073" x="203.8308" y="195.993094" style="fill: #0173b2; stroke: #0173b2"/>
     <use xlink:href="#m55daa37073" x="207.917964" y="193.157491" style="fill: #0173b2; stroke: #0173b2"/>
     <use xlink:href="#m55daa37073" x="212.005127" y="190.362114" style="fill: #0173b2; stroke: #0173b2"/>
     <use xlink:href="#m55daa37073" x="216.092291" y="187.6053" style="fill: #0173b2; stroke: #0173b2"/>
     <use xlink:href="#m55daa37073" x="220.179454" y="184.885496" style="fill: #0173b2; stroke: #0173b2"/>
     <use xlink:href="#m55daa37073" x="224.266618" y="182.201248" style="fill: #0173b2; stroke: #0173b2"/>
     <use xlink:href="#m55daa37073" x="228.353781" y="179.5512" style="fill: #0173b2; stroke: #0173b2"/>
     <use xlink:href="#m55daa37073" x="232.440945" y="176.934075" style="fill: #0173b2; stroke: #0173b2"/>
     <use xlink:href="#m55daa37073" x="236.528108" y="174.348676" style="fill: #0173b2; stroke: #0173b2"/>
     <use xlink:href="#m55daa37073" x="240.615272" y="171.793877" style="fill: #0173b2; stroke: #0173b2"/>
     <use xlink:href="#m55daa37073" x="244.702435" y="169.268616" style="fill: #0173b2; stroke: #0173b2"/>
     <use xlink:href="#m55daa37073" x="248.789599" y="166.771892" style="fill: #0173b2; stroke: #0173b2"/>
     <use xlink:href="#m55daa37073" x="252.876762" y="164.302759" style="fill: #0173b2; stroke: #0173b2"/>
     <use xlink:href="#m55daa37073" x="256.963926" y="161.860321" style="fill: #0173b2; stroke: #0173b2"/>
     <use xlink:href="#m55daa37073" x="261.05109" y="159.443731" style="fill: #0173b2; stroke: #0173b2"/>
     <use xlink:href="#m55daa37073" x="265.138253" y="157.052186" style="fill: #0173b2; stroke: #0173b2"/>
     <use xlink:href="#m55daa37073" x="269.225417" y="154.684922" style="fill: #0173b2; stroke: #0173b2"/>
     <use xlink:href="#m55daa37073" x="273.31258" y="152.341215" style="fill: #0173b2; stroke: #0173b2"/>
     <use xlink:href="#m55daa37073" x="277.399744" y="150.020375" style="fill: #0173b2; stroke: #0173b2"/>
     <use xlink:href="#m55daa37073" x="281.486907" y="147.721746" style="fill: #0173b2; stroke: #0173b2"/>
     <use xlink:href="#m55daa37073" x="285.574071" y="145.444701" style="fill: #0173b2; stroke: #0173b2"/>
     <use xlink:href="#m55daa37073" x="289.661234" y="143.188644" style="fill: #0173b2; stroke: #0173b2"/>
     <use xlink:href="#m55daa37073" x="293.748398" y="140.953005" style="fill: #0173b2; stroke: #0173b2"/>
     <use xlink:href="#m55daa37073" x="297.835561" y="138.73724" style="fill: #0173b2; stroke: #0173b2"/>
     <use xlink:href="#m55daa37073" x="301.922725" y="136.540828" style="fill: #0173b2; stroke: #0173b2"/>
     <use xlink:href="#m55daa37073" x="306.009888" y="134.36327" style="fill: #0173b2; stroke: #0173b2"/>
     <use xlink:href="#m55daa37073" x="310.097052" y="132.204089" style="fill: #0173b2; stroke: #0173b2"/>
     <use xlink:href="#m55daa37073" x="314.184215" y="130.062827" style="fill: #0173b2; stroke: #0173b2"/>
     <use xlink:href="#m55daa37073" x="318.271379" y="127.939046" style="fill: #0173b2; stroke: #0173b2"/>
     <use xlink:href="#m55daa37073" x="322.358542" y="125.832325" style="fill: #0173b2; stroke: #0173b2"/>
     <use xlink:href="#m55daa37073" x="326.445706" y="123.742258" style="fill: #0173b2; stroke: #0173b2"/>
     <use xlink:href="#m55daa37073" x="330.532869" y="121.668456" style="fill: #0173b2; stroke: #0173b2"/>
     <use xlink:href="#m55daa37073" x="334.620033" y="119.610547" style="fill: #0173b2; stroke: #0173b2"/>
     <use xlink:href="#m55daa37073" x="338.707196" y="117.56817" style="fill: #0173b2; stroke: #0173b2"/>
     <use xlink:href="#m55daa37073" x="342.79436" y="115.540978" style="fill: #0173b2; stroke: #0173b2"/>
     <use xlink:href="#m55daa37073" x="346.881524" y="113.528639" style="fill: #0173b2; stroke: #0173b2"/>
     <use xlink:href="#m55daa37073" x="350.968687" y="111.530829" style="fill: #0173b2; stroke: #0173b2"/>
     <use xlink:href="#m55daa37073" x="355.055851" y="109.547239" style="fill: #0173b2; stroke: #0173b2"/>
     <use xlink:href="#m55daa37073" x="359.143014" y="107.57757" style="fill: #0173b2; stroke: #0173b2"/>
     <use xlink:href="#m55daa37073" x="363.230178" y="105.621532" style="fill: #0173b2; stroke: #0173b2"/>
     <use xlink:href="#m55daa37073" x="367.317341" y="103.678846" style="fill: #0173b2; stroke: #0173b2"/>
     <use xlink:href="#m55daa37073" x="371.404505" y="101.749243" style="fill: #0173b2; stroke: #0173b2"/>
     <use xlink:href="#m55daa37073" x="375.491668" y="99.832461" style="fill: #0173b2; stroke: #0173b2"/>
     <use xlink:href="#m55daa37073" x="379.578832" y="97.928249" style="fill: #0173b2; stroke: #0173b2"/>
     <use xlink:href="#m55daa37073" x="383.665995" y="96.036363" style="fill: #0173b2; stroke: #0173b2"/>
     <use xlink:href="#m55daa37073" x="387.753159" y="94.156565" style="fill: #0173b2; stroke: #0173b2"/>
    </g>
   </g>
   <g id="patch_3">
    <path d="M 56.692913 403.653543 
L 56.692913 54.425197 
" style="fill: none; stroke: #262626; stroke-width: 1.25; stroke-linejoin: miter; stroke-linecap: square"/>
   </g>
   <g id="patch_4">
    <path d="M 56.692913 403.653543 
L 408.188976 403.653543 
" style="fill: none; stroke: #262626; stroke-width: 1.25; stroke-linejoin: miter; stroke-linecap: square"/>
   </g>
   <g id="text_9">
    <!-- $y_8=\sqrt{1.23x}$ -->
    <g style="fill: #262626" transform="translate(185.080945 48.425197) scale(0.16 -0.16)">
     <defs>
      <path id="DejaVuSans-Oblique-79" d="M 1588 -325 
Q 1188 -997 936 -1164 
Q 684 -1331 294 -1331 
L -159 -1331 
L -63 -850 
L 269 -850 
Q 509 -850 678 -719 
Q 847 -588 1056 -206 
L 1234 128 
L 459 3500 
L 1069 3500 
L 1650 819 
L 3256 3500 
L 3859 3500 
L 1588 -325 
z
" transform="scale(0.015625)"/>
      <path id="DejaVuSans-38" d="M 2034 2216 
Q 1584 2216 1326 1975 
Q 1069 1734 1069 1313 
Q 1069 891 1326 650 
Q 1584 409 2034 409 
Q 2484 409 2743 651 
Q 3003 894 3003 1313 
Q 3003 1734 2745 1975 
Q 2488 2216 2034 2216 
z
M 1403 2484 
Q 997 2584 770 2862 
Q 544 3141 544 3541 
Q 544 4100 942 4425 
Q 1341 4750 2034 4750 
Q 2731 4750 3128 4425 
Q 3525 4100 3525 3541 
Q 3525 3141 3298 2862 
Q 3072 2584 2669 2484 
Q 3125 2378 3379 2068 
Q 3634 1759 3634 1313 
Q 3634 634 3220 271 
Q 2806 -91 2034 -91 
Q 1263 -91 848 271 
Q 434 634 434 1313 
Q 434 1759 690 2068 
Q 947 2378 1403 2484 
z
M 1172 3481 
Q 1172 3119 1398 2916 
Q 1625 2713 2034 2713 
Q 2441 2713 2670 2916 
Q 2900 3119 2900 3481 
Q 2900 3844 2670 4047 
Q 2441 4250 2034 4250 
Q 1625 4250 1398 4047 
Q 1172 3844 1172 3481 
z
" transform="scale(0.015625)"/>
      <path id="DejaVuSans-3d" d="M 678 2906 
L 4684 2906 
L 4684 2381 
L 678 2381 
L 678 2906 
z
M 678 1631 
L 4684 1631 
L 4684 1100 
L 678 1100 
L 678 1631 
z
" transform="scale(0.015625)"/>
      <path id="STIXSizeOneSym-Regular-221a" d="M 6970 9933 
L 3373 -1888 
L 3104 -1888 
L 1626 2918 
Q 1555 3149 1465 3251 
Q 1376 3354 1229 3354 
Q 1011 3354 794 3181 
L 717 3309 
L 1766 4115 
L 1926 4115 
L 3379 -602 
L 3405 -602 
L 6605 9933 
L 6970 9933 
z
" transform="scale(0.015625)"/>
      <path id="DejaVuSans-2e" d="M 684 794 
L 1344 794 
L 1344 0 
L 684 0 
L 684 794 
z
" transform="scale(0.015625)"/>
      <path id="DejaVuSans-33" d="M 2597 2516 
Q 3050 2419 3304 2112 
Q 3559 1806 3559 1356 
Q 3559 666 3084 287 
Q 2609 -91 1734 -91 
Q 1441 -91 1130 -33 
Q 819 25 488 141 
L 488 750 
Q 750 597 1062 519 
Q 1375 441 1716 441 
Q 2309 441 2620 675 
Q 2931 909 2931 1356 
Q 2931 1769 2642 2001 
Q 2353 2234 1838 2234 
L 1294 2234 
L 1294 2753 
L 1863 2753 
Q 2328 2753 2575 2939 
Q 2822 3125 2822 3475 
Q 2822 3834 2567 4026 
Q 2313 4219 1838 4219 
Q 1578 4219 1281 4162 
Q 984 4106 628 3988 
L 628 4550 
Q 988 4650 1302 4700 
Q 1616 4750 1894 4750 
Q 2613 4750 3031 4423 
Q 3450 4097 3450 3541 
Q 3450 3153 3228 2886 
Q 3006 2619 2597 2516 
z
" transform="scale(0.015625)"/>
      <path id="DejaVuSans-Oblique-78" d="M 3841 3500 
L 2234 1784 
L 3219 0 
L 2559 0 
L 1819 1388 
L 531 0 
L -166 0 
L 1556 1844 
L 641 3500 
L 1300 3500 
L 1972 2234 
L 3144 3500 
L 3841 3500 
z
" transform="scale(0.015625)"/>
     </defs>
     <use xlink:href="#DejaVuSans-Oblique-79" transform="translate(0 0.296875)"/>
     <use xlink:href="#DejaVuSans-38" transform="translate(59.179688 -16.109375) scale(0.7)"/>
     <use xlink:href="#DejaVuSans-3d" transform="translate(125.932617 0.296875)"/>
     <use xlink:href="#STIXSizeOneSym-Regular-221a" transform="translate(229.204102 15.984375) scale(0.578716)"/>
     <use xlink:href="#DejaVuSans-31" transform="translate(302.877975 0.53125)"/>
     <use xlink:href="#DejaVuSans-2e" transform="translate(366.501022 0.53125)"/>
     <use xlink:href="#DejaVuSans-32" transform="translate(392.788132 0.53125)"/>
     <use xlink:href="#DejaVuSans-33" transform="translate(456.411179 0.53125)"/>
     <use xlink:href="#DejaVuSans-Oblique-78" transform="translate(520.034225 0.53125)"/>
     <path d="M 290.377975 99.5 
L 290.377975 105.75 
L 591.713913 105.75 
L 591.713913 99.5 
L 290.377975 99.5 
z
"/>
    </g>
   </g>
  </g>
 </g>
 <defs>
  <clipPath id="pd650d923a0">
   <rect x="56.692913" y="54.425197" width="351.496063" height="349.228346"/>
  </clipPath>
 </defs>
</svg>
