<?xml version="1.0" encoding="utf-8" standalone="no"?>
<!DOCTYPE svg PUBLIC "-//W3C//DTD SVG 1.1//EN"
  "http://www.w3.org/Graphics/SVG/1.1/DTD/svg11.dtd">
<svg xmlns:xlink="http://www.w3.org/1999/xlink" width="226.771654pt" height="198.425197pt" viewBox="0 0 226.771654 198.425197" xmlns="http://www.w3.org/2000/svg" version="1.1">
 <metadata>
  <rdf:RDF xmlns:dc="http://purl.org/dc/elements/1.1/" xmlns:cc="http://creativecommons.org/ns#" xmlns:rdf="http://www.w3.org/1999/02/22-rdf-syntax-ns#">
   <cc:Work>
    <dc:type rdf:resource="http://purl.org/dc/dcmitype/StillImage"/>
    <dc:date>2025-06-09T17:54:14.411650</dc:date>
    <dc:format>image/svg+xml</dc:format>
    <dc:creator>
     <cc:Agent>
      <dc:title>Matplotlib v3.10.3, https://matplotlib.org/</dc:title>
     </cc:Agent>
    </dc:creator>
   </cc:Work>
  </rdf:RDF>
 </metadata>
 <defs>
  <style type="text/css">*{stroke-linejoin: round; stroke-linecap: butt}</style>
 </defs>
 <g id="figure_1">
  <g id="patch_1">
   <path d="M 0 198.425197 
L 226.771654 198.425197 
L 226.771654 0 
L 0 0 
z
" style="fill: #ffffff"/>
  </g>
  <g id="axes_1">
   <g id="patch_2">
    <path d="M 28.346457 176.598425 
L 204.094488 176.598425 
L 204.094488 23.811024 
L 28.346457 23.811024 
z
" style="fill: #ffffff"/>
   </g>
   <g id="matplotlib.axis_1">
    <g id="xtick_1">
     <g id="line2d_1">
      <defs>
       <path id="mf6c7863b4a" d="M 0 0 
L 0 6 
" style="stroke: #262626; stroke-width: 1.25"/>
      </defs>
      <g>
       <use xlink:href="#mf6c7863b4a" x="30.069477" y="176.598425" style="fill: #262626; stroke: #262626; stroke-width: 1.25"/>
      </g>
     </g>
     <g id="text_1">
      <!-- −2 -->
      <g style="fill: #262626" transform="translate(21.224164 195.21655) scale(0.12 -0.12)">
       <defs>
        <path id="DejaVuSans-2212" d="M 678 2272 
L 4684 2272 
L 4684 1741 
L 678 1741 
L 678 2272 
z
" transform="scale(0.015625)"/>
        <path id="DejaVuSans-32" d="M 1228 531 
L 3431 531 
L 3431 0 
L 469 0 
L 469 531 
Q 828 903 1448 1529 
Q 2069 2156 2228 2338 
Q 2531 2678 2651 2914 
Q 2772 3150 2772 3378 
Q 2772 3750 2511 3984 
Q 2250 4219 1831 4219 
Q 1534 4219 1204 4116 
Q 875 4013 500 3803 
L 500 4441 
Q 881 4594 1212 4672 
Q 1544 4750 1819 4750 
Q 2544 4750 2975 4387 
Q 3406 4025 3406 3419 
Q 3406 3131 3298 2873 
Q 3191 2616 2906 2266 
Q 2828 2175 2409 1742 
Q 1991 1309 1228 531 
z
" transform="scale(0.015625)"/>
       </defs>
       <use xlink:href="#DejaVuSans-2212"/>
       <use xlink:href="#DejaVuSans-32" transform="translate(83.789062 0)"/>
      </g>
     </g>
    </g>
    <g id="xtick_2">
     <g id="line2d_2">
      <g>
       <use xlink:href="#mf6c7863b4a" x="116.220472" y="176.598425" style="fill: #262626; stroke: #262626; stroke-width: 1.25"/>
      </g>
     </g>
     <g id="text_2">
      <!-- 0 -->
      <g style="fill: #262626" transform="translate(112.402972 195.21655) scale(0.12 -0.12)">
       <defs>
        <path id="DejaVuSans-30" d="M 2034 4250 
Q 1547 4250 1301 3770 
Q 1056 3291 1056 2328 
Q 1056 1369 1301 889 
Q 1547 409 2034 409 
Q 2525 409 2770 889 
Q 3016 1369 3016 2328 
Q 3016 3291 2770 3770 
Q 2525 4250 2034 4250 
z
M 2034 4750 
Q 2819 4750 3233 4129 
Q 3647 3509 3647 2328 
Q 3647 1150 3233 529 
Q 2819 -91 2034 -91 
Q 1250 -91 836 529 
Q 422 1150 422 2328 
Q 422 3509 836 4129 
Q 1250 4750 2034 4750 
z
" transform="scale(0.015625)"/>
       </defs>
       <use xlink:href="#DejaVuSans-30"/>
      </g>
     </g>
    </g>
    <g id="xtick_3">
     <g id="line2d_3">
      <g>
       <use xlink:href="#mf6c7863b4a" x="202.371468" y="176.598425" style="fill: #262626; stroke: #262626; stroke-width: 1.25"/>
      </g>
     </g>
     <g id="text_3">
      <!-- 2 -->
      <g style="fill: #262626" transform="translate(198.553968 195.21655) scale(0.12 -0.12)">
       <use xlink:href="#DejaVuSans-32"/>
      </g>
     </g>
    </g>
    <g id="text_4">
     <!-- x -->
     <g style="fill: #262626" transform="translate(111.485472 213.869675) scale(0.16 -0.16)">
      <defs>
       <path id="DejaVuSans-78" d="M 3513 3500 
L 2247 1797 
L 3578 0 
L 2900 0 
L 1881 1375 
L 863 0 
L 184 0 
L 1544 1831 
L 300 3500 
L 978 3500 
L 1906 2253 
L 2834 3500 
L 3513 3500 
z
" transform="scale(0.015625)"/>
      </defs>
      <use xlink:href="#DejaVuSans-78"/>
     </g>
    </g>
   </g>
   <g id="matplotlib.axis_2">
    <g id="ytick_1">
     <g id="line2d_4">
      <defs>
       <path id="m99e9a277e8" d="M 0 0 
L -6 0 
" style="stroke: #262626; stroke-width: 1.25"/>
      </defs>
      <g>
       <use xlink:href="#m99e9a277e8" x="28.346457" y="163.866142" style="fill: #262626; stroke: #262626; stroke-width: 1.25"/>
      </g>
     </g>
     <g id="text_5">
      <!-- 0.0 -->
      <g style="fill: #262626" transform="translate(-0.237293 168.425204) scale(0.12 -0.12)">
       <defs>
        <path id="DejaVuSans-2e" d="M 684 794 
L 1344 794 
L 1344 0 
L 684 0 
L 684 794 
z
" transform="scale(0.015625)"/>
       </defs>
       <use xlink:href="#DejaVuSans-30"/>
       <use xlink:href="#DejaVuSans-2e" transform="translate(63.623047 0)"/>
       <use xlink:href="#DejaVuSans-30" transform="translate(95.410156 0)"/>
      </g>
     </g>
    </g>
    <g id="ytick_2">
     <g id="line2d_5">
      <g>
       <use xlink:href="#m99e9a277e8" x="28.346457" y="100.204724" style="fill: #262626; stroke: #262626; stroke-width: 1.25"/>
      </g>
     </g>
     <g id="text_6">
      <!-- 0.5 -->
      <g style="fill: #262626" transform="translate(-0.237293 104.763787) scale(0.12 -0.12)">
       <defs>
        <path id="DejaVuSans-35" d="M 691 4666 
L 3169 4666 
L 3169 4134 
L 1269 4134 
L 1269 2991 
Q 1406 3038 1543 3061 
Q 1681 3084 1819 3084 
Q 2600 3084 3056 2656 
Q 3513 2228 3513 1497 
Q 3513 744 3044 326 
Q 2575 -91 1722 -91 
Q 1428 -91 1123 -41 
Q 819 9 494 109 
L 494 744 
Q 775 591 1075 516 
Q 1375 441 1709 441 
Q 2250 441 2565 725 
Q 2881 1009 2881 1497 
Q 2881 1984 2565 2268 
Q 2250 2553 1709 2553 
Q 1456 2553 1204 2497 
Q 953 2441 691 2322 
L 691 4666 
z
" transform="scale(0.015625)"/>
       </defs>
       <use xlink:href="#DejaVuSans-30"/>
       <use xlink:href="#DejaVuSans-2e" transform="translate(63.623047 0)"/>
       <use xlink:href="#DejaVuSans-35" transform="translate(95.410156 0)"/>
      </g>
     </g>
    </g>
    <g id="ytick_3">
     <g id="line2d_6">
      <g>
       <use xlink:href="#m99e9a277e8" x="28.346457" y="36.543307" style="fill: #262626; stroke: #262626; stroke-width: 1.25"/>
      </g>
     </g>
     <g id="text_7">
      <!-- 1.0 -->
      <g style="fill: #262626" transform="translate(-0.237293 41.10237) scale(0.12 -0.12)">
       <defs>
        <path id="DejaVuSans-31" d="M 794 531 
L 1825 531 
L 1825 4091 
L 703 3866 
L 703 4441 
L 1819 4666 
L 2450 4666 
L 2450 531 
L 3481 531 
L 3481 0 
L 794 0 
L 794 531 
z
" transform="scale(0.015625)"/>
       </defs>
       <use xlink:href="#DejaVuSans-31"/>
       <use xlink:href="#DejaVuSans-2e" transform="translate(63.623047 0)"/>
       <use xlink:href="#DejaVuSans-30" transform="translate(95.410156 0)"/>
      </g>
     </g>
    </g>
    <g id="text_8">
     <!-- y -->
     <g style="fill: #262626" transform="translate(-7.564793 104.939724) rotate(-90) scale(0.16 -0.16)">
      <defs>
       <path id="DejaVuSans-79" d="M 2059 -325 
Q 1816 -950 1584 -1140 
Q 1353 -1331 966 -1331 
L 506 -1331 
L 506 -850 
L 844 -850 
Q 1081 -850 1212 -737 
Q 1344 -625 1503 -206 
L 1606 56 
L 191 3500 
L 800 3500 
L 1894 763 
L 2988 3500 
L 3597 3500 
L 2059 -325 
z
" transform="scale(0.015625)"/>
      </defs>
      <use xlink:href="#DejaVuSans-79"/>
     </g>
    </g>
   </g>
   <g id="line2d_7">
    <defs>
     <path id="mb4c60cabc0" d="M 0 1 
C 0.265203 1 0.51958 0.894634 0.707107 0.707107 
C 0.894634 0.51958 1 0.265203 1 0 
C 1 -0.265203 0.894634 -0.51958 0.707107 -0.707107 
C 0.51958 -0.894634 0.265203 -1 0 -1 
C -0.265203 -1 -0.51958 -0.894634 -0.707107 -0.707107 
C -0.894634 -0.51958 -1 -0.265203 -1 0 
C -1 0.265203 -0.894634 0.51958 -0.707107 0.707107 
C -0.51958 0.894634 -0.265203 1 0 1 
z
" style="stroke: #636363"/>
    </defs>
    <g clip-path="url(#pd7da7d9be0)">
     <use xlink:href="#mb4c60cabc0" x="32.223252" y="160.140171" style="fill: #636363; stroke: #636363"/>
     <use xlink:href="#mb4c60cabc0" x="34.377026" y="159.830613" style="fill: #636363; stroke: #636363"/>
     <use xlink:href="#mb4c60cabc0" x="36.530801" y="159.514339" style="fill: #636363; stroke: #636363"/>
     <use xlink:href="#mb4c60cabc0" x="38.684576" y="159.192204" style="fill: #636363; stroke: #636363"/>
     <use xlink:href="#mb4c60cabc0" x="40.838351" y="158.865054" style="fill: #636363; stroke: #636363"/>
     <use xlink:href="#mb4c60cabc0" x="42.992126" y="158.533722" style="fill: #636363; stroke: #636363"/>
     <use xlink:href="#mb4c60cabc0" x="45.145901" y="158.199021" style="fill: #636363; stroke: #636363"/>
     <use xlink:href="#mb4c60cabc0" x="47.299676" y="157.861745" style="fill: #636363; stroke: #636363"/>
     <use xlink:href="#mb4c60cabc0" x="49.453451" y="157.522667" style="fill: #636363; stroke: #636363"/>
     <use xlink:href="#mb4c60cabc0" x="51.607226" y="157.182546" style="fill: #636363; stroke: #636363"/>
     <use xlink:href="#mb4c60cabc0" x="53.761" y="156.842137" style="fill: #636363; stroke: #636363"/>
     <use xlink:href="#mb4c60cabc0" x="55.914775" y="156.502208" style="fill: #636363; stroke: #636363"/>
     <use xlink:href="#mb4c60cabc0" x="58.06855" y="156.163568" style="fill: #636363; stroke: #636363"/>
     <use xlink:href="#mb4c60cabc0" x="60.222325" y="155.827103" style="fill: #636363; stroke: #636363"/>
     <use xlink:href="#mb4c60cabc0" x="62.3761" y="155.493823" style="fill: #636363; stroke: #636363"/>
     <use xlink:href="#mb4c60cabc0" x="64.529875" y="155.164923" style="fill: #636363; stroke: #636363"/>
     <use xlink:href="#mb4c60cabc0" x="66.68365" y="154.841852" style="fill: #636363; stroke: #636363"/>
     <use xlink:href="#mb4c60cabc0" x="68.837425" y="154.526395" style="fill: #636363; stroke: #636363"/>
     <use xlink:href="#mb4c60cabc0" x="70.9912" y="154.220752" style="fill: #636363; stroke: #636363"/>
     <use xlink:href="#mb4c60cabc0" x="73.144975" y="153.927612" style="fill: #636363; stroke: #636363"/>
     <use xlink:href="#mb4c60cabc0" x="75.298749" y="153.650198" style="fill: #636363; stroke: #636363"/>
     <use xlink:href="#mb4c60cabc0" x="77.452524" y="153.392268" style="fill: #636363; stroke: #636363"/>
     <use xlink:href="#mb4c60cabc0" x="79.606299" y="153.158031" style="fill: #636363; stroke: #636363"/>
     <use xlink:href="#mb4c60cabc0" x="81.760074" y="152.951933" style="fill: #636363; stroke: #636363"/>
     <use xlink:href="#mb4c60cabc0" x="83.913849" y="152.778292" style="fill: #636363; stroke: #636363"/>
     <use xlink:href="#mb4c60cabc0" x="86.067624" y="152.640721" style="fill: #636363; stroke: #636363"/>
     <use xlink:href="#mb4c60cabc0" x="88.221399" y="152.541316" style="fill: #636363; stroke: #636363"/>
     <use xlink:href="#mb4c60cabc0" x="90.375174" y="152.479631" style="fill: #636363; stroke: #636363"/>
     <use xlink:href="#mb4c60cabc0" x="92.528949" y="152.451461" style="fill: #636363; stroke: #636363"/>
     <use xlink:href="#mb4c60cabc0" x="94.682723" y="152.447532" style="fill: #636363; stroke: #636363"/>
     <use xlink:href="#mb4c60cabc0" x="96.836498" y="152.452219" style="fill: #636363; stroke: #636363"/>
     <use xlink:href="#mb4c60cabc0" x="98.990273" y="152.442414" style="fill: #636363; stroke: #636363"/>
     <use xlink:href="#mb4c60cabc0" x="101.144048" y="152.386658" style="fill: #636363; stroke: #636363"/>
     <use xlink:href="#mb4c60cabc0" x="103.297823" y="152.244601" style="fill: #636363; stroke: #636363"/>
     <use xlink:href="#mb4c60cabc0" x="105.451598" y="151.966842" style="fill: #636363; stroke: #636363"/>
     <use xlink:href="#mb4c60cabc0" x="107.605373" y="151.495234" style="fill: #636363; stroke: #636363"/>
     <use xlink:href="#mb4c60cabc0" x="109.759148" y="150.763833" style="fill: #636363; stroke: #636363"/>
     <use xlink:href="#mb4c60cabc0" x="111.912923" y="149.700836" style="fill: #636363; stroke: #636363"/>
     <use xlink:href="#mb4c60cabc0" x="114.066698" y="148.231943" style="fill: #636363; stroke: #636363"/>
     <use xlink:href="#mb4c60cabc0" x="116.220472" y="146.285539" style="fill: #636363; stroke: #636363"/>
     <use xlink:href="#mb4c60cabc0" x="118.374247" y="143.799858" style="fill: #636363; stroke: #636363"/>
     <use xlink:href="#mb4c60cabc0" x="120.528022" y="140.731686" style="fill: #636363; stroke: #636363"/>
     <use xlink:href="#mb4c60cabc0" x="122.681797" y="137.06535" style="fill: #636363; stroke: #636363"/>
     <use xlink:href="#mb4c60cabc0" x="124.835572" y="132.819929" style="fill: #636363; stroke: #636363"/>
     <use xlink:href="#mb4c60cabc0" x="126.989347" y="128.052261" style="fill: #636363; stroke: #636363"/>
     <use xlink:href="#mb4c60cabc0" x="129.143122" y="122.854018" style="fill: #636363; stroke: #636363"/>
     <use xlink:href="#mb4c60cabc0" x="131.296897" y="117.342747" style="fill: #636363; stroke: #636363"/>
     <use xlink:href="#mb4c60cabc0" x="133.450672" y="111.648848" style="fill: #636363; stroke: #636363"/>
     <use xlink:href="#mb4c60cabc0" x="135.604447" y="105.901709" style="fill: #636363; stroke: #636363"/>
     <use xlink:href="#mb4c60cabc0" x="137.758221" y="100.218184" style="fill: #636363; stroke: #636363"/>
     <use xlink:href="#mb4c60cabc0" x="139.911996" y="94.69526" style="fill: #636363; stroke: #636363"/>
     <use xlink:href="#mb4c60cabc0" x="142.065771" y="89.407188" style="fill: #636363; stroke: #636363"/>
     <use xlink:href="#mb4c60cabc0" x="144.219546" y="84.406087" style="fill: #636363; stroke: #636363"/>
     <use xlink:href="#mb4c60cabc0" x="146.373321" y="79.724649" style="fill: #636363; stroke: #636363"/>
     <use xlink:href="#mb4c60cabc0" x="148.527096" y="75.379658" style="fill: #636363; stroke: #636363"/>
     <use xlink:href="#mb4c60cabc0" x="150.680871" y="71.375522" style="fill: #636363; stroke: #636363"/>
     <use xlink:href="#mb4c60cabc0" x="152.834646" y="67.70737" style="fill: #636363; stroke: #636363"/>
     <use xlink:href="#mb4c60cabc0" x="154.988421" y="64.363632" style="fill: #636363; stroke: #636363"/>
     <use xlink:href="#mb4c60cabc0" x="157.142195" y="61.328093" style="fill: #636363; stroke: #636363"/>
     <use xlink:href="#mb4c60cabc0" x="159.29597" y="58.581546" style="fill: #636363; stroke: #636363"/>
     <use xlink:href="#mb4c60cabc0" x="161.449745" y="56.103094" style="fill: #636363; stroke: #636363"/>
     <use xlink:href="#mb4c60cabc0" x="163.60352" y="53.871172" style="fill: #636363; stroke: #636363"/>
     <use xlink:href="#mb4c60cabc0" x="165.757295" y="51.86434" style="fill: #636363; stroke: #636363"/>
     <use xlink:href="#mb4c60cabc0" x="167.91107" y="50.061871" style="fill: #636363; stroke: #636363"/>
     <use xlink:href="#mb4c60cabc0" x="170.064845" y="48.444162" style="fill: #636363; stroke: #636363"/>
     <use xlink:href="#mb4c60cabc0" x="172.21862" y="46.993003" style="fill: #636363; stroke: #636363"/>
     <use xlink:href="#mb4c60cabc0" x="174.372395" y="45.691718" style="fill: #636363; stroke: #636363"/>
     <use xlink:href="#mb4c60cabc0" x="176.52617" y="44.525217" style="fill: #636363; stroke: #636363"/>
     <use xlink:href="#mb4c60cabc0" x="178.679944" y="43.479972" style="fill: #636363; stroke: #636363"/>
     <use xlink:href="#mb4c60cabc0" x="180.833719" y="42.543948" style="fill: #636363; stroke: #636363"/>
     <use xlink:href="#mb4c60cabc0" x="182.987494" y="41.706495" style="fill: #636363; stroke: #636363"/>
     <use xlink:href="#mb4c60cabc0" x="185.141269" y="40.958228" style="fill: #636363; stroke: #636363"/>
     <use xlink:href="#mb4c60cabc0" x="187.295044" y="40.290892" style="fill: #636363; stroke: #636363"/>
     <use xlink:href="#mb4c60cabc0" x="189.448819" y="39.697237" style="fill: #636363; stroke: #636363"/>
     <use xlink:href="#mb4c60cabc0" x="191.602594" y="39.170884" style="fill: #636363; stroke: #636363"/>
     <use xlink:href="#mb4c60cabc0" x="193.756369" y="38.706215" style="fill: #636363; stroke: #636363"/>
     <use xlink:href="#mb4c60cabc0" x="195.910144" y="38.298256" style="fill: #636363; stroke: #636363"/>
     <use xlink:href="#mb4c60cabc0" x="198.063918" y="37.942589" style="fill: #636363; stroke: #636363"/>
     <use xlink:href="#mb4c60cabc0" x="200.217693" y="37.635259" style="fill: #636363; stroke: #636363"/>
     <use xlink:href="#mb4c60cabc0" x="202.371468" y="37.372705" style="fill: #636363; stroke: #636363"/>
    </g>
   </g>
   <g id="line2d_8">
    <path d="M 32.223252 160.43152 
L 34.377026 156.01943 
L 36.530801 155.15594 
L 38.684576 160.142518 
L 40.838351 160.405057 
L 42.992126 161.17794 
L 45.145901 169.567571 
L 47.299676 157.322008 
L 49.453451 154.785449 
L 51.607226 159.670831 
L 53.761 160.659272 
L 55.914775 156.04442 
L 58.06855 161.89638 
L 60.222325 148.825696 
L 62.3761 160.013786 
L 64.529875 157.668569 
L 66.68365 151.853641 
L 68.837425 159.825257 
L 70.9912 146.424643 
L 73.144975 154.5408 
L 75.298749 153.439753 
L 77.452524 149.529288 
L 79.606299 155.127759 
L 81.760074 154.707208 
L 83.913849 159.279456 
L 86.067624 150.233107 
L 88.221399 155.021404 
L 90.375174 149.490997 
L 92.528949 151.641346 
L 94.682723 158.86096 
L 96.836498 152.952012 
L 98.990273 148.449234 
L 101.144048 155.223131 
L 103.297823 150.792528 
L 105.451598 143.368843 
L 107.605373 157.697809 
L 109.759148 148.869004 
L 111.912923 151.396516 
L 114.066698 143.50196 
L 116.220472 156.829496 
L 118.374247 146.015288 
L 120.528022 134.96912 
L 122.681797 122.838505 
L 124.835572 127.313417 
L 126.989347 126.945616 
L 129.143122 118.053988 
L 131.296897 112.539367 
L 133.450672 111.761457 
L 135.604447 98.974329 
L 137.758221 105.303956 
L 139.911996 95.795536 
L 142.065771 86.086366 
L 144.219546 84.72729 
L 146.373321 78.617778 
L 148.527096 76.579236 
L 150.680871 66.949272 
L 152.834646 63.354413 
L 154.988421 68.055223 
L 157.142195 71.522726 
L 159.29597 62.1323 
L 161.449745 65.170191 
L 163.60352 51.341702 
L 165.757295 54.215888 
L 167.91107 48.803748 
L 170.064845 51.569316 
L 172.21862 43.61098 
L 174.372395 48.995503 
L 176.52617 50.415444 
L 178.679944 44.239855 
L 180.833719 40.810208 
L 182.987494 33.915498 
L 185.141269 37.526208 
L 187.295044 41.050311 
L 189.448819 37.617268 
L 191.602594 39.834418 
L 193.756369 31.290101 
L 195.910144 40.421018 
L 198.063918 39.050595 
L 200.217693 40.473152 
L 202.371468 34.895404 
" clip-path="url(#pd7da7d9be0)" style="fill: none; stroke: #ca9161; stroke-width: 1.5; stroke-linecap: round"/>
   </g>
   <g id="line2d_9">
    <path d="M 32.223252 159.750881 
L 34.377026 159.650874 
L 36.530801 159.542275 
L 38.684576 159.424344 
L 40.838351 159.296267 
L 42.992126 159.15712 
L 45.145901 159.005835 
L 47.299676 158.841134 
L 49.453451 158.661433 
L 51.607226 158.4647 
L 53.761 158.248239 
L 55.914775 158.00838 
L 58.06855 157.740052 
L 60.222325 157.43621 
L 62.3761 157.087177 
L 64.529875 156.680031 
L 66.68365 156.198477 
L 68.837425 155.624046 
L 70.9912 154.940107 
L 73.144975 154.140444 
L 75.298749 153.243053 
L 77.452524 152.305595 
L 79.606299 151.431888 
L 81.760074 150.755664 
L 83.913849 150.398994 
L 86.067624 150.425571 
L 88.221399 150.817865 
L 90.375174 151.486686 
L 92.528949 152.29679 
L 94.682723 153.091313 
L 96.836498 153.713496 
L 98.990273 154.033697 
L 101.144048 153.984542 
L 103.297823 153.592179 
L 105.451598 152.975418 
L 107.605373 152.281377 
L 109.759148 151.55607 
L 111.912923 150.620255 
L 114.066698 149.082978 
L 116.220472 146.550218 
L 118.374247 142.873288 
L 120.528022 138.213428 
L 122.681797 132.905925 
L 124.835572 127.288645 
L 126.989347 121.613965 
L 129.143122 116.041691 
L 131.296897 110.664831 
L 133.450672 105.535921 
L 135.604447 100.684346 
L 137.758221 96.125754 
L 139.911996 91.866742 
L 142.065771 87.907257 
L 144.219546 84.242039 
L 146.373321 80.861714 
L 148.527096 77.753758 
L 150.680871 74.903398 
L 152.834646 72.294413 
L 154.988421 69.909831 
L 157.142195 67.732502 
L 159.29597 65.74554 
L 161.449745 63.93266 
L 163.60352 62.278396 
L 165.757295 60.768251 
L 167.91107 59.388768 
L 170.064845 58.12756 
L 172.21862 56.973294 
L 174.372395 55.915656 
L 176.52617 54.945297 
L 178.679944 54.05377 
L 180.833719 53.23346 
L 182.987494 52.477515 
L 185.141269 51.77978 
L 187.295044 51.134725 
L 189.448819 50.537392 
L 191.602594 49.98333 
L 193.756369 49.468547 
L 195.910144 48.989461 
L 198.063918 48.542857 
L 200.217693 48.125845 
L 202.371468 47.735831 
" clip-path="url(#pd7da7d9be0)" style="fill: none; stroke: #de2d26; stroke-width: 1.5; stroke-linecap: round"/>
   </g>
   <g id="line2d_10">
    <path d="M 32.223252 155.971385 
L 34.377026 155.971385 
L 36.530801 155.971385 
L 38.684576 155.971385 
L 40.838351 155.971385 
L 42.992126 155.971385 
L 45.145901 155.971385 
L 47.299676 155.971385 
L 49.453451 155.971385 
L 51.607226 155.971385 
L 53.761 155.971385 
L 55.914775 155.971385 
L 58.06855 155.971385 
L 60.222325 155.971385 
L 62.3761 155.971385 
L 64.529875 155.971385 
L 66.68365 155.971385 
L 68.837425 155.971385 
L 70.9912 155.971385 
L 73.144975 155.971385 
L 75.298749 155.971383 
L 77.452524 155.971369 
L 79.606299 155.971303 
L 81.760074 155.971038 
L 83.913849 155.97012 
L 86.067624 155.967336 
L 88.221399 155.959866 
L 90.375174 155.941898 
L 92.528949 155.902734 
L 94.682723 155.824627 
L 96.836498 155.680819 
L 98.990273 155.434428 
L 101.144048 155.038756 
L 103.297823 154.439337 
L 105.451598 153.577667 
L 107.605373 152.396122 
L 109.759148 150.843328 
L 111.912923 148.879149 
L 114.066698 146.478554 
L 116.220472 143.633921 
L 118.374247 140.35559 
L 120.528022 136.670798 
L 122.681797 132.621312 
L 124.835572 128.260205 
L 126.989347 123.648214 
L 129.143122 118.850099 
L 131.296897 113.931295 
L 133.450672 108.955082 
L 135.604447 103.980366 
L 137.758221 99.060099 
L 139.911996 94.240305 
L 142.065771 89.559621 
L 144.219546 85.049272 
L 146.373321 80.733368 
L 148.527096 76.629431 
L 150.680871 72.749066 
L 152.834646 69.09871 
L 154.988421 65.680399 
L 157.142195 62.492518 
L 159.29597 59.530507 
L 161.449745 56.787496 
L 163.60352 54.254874 
L 165.757295 51.922779 
L 167.91107 49.780516 
L 170.064845 47.816904 
L 172.21862 46.020554 
L 174.372395 44.380103 
L 176.52617 42.884385 
L 178.679944 41.522563 
L 180.833719 40.284233 
L 182.987494 39.159487 
L 185.141269 38.13896 
L 187.295044 37.213854 
L 189.448819 36.375945 
L 191.602594 35.617584 
L 193.756369 34.93168 
L 195.910144 34.311687 
L 198.063918 33.751576 
L 200.217693 33.245811 
L 202.371468 32.78932 
" clip-path="url(#pd7da7d9be0)" style="fill: none; stroke-dasharray: 5.55,2.4; stroke-dashoffset: 0; stroke: #3182bd; stroke-width: 1.5"/>
   </g>
   <g id="line2d_11">
    <path d="M 159.29597 176.598425 
L 159.29597 23.811024 
" clip-path="url(#pd7da7d9be0)" style="fill: none; stroke-dasharray: 5.55,2.4; stroke-dashoffset: 0; stroke: #1a1a1a; stroke-width: 1.5"/>
   </g>
   <g id="patch_3">
    <path d="M 28.346457 176.598425 
L 28.346457 23.811024 
" style="fill: none; stroke: #262626; stroke-width: 1.25; stroke-linejoin: miter; stroke-linecap: square"/>
   </g>
   <g id="patch_4">
    <path d="M 28.346457 176.598425 
L 204.094488 176.598425 
" style="fill: none; stroke: #262626; stroke-width: 1.25; stroke-linejoin: miter; stroke-linecap: square"/>
   </g>
   <g id="legend_1">
    <g id="patch_5">
     <path d="M 34.646457 70.641961 
L 83.911613 70.641961 
Q 85.711613 70.641961 85.711613 68.841961 
L 85.711613 30.111024 
Q 85.711613 28.311024 83.911613 28.311024 
L 34.646457 28.311024 
Q 32.846457 28.311024 32.846457 30.111024 
L 32.846457 68.841961 
Q 32.846457 70.641961 34.646457 70.641961 
z
" style="fill: #ffffff; opacity: 0.8; stroke: #cccccc; stroke-linejoin: miter"/>
    </g>
    <g id="line2d_12">
     <path d="M 36.446457 35.599617 
L 45.446457 35.599617 
L 54.446457 35.599617 
" style="fill: none; stroke: #ca9161; stroke-width: 1.5; stroke-linecap: round"/>
    </g>
    <g id="text_9">
     <!-- $\sigma$ -->
     <g style="fill: #262626" transform="translate(61.646457 38.749617) scale(0.09 -0.09)">
      <defs>
       <path id="DejaVuSans-Oblique-3c3" d="M 2219 3044 
Q 1744 3044 1422 2700 
Q 1081 2341 969 1747 
Q 844 1119 1044 756 
Q 1241 397 1706 397 
Q 2166 397 2503 759 
Q 2844 1122 2966 1747 
Q 3075 2319 2881 2700 
Q 2700 3044 2219 3044 
z
M 2309 3503 
L 4219 3500 
L 4106 2925 
L 3463 2925 
Q 3706 2438 3575 1747 
Q 3406 888 2884 400 
Q 2359 -91 1609 -91 
Q 856 -91 525 400 
Q 194 888 363 1747 
Q 528 2609 1050 3097 
Q 1484 3503 2309 3503 
z
" transform="scale(0.015625)"/>
      </defs>
      <use xlink:href="#DejaVuSans-Oblique-3c3" transform="translate(0 0.265625)"/>
     </g>
    </g>
    <g id="line2d_13">
     <path d="M 36.446457 48.80993 
L 45.446457 48.80993 
L 54.446457 48.80993 
" style="fill: none; stroke: #de2d26; stroke-width: 1.5; stroke-linecap: round"/>
    </g>
    <g id="text_10">
     <!-- f'(x) -->
     <g style="fill: #262626" transform="translate(61.646457 51.95993) scale(0.09 -0.09)">
      <defs>
       <path id="DejaVuSans-66" d="M 2375 4863 
L 2375 4384 
L 1825 4384 
Q 1516 4384 1395 4259 
Q 1275 4134 1275 3809 
L 1275 3500 
L 2222 3500 
L 2222 3053 
L 1275 3053 
L 1275 0 
L 697 0 
L 697 3053 
L 147 3053 
L 147 3500 
L 697 3500 
L 697 3744 
Q 697 4328 969 4595 
Q 1241 4863 1831 4863 
L 2375 4863 
z
" transform="scale(0.015625)"/>
       <path id="DejaVuSans-27" d="M 1147 4666 
L 1147 2931 
L 616 2931 
L 616 4666 
L 1147 4666 
z
" transform="scale(0.015625)"/>
       <path id="DejaVuSans-28" d="M 1984 4856 
Q 1566 4138 1362 3434 
Q 1159 2731 1159 2009 
Q 1159 1288 1364 580 
Q 1569 -128 1984 -844 
L 1484 -844 
Q 1016 -109 783 600 
Q 550 1309 550 2009 
Q 550 2706 781 3412 
Q 1013 4119 1484 4856 
L 1984 4856 
z
" transform="scale(0.015625)"/>
       <path id="DejaVuSans-29" d="M 513 4856 
L 1013 4856 
Q 1481 4119 1714 3412 
Q 1947 2706 1947 2009 
Q 1947 1309 1714 600 
Q 1481 -109 1013 -844 
L 513 -844 
Q 928 -128 1133 580 
Q 1338 1288 1338 2009 
Q 1338 2731 1133 3434 
Q 928 4138 513 4856 
z
" transform="scale(0.015625)"/>
      </defs>
      <use xlink:href="#DejaVuSans-66"/>
      <use xlink:href="#DejaVuSans-27" transform="translate(35.205078 0)"/>
      <use xlink:href="#DejaVuSans-28" transform="translate(62.695312 0)"/>
      <use xlink:href="#DejaVuSans-78" transform="translate(101.708984 0)"/>
      <use xlink:href="#DejaVuSans-29" transform="translate(160.888672 0)"/>
     </g>
    </g>
    <g id="line2d_14">
     <path d="M 36.446457 62.020242 
L 45.446457 62.020242 
L 54.446457 62.020242 
" style="fill: none; stroke-dasharray: 5.55,2.4; stroke-dashoffset: 0; stroke: #3182bd; stroke-width: 1.5"/>
    </g>
    <g id="text_11">
     <!-- f''(x) -->
     <g style="fill: #262626" transform="translate(61.646457 65.170242) scale(0.09 -0.09)">
      <use xlink:href="#DejaVuSans-66"/>
      <use xlink:href="#DejaVuSans-27" transform="translate(35.205078 0)"/>
      <use xlink:href="#DejaVuSans-27" transform="translate(62.695312 0)"/>
      <use xlink:href="#DejaVuSans-28" transform="translate(90.185547 0)"/>
      <use xlink:href="#DejaVuSans-78" transform="translate(129.199219 0)"/>
      <use xlink:href="#DejaVuSans-29" transform="translate(188.378906 0)"/>
     </g>
    </g>
   </g>
  </g>
 </g>
 <defs>
  <clipPath id="pd7da7d9be0">
   <rect x="28.346457" y="23.811024" width="175.748031" height="152.787402"/>
  </clipPath>
 </defs>
</svg>
